<?xml version="1.0" encoding="UTF-8"?>
<svg xmlns="http://www.w3.org/2000/svg" xmlns:xlink="http://www.w3.org/1999/xlink" viewBox="0 0 1600 561.8">
  <defs>
    <style>
      .cls-1 {
        fill: url(#linear-gradient);
      }

      .cls-2 {
        fill: #e3ff94;
      }

      .cls-3 {
        fill: #fff;
      }

      .cls-4 {
        fill: #f1f1f1;
      }

      .cls-5 {
        fill: #ff6565;
      }

      .cls-6 {
        fill: #313841;
      }

      .cls-7 {
        fill: #cbcbcb;
      }

      .cls-8 {
        fill: #586e75;
        opacity: .3;
      }
    </style>
    <linearGradient id="linear-gradient" x1="800.57" y1="401.7" x2="799.43" y2="161.39" gradientUnits="userSpaceOnUse">
      <stop offset="0" stop-color="#fa710f"/>
      <stop offset=".31" stop-color="#fb8c3a"/>
      <stop offset="1" stop-color="#fdc7a0"/>
    </linearGradient>
  </defs>
  <g id="background">
    <rect class="cls-3" width="1600" height="561.8"/>
  </g>
  <g id="Data_Animation" data-name="Data Animation">
    <g>
      <rect class="cls-3" x="533.33" y="130.9" width="533.33" height="300"/>
      <path class="cls-8" d="m909.72,410.14v-240.42h-218.93v240.42s106.93-11.81,218.93,0Z"/>
      <rect class="cls-1" x="679.79" y="160.77" width="240.42" height="240.42" rx="10" ry="10"/>
      <g>
        <rect class="cls-6" x="697.25" y="207.2" width="205.51" height="157.79"/>
        <rect class="cls-7" x="697.25" y="364" width="205.51" height="1"/>
      </g>
      <rect class="cls-4" x="724.59" y="331.73" width="1.49" height="17.42"/>
      <path class="cls-2" d="m722.03,345.24c0,.75-.41,1.31-1.23,1.66-.82.36-2.14.52-3.95.49v-1.14c1.46.03,2.47-.06,3.03-.25.56-.19.85-.5.85-.93,0-.24-.06-.46-.17-.64-.12-.19-.33-.41-.63-.67-.33-.3-.56-.55-.69-.75s-.19-.41-.19-.62c0-.5.21-.89.64-1.16.43-.28,1.04-.46,1.84-.54v-.06c-.8-.03-1.42-.17-1.84-.42-.43-.25-.64-.61-.64-1.09,0-.24.06-.46.18-.67.12-.2.34-.45.65-.73.32-.29.54-.53.67-.71.13-.18.19-.36.19-.53,0-.41-.28-.7-.85-.88-.57-.18-1.58-.26-3.03-.23v-1.16c1.81-.03,3.13.13,3.95.49.82.36,1.23.9,1.23,1.64,0,.44-.09.79-.27,1.06-.18.27-.37.5-.58.69-.22.19-.41.36-.58.51-.17.15-.26.34-.26.55,0,.4.22.68.65.84s1.21.26,2.33.28v.78c-1.12.03-1.9.12-2.33.29s-.65.46-.65.86c0,.22.09.42.26.61.17.19.37.39.58.61.21.22.4.47.58.76.18.29.27.65.27,1.09Z"/>
      <g>
        <path class="cls-5" d="m737.52,321.58c-.66,0-1.29-.1-1.9-.29s-1.18-.49-1.7-.9l.58-1.02c.42.35.89.61,1.42.78.52.18,1.05.27,1.6.27.45,0,.88-.07,1.29-.21.41-.14.61-.43.61-.88,0-.37-.17-.63-.5-.79s-.95-.29-1.85-.4c-.95-.11-1.67-.34-2.15-.67-.49-.33-.73-.86-.73-1.58,0-.78.29-1.36.88-1.76s1.27-.59,2.04-.59c.61,0,1.2.1,1.77.31.57.21,1.09.5,1.57.88l-.58,1.02c-.4-.32-.83-.57-1.29-.76-.47-.19-.95-.28-1.46-.28-.41,0-.79.08-1.13.23s-.51.44-.51.85c0,.35.16.61.47.77.32.16.92.3,1.82.41.98.11,1.72.35,2.21.72.49.37.74.88.74,1.53,0,.81-.33,1.4-.98,1.78-.66.38-1.39.56-2.2.56Z"/>
        <path class="cls-5" d="m746.66,321.58c-1.13,0-1.98-.25-2.56-.74s-.86-1.23-.86-2.19v-2.1c0-.98.29-1.73.86-2.23.57-.5,1.42-.76,2.54-.76,1,0,1.77.23,2.31.68.54.45.84,1.12.9,1.99l-1.27.08c-.04-.53-.21-.93-.53-1.19s-.79-.39-1.42-.39c-.71,0-1.23.15-1.58.45-.35.3-.52.76-.52,1.38v2.1c0,.59.17,1.04.52,1.33.35.29.88.44,1.6.44.62,0,1.09-.11,1.41-.33s.49-.55.52-.99l1.27.08c-.06.79-.36,1.39-.89,1.8-.54.41-1.3.61-2.3.61Z"/>
        <path class="cls-5" d="m752.3,321.45v-10.35h1.29v3.88h.39c.19-.44.49-.79.89-1.04.41-.25.87-.38,1.38-.38.78,0,1.39.24,1.84.71.45.47.67,1.12.67,1.93v5.25h-1.29v-4.98c0-.54-.13-.96-.4-1.25s-.64-.43-1.13-.43c-.39,0-.78.12-1.18.35-.4.23-.79.57-1.17,1.01v5.31h-1.29Z"/>
        <path class="cls-5" d="m767.86,319.74c-.23.65-.59,1.12-1.06,1.4-.47.29-1.2.43-2.19.43s-1.82-.25-2.39-.74-.85-1.23-.85-2.21v-2.08c0-1,.3-1.75.9-2.25.6-.5,1.38-.74,2.35-.74s1.76.25,2.34.76c.59.5.88,1.28.88,2.32v1.19h-5.18v.82c0,.65.16,1.12.49,1.4s.81.43,1.46.43,1.07-.09,1.36-.26.5-.45.65-.84l1.26.36Zm-5.2-3.2v.31h3.88v-.19c0-.7-.16-1.21-.49-1.53-.32-.32-.81-.48-1.46-.48s-1.13.15-1.46.46c-.32.31-.49.78-.49,1.43Z"/>
        <path class="cls-5" d="m775.21,320.15c-.22.45-.53.8-.93,1.05-.4.25-.84.38-1.33.38-.8,0-1.42-.26-1.86-.78-.44-.52-.66-1.24-.66-2.17v-2.11c0-.94.29-1.67.88-2.19s1.41-.78,2.46-.78c.3,0,.61.03.93.1.32.07.62.15.91.27v-2.82h1.29v10.35h-1.29v-1.29h-.39Zm-1.94.19c.42,0,.82-.11,1.2-.34.38-.22.76-.56,1.13-1.02v-3.8c-.27-.16-.55-.29-.85-.37s-.63-.12-.97-.12c-.7,0-1.22.15-1.55.46-.34.31-.5.77-.5,1.39v2.08c0,.58.13,1.01.39,1.29s.65.43,1.16.43Z"/>
        <path class="cls-5" d="m781.99,321.58c-.75,0-1.36-.24-1.82-.73s-.69-1.13-.69-1.92v-5.24h1.29v4.98c0,.57.13.99.38,1.27.25.28.63.41,1.15.41.41,0,.8-.11,1.18-.33.38-.22.77-.56,1.17-1.03v-5.31h1.29v7.76h-1.29v-1.29h-.39c-.18.42-.48.77-.9,1.03-.42.26-.88.4-1.38.4Z"/>
        <path class="cls-5" d="m788.53,321.45v-1.16h2.59v-8.02h-2.59v-1.16h3.88v9.19h2.59v1.16h-6.47Z"/>
        <path class="cls-5" d="m804.09,319.74c-.23.65-.59,1.12-1.06,1.4-.47.29-1.2.43-2.19.43s-1.82-.25-2.39-.74-.85-1.23-.85-2.21v-2.08c0-1,.3-1.75.9-2.25.6-.5,1.38-.74,2.35-.74s1.76.25,2.34.76c.59.5.88,1.28.88,2.32v1.19h-5.18v.82c0,.65.16,1.12.49,1.4s.81.43,1.46.43,1.07-.09,1.36-.26.5-.45.65-.84l1.26.36Zm-5.2-3.2v.31h3.88v-.19c0-.7-.16-1.21-.49-1.53-.32-.32-.81-.48-1.46-.48s-1.13.15-1.46.46c-.32.31-.49.78-.49,1.43Z"/>
        <path class="cls-5" d="m811.44,320.15c-.22.45-.53.8-.93,1.05-.4.25-.84.38-1.33.38-.8,0-1.42-.26-1.86-.78-.44-.52-.66-1.24-.66-2.17v-2.11c0-.94.29-1.67.88-2.19s1.41-.78,2.46-.78c.3,0,.61.03.93.1.32.07.62.15.91.27v-2.82h1.29v10.35h-1.29v-1.29h-.39Zm-1.94.19c.42,0,.82-.11,1.2-.34.38-.22.76-.56,1.13-1.02v-3.8c-.27-.16-.55-.29-.85-.37s-.63-.12-.97-.12c-.7,0-1.22.15-1.55.46-.34.31-.5.77-.5,1.39v2.08c0,.58.13,1.01.39,1.29s.65.43,1.16.43Z"/>
        <path class="cls-5" d="m821.6,321.45l-.89-2.98h-3.56l-.89,2.98h-1.32l3.34-10.35h1.36l3.34,10.35h-1.37Zm-1.24-4.14l-1.42-4.75-1.44,4.75h2.86Z"/>
        <path class="cls-5" d="m829.28,321.57c-.85,0-1.52-.21-1.99-.63-.47-.42-.71-1.07-.71-1.94v-4.14h-2.2v-1.16h2.2v-2.59h1.29v2.59h3.36v1.16h-3.36v4.02c0,.5.12.87.38,1.11.25.24.62.36,1.11.36.33,0,.63-.02.92-.07.28-.05.56-.11.82-.19l.26,1.18c-.29.09-.61.16-.94.21-.33.06-.71.08-1.13.08Z"/>
        <path class="cls-3" d="m837.07,316.4c-.43,0-.78-.09-1.05-.27-.27-.18-.4-.45-.4-.82v-.62c0-.38.13-.66.4-.84.27-.18.62-.27,1.05-.27s.78.09,1.04.27c.26.18.4.46.4.84v.62c0,.37-.13.65-.4.82-.27.18-.61.27-1.04.27Zm0,5.18c-.43,0-.78-.09-1.05-.27-.27-.18-.4-.45-.4-.82v-.62c0-.38.13-.66.4-.84.27-.18.62-.27,1.05-.27s.78.09,1.04.27c.26.18.4.46.4.84v.62c0,.37-.13.65-.4.82-.27.18-.61.27-1.04.27Z"/>
        <path class="cls-5" d="m851.94,321.45v-1.16h2.59v-5.44h-2.59v-1.16h3.88v6.6h2.59v1.16h-6.47Zm3.24-9.19c-.33,0-.59-.05-.8-.16-.2-.1-.3-.3-.3-.58v-.09c0-.29.1-.49.3-.6.2-.11.47-.16.8-.16s.59.05.8.16c.2.11.3.31.3.6v.09c0,.28-.1.48-.31.58-.21.1-.47.16-.79.16Z"/>
        <path class="cls-5" d="m861,321.45v-7.76h1.29v1.29h.39c.19-.44.49-.79.89-1.04.41-.25.87-.38,1.38-.38.78,0,1.39.24,1.84.71.45.47.67,1.12.67,1.94v5.24h-1.29v-4.98c0-.54-.13-.96-.4-1.25s-.64-.43-1.13-.43c-.39,0-.78.12-1.18.35-.4.23-.79.57-1.17,1.01v5.31h-1.29Z"/>
        <path class="cls-5" d="m874.57,321.57c-.85,0-1.52-.21-1.99-.63-.47-.42-.71-1.07-.71-1.94v-4.14h-2.2v-1.16h2.2v-2.59h1.29v2.59h3.36v1.16h-3.36v4.02c0,.5.12.87.38,1.11.25.24.62.36,1.11.36.33,0,.63-.02.92-.07.28-.05.56-.11.82-.19l.26,1.18c-.29.09-.61.16-.94.21-.33.06-.71.08-1.13.08Z"/>
        <path class="cls-3" d="m880.41,324.04l1.16-5.18h2.58l-2.65,5.18h-1.09Z"/>
      </g>
      <g>
        <path class="cls-5" d="m737.32,298.35c-.29,0-.6-.03-.93-.1-.32-.06-.63-.15-.91-.26v2.82h-1.29v-10.35h1.29v1.29h.39c.22-.44.53-.79.94-1.04.41-.25.85-.38,1.33-.38.78,0,1.39.26,1.84.8.45.53.68,1.25.68,2.15v2.11c0,.91-.3,1.64-.9,2.17s-1.41.8-2.44.8Zm-.01-1.14c.73,0,1.25-.15,1.57-.44.32-.29.49-.76.49-1.41v-2.1c0-.6-.12-1.03-.37-1.3-.25-.27-.64-.41-1.18-.41-.43,0-.83.11-1.2.32-.37.22-.75.56-1.13,1.04v3.8c.27.16.55.29.83.37.29.08.62.12.99.12Z"/>
        <path class="cls-5" d="m743.24,298.22v-1.16h2.59v-5.44h-2.59v-1.16h3.88v6.6h2.59v1.16h-6.47Zm3.24-9.19c-.33,0-.59-.05-.8-.16-.2-.1-.3-.3-.3-.58v-.09c0-.29.1-.49.3-.6.2-.11.47-.16.8-.16s.59.05.8.16c.2.11.3.31.3.6v.09c0,.28-.1.48-.31.58-.21.1-.47.16-.79.16Z"/>
        <path class="cls-5" d="m755.72,298.35c-1.13,0-1.98-.25-2.56-.74s-.86-1.23-.86-2.19v-2.1c0-.98.29-1.73.86-2.23.57-.5,1.42-.76,2.54-.76,1,0,1.77.23,2.31.68.54.45.84,1.12.9,1.99l-1.27.08c-.04-.53-.21-.93-.53-1.19s-.79-.39-1.42-.39c-.71,0-1.23.15-1.58.45-.35.3-.52.76-.52,1.38v2.1c0,.59.17,1.04.52,1.33.35.29.88.44,1.6.44.62,0,1.09-.11,1.41-.33s.49-.55.52-.99l1.27.08c-.06.79-.36,1.39-.89,1.8-.54.41-1.3.61-2.3.61Z"/>
        <path class="cls-5" d="m763.3,294.7v3.52h-1.29v-10.35h1.29v5.73h.66l2.48-3.14h1.58l-3.04,3.62,3,4.15h-1.48l-2.55-3.52h-.66Z"/>
        <path class="cls-5" d="m772.93,298.35c-.75,0-1.36-.24-1.82-.73s-.69-1.13-.69-1.92v-5.24h1.29v4.98c0,.57.13.99.38,1.27.25.28.63.41,1.15.41.41,0,.8-.11,1.18-.33.38-.22.77-.56,1.17-1.03v-5.31h1.29v7.76h-1.29v-1.29h-.39c-.18.42-.48.77-.9,1.03-.42.26-.88.4-1.38.4Z"/>
        <path class="cls-5" d="m782.61,298.35c-.29,0-.6-.03-.93-.1-.32-.06-.63-.15-.91-.26v2.82h-1.29v-10.35h1.29v1.29h.39c.22-.44.53-.79.94-1.04.41-.25.85-.38,1.33-.38.78,0,1.39.26,1.84.8.45.53.68,1.25.68,2.15v2.11c0,.91-.3,1.64-.9,2.17s-1.41.8-2.44.8Zm-.01-1.14c.73,0,1.25-.15,1.57-.44.32-.29.49-.76.49-1.41v-2.1c0-.6-.12-1.03-.37-1.3-.25-.27-.64-.41-1.18-.41-.43,0-.83.11-1.2.32-.37.22-.75.56-1.13,1.04v3.8c.27.16.55.29.83.37.29.08.62.12.99.12Z"/>
        <path class="cls-5" d="m791.12,298.22v-9.19h-3.24v-1.16h7.76v1.16h-3.24v9.19h-1.29Z"/>
        <path class="cls-5" d="m797.59,298.22v-1.16h2.59v-5.44h-2.59v-1.16h3.88v6.6h2.59v1.16h-6.47Zm3.24-9.19c-.33,0-.59-.05-.8-.16-.2-.1-.3-.3-.3-.58v-.09c0-.29.1-.49.3-.6.2-.11.47-.16.8-.16s.59.05.8.16c.2.11.3.31.3.6v.09c0,.28-.1.48-.31.58-.21.1-.47.16-.79.16Z"/>
        <path class="cls-5" d="m807.32,292.66v5.56h-1.19v-7.76h1.19v1.04h.26c.16-.36.38-.65.65-.85.27-.21.55-.31.84-.31.34,0,.62.1.85.3.23.2.39.49.47.86h.28c.16-.36.39-.65.67-.85s.58-.31.9-.31c.43,0,.77.17,1.02.52.25.35.38.82.38,1.42v5.95h-1.19v-5.75c0-.39-.05-.68-.16-.88-.1-.2-.25-.3-.45-.3-.16,0-.37.12-.61.36s-.49.57-.74,1v5.56h-1.19v-5.75c0-.39-.05-.68-.16-.88-.11-.2-.26-.3-.46-.3-.17,0-.37.12-.6.35-.23.23-.48.57-.74,1.01Z"/>
        <path class="cls-5" d="m822.2,296.52c-.23.65-.59,1.12-1.06,1.4-.47.29-1.2.43-2.19.43s-1.82-.25-2.39-.74-.85-1.23-.85-2.21v-2.08c0-1,.3-1.75.9-2.25.6-.5,1.38-.74,2.35-.74s1.76.25,2.34.76c.59.5.88,1.28.88,2.32v1.19h-5.18v.82c0,.65.16,1.12.49,1.4s.81.43,1.46.43,1.07-.09,1.36-.26.5-.45.65-.84l1.26.36Zm-5.2-3.2v.31h3.88v-.19c0-.7-.16-1.21-.49-1.53-.32-.32-.81-.48-1.46-.48s-1.13.15-1.46.46c-.32.31-.49.78-.49,1.43Z"/>
        <path class="cls-3" d="m828.01,293.18c-.43,0-.78-.09-1.05-.27-.27-.18-.4-.45-.4-.82v-.62c0-.38.13-.66.4-.84.27-.18.62-.27,1.05-.27s.78.09,1.04.27c.26.18.4.46.4.84v.62c0,.37-.13.65-.4.82-.27.18-.61.27-1.04.27Zm0,5.18c-.43,0-.78-.09-1.05-.27-.27-.18-.4-.45-.4-.82v-.62c0-.38.13-.66.4-.84.27-.18.62-.27,1.05-.27s.78.09,1.04.27c.26.18.4.46.4.84v.62c0,.37-.13.65-.4.82-.27.18-.61.27-1.04.27Z"/>
        <path class="cls-5" d="m842.88,298.22v-1.16h2.59v-5.44h-2.59v-1.16h3.88v6.6h2.59v1.16h-6.47Zm3.24-9.19c-.33,0-.59-.05-.8-.16-.2-.1-.3-.3-.3-.58v-.09c0-.29.1-.49.3-.6.2-.11.47-.16.8-.16s.59.05.8.16c.2.11.3.31.3.6v.09c0,.28-.1.48-.31.58-.21.1-.47.16-.79.16Z"/>
        <path class="cls-5" d="m851.94,298.22v-7.76h1.29v1.29h.39c.19-.44.49-.79.89-1.04.41-.25.87-.38,1.38-.38.78,0,1.39.24,1.84.71.45.47.67,1.12.67,1.94v5.24h-1.29v-4.98c0-.54-.13-.96-.4-1.25s-.64-.43-1.13-.43c-.39,0-.78.12-1.18.35-.4.23-.79.57-1.17,1.01v5.31h-1.29Z"/>
        <path class="cls-5" d="m865.52,298.34c-.85,0-1.52-.21-1.99-.63-.47-.42-.71-1.07-.71-1.94v-4.14h-2.2v-1.16h2.2v-2.59h1.29v2.59h3.36v1.16h-3.36v4.02c0,.5.12.87.38,1.11.25.24.62.36,1.11.36.33,0,.63-.02.92-.07.28-.05.56-.11.82-.19l.26,1.18c-.29.09-.61.16-.94.21-.33.06-.71.08-1.13.08Z"/>
        <path class="cls-3" d="m871.35,300.81l1.16-5.18h2.58l-2.65,5.18h-1.09Z"/>
      </g>
      <g>
        <path class="cls-5" d="m738.22,275h-1.62l-2.76-7.76h1.41l2.17,6.72,2.17-6.72h1.37l-2.76,7.76Z"/>
        <path class="cls-5" d="m743.24,275v-1.16h2.59v-5.44h-2.59v-1.16h3.88v6.6h2.59v1.16h-6.47Zm3.24-9.19c-.33,0-.59-.05-.8-.16-.2-.1-.3-.3-.3-.58v-.09c0-.29.1-.49.3-.6.2-.11.47-.16.8-.16s.59.05.8.16c.2.11.3.31.3.6v.09c0,.28-.1.48-.31.58-.21.1-.47.16-.79.16Z"/>
        <path class="cls-5" d="m752.3,275v-7.76h1.29v1.29h.39c.19-.44.49-.79.89-1.04.41-.25.87-.38,1.38-.38.78,0,1.39.24,1.84.71.45.47.67,1.12.67,1.94v5.24h-1.29v-4.98c0-.54-.13-.96-.4-1.25s-.64-.43-1.13-.43c-.39,0-.78.12-1.18.35-.4.23-.79.57-1.17,1.01v5.31h-1.29Z"/>
        <path class="cls-3" d="m764.61,269.95c-.43,0-.78-.09-1.05-.27-.27-.18-.4-.45-.4-.82v-.62c0-.38.13-.66.4-.84.27-.18.62-.27,1.05-.27s.78.09,1.04.27c.26.18.4.46.4.84v.62c0,.37-.13.65-.4.82-.27.18-.61.27-1.04.27Zm0,5.18c-.43,0-.78-.09-1.05-.27-.27-.18-.4-.45-.4-.82v-.62c0-.38.13-.66.4-.84.27-.18.62-.27,1.05-.27s.78.09,1.04.27c.26.18.4.46.4.84v.62c0,.37-.13.65-.4.82-.27.18-.61.27-1.04.27Z"/>
        <path class="cls-5" d="m782.81,275.13c-.66,0-1.29-.1-1.9-.29s-1.18-.49-1.7-.9l.58-1.02c.42.35.89.61,1.42.78.52.18,1.05.27,1.6.27.45,0,.88-.07,1.29-.21.41-.14.61-.43.61-.88,0-.37-.17-.63-.5-.79s-.95-.29-1.85-.4c-.95-.11-1.67-.34-2.15-.67-.49-.33-.73-.86-.73-1.58,0-.78.29-1.36.88-1.76s1.27-.59,2.04-.59c.61,0,1.2.1,1.77.31.57.21,1.09.5,1.57.88l-.58,1.02c-.4-.32-.83-.57-1.29-.76-.47-.19-.95-.28-1.46-.28-.41,0-.79.08-1.13.23s-.51.44-.51.85c0,.35.16.61.47.77.32.16.92.3,1.82.41.98.11,1.72.35,2.21.72.49.37.74.88.74,1.53,0,.81-.33,1.4-.98,1.78-.66.38-1.39.56-2.2.56Z"/>
        <path class="cls-5" d="m793.05,275.12c-.85,0-1.52-.21-1.99-.63-.47-.42-.71-1.07-.71-1.94v-4.14h-2.2v-1.16h2.2v-2.59h1.29v2.59h3.36v1.16h-3.36v4.02c0,.5.12.87.38,1.11.25.24.62.36,1.11.36.33,0,.63-.02.92-.07.28-.05.56-.11.82-.19l.26,1.18c-.29.09-.61.16-.94.21-.33.06-.71.08-1.13.08Z"/>
        <path class="cls-5" d="m798.24,275v-7.76h1.29v1.29h.39c.18-.49.46-.85.83-1.08.37-.23.82-.34,1.35-.34.58,0,1.06.19,1.45.58.39.38.58.92.58,1.62v1.16h-1.23v-.7c0-.49-.11-.85-.33-1.09-.22-.23-.55-.35-1-.35-.41,0-.77.1-1.11.3s-.64.51-.92.93v5.44h-1.29Z"/>
        <path class="cls-5" d="m806.65,275v-1.16h2.59v-5.44h-2.59v-1.16h3.88v6.6h2.59v1.16h-6.47Zm3.24-9.19c-.33,0-.59-.05-.8-.16-.2-.1-.3-.3-.3-.58v-.09c0-.29.1-.49.3-.6.2-.11.47-.16.8-.16s.59.05.8.16c.2.11.3.31.3.6v.09c0,.28-.1.48-.31.58-.21.1-.47.16-.79.16Z"/>
        <path class="cls-5" d="m815.71,275v-7.76h1.29v1.29h.39c.19-.44.49-.79.89-1.04.41-.25.87-.38,1.38-.38.78,0,1.39.24,1.84.71.45.47.67,1.12.67,1.94v5.24h-1.29v-4.98c0-.54-.13-.96-.4-1.25s-.64-.43-1.13-.43c-.39,0-.78.12-1.18.35-.4.23-.79.57-1.17,1.01v5.31h-1.29Z"/>
        <path class="cls-5" d="m831.88,275.62c0,.7-.26,1.22-.77,1.57-.51.35-1.14.52-1.88.52h-2.43c-.78,0-1.42-.16-1.92-.47-.5-.31-.76-.79-.76-1.44,0-.41.11-.74.33-.99.22-.25.54-.39.96-.42v-.27c-.3-.05-.55-.18-.74-.37-.19-.2-.29-.5-.29-.92,0-.37.12-.7.35-1,.23-.3.62-.47,1.18-.51v-.24c-.42-.14-.71-.35-.85-.63-.15-.28-.22-.55-.22-.81v-.35c0-.6.25-1.09.76-1.48.51-.39,1.22-.58,2.15-.58h3.82v1.16l-2.01-.3v.23c.34.1.61.28.78.54.18.27.27.53.27.8v.34c0,.6-.23,1.08-.69,1.44-.46.37-1.2.55-2.23.55h-1.57c-.23,0-.41.06-.53.17-.12.12-.18.31-.18.59s.08.47.25.6c.17.13.42.2.76.2h2.94c.72,0,1.33.16,1.8.48.48.32.72.84.72,1.57Zm-5.11,1.05h2.63c.39,0,.7-.07.94-.22s.36-.4.36-.76-.11-.59-.33-.73-.5-.22-.85-.22h-4.12v.87c0,.35.12.61.35.79.23.17.57.26,1.01.26Zm.97-5.63c.53,0,.93-.1,1.2-.29.28-.19.41-.49.41-.9v-.42c0-.41-.14-.7-.41-.89-.28-.19-.68-.28-1.2-.28s-.93.09-1.2.28c-.28.19-.41.48-.41.89v.42c0,.41.14.71.41.9.28.19.68.29,1.2.29Z"/>
        <path class="cls-3" d="m835.12,277.59l1.16-5.18h2.58l-2.65,5.18h-1.09Z"/>
      </g>
      <g>
        <path class="cls-5" d="m734.83,251.77v-7.76h1.29v1.29h.39c.18-.49.46-.85.83-1.08.37-.23.82-.34,1.35-.34.58,0,1.06.19,1.45.58.39.38.58.92.58,1.62v1.16h-1.23v-.7c0-.49-.11-.85-.33-1.09-.22-.23-.55-.35-1-.35-.41,0-.77.1-1.11.3s-.64.51-.92.93v5.44h-1.29Z"/>
        <path class="cls-5" d="m743.24,251.77v-1.16h2.59v-5.44h-2.59v-1.16h3.88v6.6h2.59v1.16h-6.47Zm3.24-9.19c-.33,0-.59-.05-.8-.16-.2-.1-.3-.3-.3-.58v-.09c0-.29.1-.49.3-.6.2-.11.47-.16.8-.16s.59.05.8.16c.2.11.3.31.3.6v.09c0,.28-.1.48-.31.58-.21.1-.47.16-.79.16Z"/>
        <path class="cls-5" d="m757.09,250.48c-.22.45-.53.8-.93,1.05-.4.25-.84.38-1.33.38-.8,0-1.42-.26-1.86-.78-.44-.52-.66-1.24-.66-2.17v-2.11c0-.94.29-1.67.88-2.19s1.41-.78,2.46-.78c.3,0,.61.03.93.1.32.07.62.15.91.27v-2.82h1.29v10.35h-1.29v-1.29h-.39Zm-1.94.19c.42,0,.82-.11,1.2-.34.38-.22.76-.56,1.13-1.02v-3.8c-.27-.16-.55-.29-.85-.37s-.63-.12-.97-.12c-.7,0-1.22.15-1.55.46-.34.31-.5.77-.5,1.39v2.08c0,.58.13,1.01.39,1.29s.65.43,1.16.43Z"/>
        <path class="cls-5" d="m767.86,250.07c-.23.65-.59,1.12-1.06,1.4-.47.29-1.2.43-2.19.43s-1.82-.25-2.39-.74-.85-1.23-.85-2.21v-2.08c0-1,.3-1.75.9-2.25.6-.5,1.38-.74,2.35-.74s1.76.25,2.34.76c.59.5.88,1.28.88,2.32v1.19h-5.18v.82c0,.65.16,1.12.49,1.4s.81.43,1.46.43,1.07-.09,1.36-.26.5-.45.65-.84l1.26.36Zm-5.2-3.2v.31h3.88v-.19c0-.7-.16-1.21-.49-1.53-.32-.32-.81-.48-1.46-.48s-1.13.15-1.46.46c-.32.31-.49.78-.49,1.43Z"/>
        <path class="cls-5" d="m770.42,251.77v-1.16h2.59v-8.02h-2.59v-1.16h6.47v1.16h-2.59v8.02h2.59v1.16h-6.47Z"/>
        <path class="cls-5" d="m784.26,250.48c-.22.45-.53.8-.93,1.05-.4.25-.84.38-1.33.38-.8,0-1.42-.26-1.86-.78-.44-.52-.66-1.24-.66-2.17v-2.11c0-.94.29-1.67.88-2.19s1.41-.78,2.46-.78c.3,0,.61.03.93.1.32.07.62.15.91.27v-2.82h1.29v10.35h-1.29v-1.29h-.39Zm-1.94.19c.42,0,.82-.11,1.2-.34.38-.22.76-.56,1.13-1.02v-3.8c-.27-.16-.55-.29-.85-.37s-.63-.12-.97-.12c-.7,0-1.22.15-1.55.46-.34.31-.5.77-.5,1.39v2.08c0,.58.13,1.01.39,1.29s.65.43,1.16.43Z"/>
        <path class="cls-3" d="m791.78,246.73c-.43,0-.78-.09-1.05-.27-.27-.18-.4-.45-.4-.82v-.62c0-.38.13-.66.4-.84.27-.18.62-.27,1.05-.27s.78.09,1.04.27c.26.18.4.46.4.84v.62c0,.37-.13.65-.4.82-.27.18-.61.27-1.04.27Zm0,5.18c-.43,0-.78-.09-1.05-.27-.27-.18-.4-.45-.4-.82v-.62c0-.38.13-.66.4-.84.27-.18.62-.27,1.05-.27s.78.09,1.04.27c.26.18.4.46.4.84v.62c0,.37-.13.65-.4.82-.27.18-.61.27-1.04.27Z"/>
        <path class="cls-5" d="m809.99,251.9c-.66,0-1.29-.1-1.9-.29s-1.18-.49-1.7-.9l.58-1.02c.42.35.89.61,1.42.78.52.18,1.05.27,1.6.27.45,0,.88-.07,1.29-.21.41-.14.61-.43.61-.88,0-.37-.17-.63-.5-.79s-.95-.29-1.85-.4c-.95-.11-1.67-.34-2.15-.67-.49-.33-.73-.86-.73-1.58,0-.78.29-1.36.88-1.76s1.27-.59,2.04-.59c.61,0,1.2.1,1.77.31.57.21,1.09.5,1.57.88l-.58,1.02c-.4-.32-.83-.57-1.29-.76-.47-.19-.95-.28-1.46-.28-.41,0-.79.08-1.13.23s-.51.44-.51.85c0,.35.16.61.47.77.32.16.92.3,1.82.41.98.11,1.72.35,2.21.72.49.37.74.88.74,1.53,0,.81-.33,1.4-.98,1.78-.66.38-1.39.56-2.2.56Z"/>
        <path class="cls-5" d="m820.23,251.89c-.85,0-1.52-.21-1.99-.63-.47-.42-.71-1.07-.71-1.94v-4.14h-2.2v-1.16h2.2v-2.59h1.29v2.59h3.36v1.16h-3.36v4.02c0,.5.12.87.38,1.11.25.24.62.36,1.11.36.33,0,.63-.02.92-.07.28-.05.56-.11.82-.19l.26,1.18c-.29.09-.61.16-.94.21-.33.06-.71.08-1.13.08Z"/>
        <path class="cls-5" d="m825.41,251.77v-7.76h1.29v1.29h.39c.18-.49.46-.85.83-1.08.37-.23.82-.34,1.35-.34.58,0,1.06.19,1.45.58.39.38.58.92.58,1.62v1.16h-1.23v-.7c0-.49-.11-.85-.33-1.09-.22-.23-.55-.35-1-.35-.41,0-.77.1-1.11.3s-.64.51-.92.93v5.44h-1.29Z"/>
        <path class="cls-5" d="m833.83,251.77v-1.16h2.59v-5.44h-2.59v-1.16h3.88v6.6h2.59v1.16h-6.47Zm3.24-9.19c-.33,0-.59-.05-.8-.16-.2-.1-.3-.3-.3-.58v-.09c0-.29.1-.49.3-.6.2-.11.47-.16.8-.16s.59.05.8.16c.2.11.3.31.3.6v.09c0,.28-.1.48-.31.58-.21.1-.47.16-.79.16Z"/>
        <path class="cls-5" d="m842.88,251.77v-7.76h1.29v1.29h.39c.19-.44.49-.79.89-1.04.41-.25.87-.38,1.38-.38.78,0,1.39.24,1.84.71.45.47.67,1.12.67,1.94v5.24h-1.29v-4.98c0-.54-.13-.96-.4-1.25s-.64-.43-1.13-.43c-.39,0-.78.12-1.18.35-.4.23-.79.57-1.17,1.01v5.31h-1.29Z"/>
        <path class="cls-5" d="m859.06,252.4c0,.7-.26,1.22-.77,1.57-.51.35-1.14.52-1.88.52h-2.43c-.78,0-1.42-.16-1.92-.47-.5-.31-.76-.79-.76-1.44,0-.41.11-.74.33-.99.22-.25.54-.39.96-.42v-.27c-.3-.05-.55-.18-.74-.37-.19-.2-.29-.5-.29-.92,0-.37.12-.7.35-1,.23-.3.62-.47,1.18-.51v-.24c-.42-.14-.71-.35-.85-.63-.15-.28-.22-.55-.22-.81v-.35c0-.6.25-1.09.76-1.48.51-.39,1.22-.58,2.15-.58h3.82v1.16l-2.01-.3v.23c.34.1.61.28.78.54.18.27.27.53.27.8v.34c0,.6-.23,1.08-.69,1.44-.46.37-1.2.55-2.23.55h-1.57c-.23,0-.41.06-.53.17-.12.12-.18.31-.18.59s.08.47.25.6c.17.13.42.2.76.2h2.94c.72,0,1.33.16,1.8.48.48.32.72.84.72,1.57Zm-5.11,1.05h2.63c.39,0,.7-.07.94-.22s.36-.4.36-.76-.11-.59-.33-.73-.5-.22-.85-.22h-4.12v.87c0,.35.12.61.35.79.23.17.57.26,1.01.26Zm.97-5.63c.53,0,.93-.1,1.2-.29.28-.19.41-.49.41-.9v-.42c0-.41-.14-.7-.41-.89-.28-.19-.68-.28-1.2-.28s-.93.09-1.2.28c-.28.19-.41.48-.41.89v.42c0,.41.14.71.41.9.28.19.68.29,1.2.29Z"/>
        <path class="cls-3" d="m862.29,254.36l1.16-5.18h2.58l-2.65,5.18h-1.09Z"/>
      </g>
      <g>
        <path class="cls-3" d="m720.09,228.55l.13-2.59h-1.81l-.13,2.59h-1.16l.13-2.59h-1.68v-1.16h1.75l.14-2.85h-1.89v-1.16h1.94l.13-2.59h1.16l-.13,2.59h1.81l.13-2.59h1.16l-.13,2.59h1.68v1.16h-1.73l-.14,2.85h1.88v1.16h-1.94l-.13,2.59h-1.16Zm.19-3.75l.14-2.85h-1.81l-.14,2.85h1.81Z"/>
        <path class="cls-3" d="m726.56,228.55h-1.29v-10.35h3.9c1.08,0,1.88.23,2.42.68s.8,1.14.8,2.05v.8c0,.83-.21,1.47-.63,1.94s-1.06.74-1.91.83l2.65,4.05h-1.47l-2.63-4.01h-1.84v4.01Zm0-5.15h2.59c.7,0,1.2-.13,1.49-.38s.45-.68.45-1.29v-.8c0-.57-.15-.97-.45-1.21-.3-.24-.8-.36-1.49-.36h-2.59v4.04Z"/>
        <path class="cls-3" d="m734.32,228.55v-1.16h2.59v-5.44h-2.59v-1.16h3.88v6.6h2.59v1.16h-6.47Zm3.24-9.19c-.33,0-.59-.05-.8-.16-.2-.1-.3-.3-.3-.58v-.09c0-.29.1-.49.3-.6.2-.11.47-.16.8-.16s.59.05.8.16c.2.11.3.31.3.6v.09c0,.28-.1.48-.31.58-.21.1-.47.16-.79.16Z"/>
        <path class="cls-3" d="m748.17,227.26c-.22.45-.53.8-.93,1.05-.4.25-.84.38-1.33.38-.8,0-1.42-.26-1.86-.78-.44-.52-.66-1.24-.66-2.17v-2.11c0-.94.29-1.67.88-2.19s1.41-.78,2.46-.78c.3,0,.61.03.93.1.32.07.62.15.91.27v-2.82h1.29v10.35h-1.29v-1.29h-.39Zm-1.94.19c.42,0,.82-.11,1.2-.34.38-.22.76-.56,1.13-1.02v-3.8c-.27-.16-.55-.29-.85-.37s-.63-.12-.97-.12c-.7,0-1.22.15-1.55.46-.34.31-.5.77-.5,1.39v2.08c0,.58.13,1.01.39,1.29s.65.43,1.16.43Z"/>
        <path class="cls-3" d="m758.93,226.84c-.23.65-.59,1.12-1.06,1.4-.47.29-1.2.43-2.19.43s-1.82-.25-2.39-.74-.85-1.23-.85-2.21v-2.08c0-1,.3-1.75.9-2.25.6-.5,1.38-.74,2.35-.74s1.76.25,2.34.76c.59.5.88,1.28.88,2.32v1.19h-5.18v.82c0,.65.16,1.12.49,1.4s.81.43,1.46.43,1.07-.09,1.36-.26.5-.45.65-.84l1.26.36Zm-5.2-3.2v.31h3.88v-.19c0-.7-.16-1.21-.49-1.53-.32-.32-.81-.48-1.46-.48s-1.13.15-1.46.46c-.32.31-.49.78-.49,1.43Z"/>
        <path class="cls-3" d="m764.9,228.63c-.78,0-1.5-.13-2.17-.38s-1.28-.71-1.81-1.37l.93-.88c.36.49.8.86,1.3,1.1s1.1.36,1.79.36c.64,0,1.15-.15,1.55-.45s.59-.7.59-1.21-.17-.87-.5-1.13c-.34-.26-1-.54-1.99-.83-1.26-.36-2.12-.76-2.57-1.18-.46-.42-.69-1.02-.69-1.8,0-.9.3-1.57.9-2.03.6-.46,1.33-.69,2.18-.69.72,0,1.41.13,2.06.38.65.25,1.23.71,1.73,1.35l-.89.89c-.35-.49-.78-.86-1.29-1.1-.52-.24-1.04-.36-1.58-.36s-.98.11-1.31.33c-.33.22-.49.59-.49,1.11,0,.46.18.82.54,1.08.36.26,1.06.55,2.12.85,1.19.35,2,.72,2.44,1.13.44.41.65,1,.65,1.78,0,.99-.35,1.75-1.06,2.26-.71.52-1.51.78-2.41.78Z"/>
        <path class="cls-3" d="m773.97,228.68c-1.13,0-1.98-.25-2.56-.74s-.86-1.23-.86-2.19v-2.1c0-.98.29-1.73.86-2.23.57-.5,1.42-.76,2.54-.76,1,0,1.77.23,2.31.68.54.45.84,1.12.9,1.99l-1.27.08c-.04-.53-.21-.93-.53-1.19s-.79-.39-1.42-.39c-.71,0-1.23.15-1.58.45-.35.3-.52.76-.52,1.38v2.1c0,.59.17,1.04.52,1.33.35.29.88.44,1.6.44.62,0,1.09-.11,1.41-.33s.49-.55.52-.99l1.27.08c-.06.79-.36,1.39-.89,1.8-.54.41-1.3.61-2.3.61Z"/>
        <path class="cls-3" d="m779.61,228.55v-10.35h1.29v3.88h.39c.19-.44.49-.79.89-1.04.41-.25.87-.38,1.38-.38.78,0,1.39.24,1.84.71.45.47.67,1.12.67,1.93v5.25h-1.29v-4.98c0-.54-.13-.96-.4-1.25s-.64-.43-1.13-.43c-.39,0-.78.12-1.18.35-.4.23-.79.57-1.17,1.01v5.31h-1.29Z"/>
        <path class="cls-3" d="m795.17,226.84c-.23.65-.59,1.12-1.06,1.4-.47.29-1.2.43-2.19.43s-1.82-.25-2.39-.74-.85-1.23-.85-2.21v-2.08c0-1,.3-1.75.9-2.25.6-.5,1.38-.74,2.35-.74s1.76.25,2.34.76c.59.5.88,1.28.88,2.32v1.19h-5.18v.82c0,.65.16,1.12.49,1.4s.81.43,1.46.43,1.07-.09,1.36-.26.5-.45.65-.84l1.26.36Zm-5.2-3.2v.31h3.88v-.19c0-.7-.16-1.21-.49-1.53-.32-.32-.81-.48-1.46-.48s-1.13.15-1.46.46c-.32.31-.49.78-.49,1.43Z"/>
        <path class="cls-3" d="m802.52,227.26c-.22.45-.53.8-.93,1.05-.4.25-.84.38-1.33.38-.8,0-1.42-.26-1.86-.78-.44-.52-.66-1.24-.66-2.17v-2.11c0-.94.29-1.67.88-2.19s1.41-.78,2.46-.78c.3,0,.61.03.93.1.32.07.62.15.91.27v-2.82h1.29v10.35h-1.29v-1.29h-.39Zm-1.94.19c.42,0,.82-.11,1.2-.34.38-.22.76-.56,1.13-1.02v-3.8c-.27-.16-.55-.29-.85-.37s-.63-.12-.97-.12c-.7,0-1.22.15-1.55.46-.34.31-.5.77-.5,1.39v2.08c0,.58.13,1.01.39,1.29s.65.43,1.16.43Z"/>
        <path class="cls-3" d="m809.3,228.68c-.75,0-1.36-.24-1.82-.73s-.69-1.13-.69-1.92v-5.24h1.29v4.98c0,.57.13.99.38,1.27.25.28.63.41,1.15.41.41,0,.8-.11,1.18-.33.38-.22.77-.56,1.17-1.03v-5.31h1.29v7.76h-1.29v-1.29h-.39c-.18.42-.48.77-.9,1.03-.42.26-.88.4-1.38.4Z"/>
        <path class="cls-3" d="m815.84,228.55v-1.16h2.59v-8.02h-2.59v-1.16h3.88v9.19h2.59v1.16h-6.47Z"/>
        <path class="cls-3" d="m831.4,226.84c-.23.65-.59,1.12-1.06,1.4-.47.29-1.2.43-2.19.43s-1.82-.25-2.39-.74-.85-1.23-.85-2.21v-2.08c0-1,.3-1.75.9-2.25.6-.5,1.38-.74,2.35-.74s1.76.25,2.34.76c.59.5.88,1.28.88,2.32v1.19h-5.18v.82c0,.65.16,1.12.49,1.4s.81.43,1.46.43,1.07-.09,1.36-.26.5-.45.65-.84l1.26.36Zm-5.2-3.2v.31h3.88v-.19c0-.7-.16-1.21-.49-1.53-.32-.32-.81-.48-1.46-.48s-1.13.15-1.46.46c-.32.31-.49.78-.49,1.43Z"/>
        <path class="cls-3" d="m838.75,227.26c-.22.45-.53.8-.93,1.05-.4.25-.84.38-1.33.38-.8,0-1.42-.26-1.86-.78-.44-.52-.66-1.24-.66-2.17v-2.11c0-.94.29-1.67.88-2.19s1.41-.78,2.46-.78c.3,0,.61.03.93.1.32.07.62.15.91.27v-2.82h1.29v10.35h-1.29v-1.29h-.39Zm-1.94.19c.42,0,.82-.11,1.2-.34.38-.22.76-.56,1.13-1.02v-3.8c-.27-.16-.55-.29-.85-.37s-.63-.12-.97-.12c-.7,0-1.22.15-1.55.46-.34.31-.5.77-.5,1.39v2.08c0,.58.13,1.01.39,1.29s.65.43,1.16.43Z"/>
        <path class="cls-3" d="m846.27,223.5c-.43,0-.78-.09-1.05-.27-.27-.18-.4-.45-.4-.82v-.62c0-.38.13-.66.4-.84.27-.18.62-.27,1.05-.27s.78.09,1.04.27c.26.18.4.46.4.84v.62c0,.37-.13.65-.4.82-.27.18-.61.27-1.04.27Zm0,5.18c-.43,0-.78-.09-1.05-.27-.27-.18-.4-.45-.4-.82v-.62c0-.38.13-.66.4-.84.27-.18.62-.27,1.05-.27s.78.09,1.04.27c.26.18.4.46.4.84v.62c0,.37-.13.65-.4.82-.27.18-.61.27-1.04.27Z"/>
        <path class="cls-2" d="m866.96,231.27c-1.81.03-3.13-.13-3.95-.49s-1.23-.91-1.23-1.66c0-.43.09-.79.27-1.09.18-.29.37-.55.58-.76.22-.22.41-.42.58-.61.17-.19.26-.39.26-.61,0-.41-.22-.69-.65-.86s-1.21-.26-2.33-.29v-.78c1.12-.03,1.9-.12,2.33-.28s.65-.44.65-.84c0-.22-.09-.4-.26-.55-.17-.15-.37-.32-.58-.51-.21-.19-.4-.42-.58-.69-.18-.27-.27-.62-.27-1.06,0-.73.41-1.28,1.23-1.64.82-.36,2.14-.52,3.95-.49v1.16c-1.46-.03-2.47.05-3.03.23-.56.18-.85.47-.85.88,0,.17.06.35.19.53.13.18.35.42.67.71.31.28.53.53.65.73.12.2.18.42.18.67,0,.48-.21.85-.64,1.09-.43.25-1.04.39-1.84.42v.06c.8.09,1.42.27,1.84.54.43.28.64.66.64,1.16,0,.22-.06.42-.19.62s-.36.45-.69.75c-.3.26-.51.48-.63.67-.12.19-.17.4-.17.64,0,.43.28.74.85.93.56.19,1.58.27,3.03.25v1.14Z"/>
      </g>
    </g>
  </g>
</svg>