<?xml version="1.0" encoding="UTF-8"?>
<svg xmlns="http://www.w3.org/2000/svg" xmlns:xlink="http://www.w3.org/1999/xlink" viewBox="0 0 1600 561.8">
  <defs>
    <style>
      .cls-1 {
        fill: url(#linear-gradient);
      }

      .cls-2 {
        fill: #f9faa4;
      }

      .cls-3 {
        fill: #eee;
      }

      .cls-4 {
        fill: #eaeaea;
      }

      .cls-5 {
        fill: #fff;
      }

      .cls-6 {
        fill: #ff0;
      }

      .cls-7 {
        fill: #ffba54;
      }

      .cls-8 {
        fill: #ffb6b6;
      }

      .cls-9 {
        fill: red;
      }

      .cls-10 {
        fill: #ee913d;
      }

      .cls-11 {
        fill: #90918a;
      }

      .cls-12 {
        fill: #31bc00;
      }

      .cls-13 {
        fill: #333;
      }

      .cls-14 {
        fill: #aaa;
      }

      .cls-15 {
        fill: #bbb;
      }

      .cls-16 {
        fill: #ababab;
      }

      .cls-17 {
        fill: #ccc;
      }

      .cls-18 {
        fill: #d5d5d7;
      }

      .cls-19 {
        fill: #3f2f22;
      }

      .cls-20 {
        fill: #a3a39f;
      }

      .cls-21, .cls-22 {
        fill: #46473e;
      }

      .cls-23 {
        fill: #555652;
      }

      .cls-24 {
        fill: #586e75;
      }

      .cls-25 {
        fill: #777;
      }

      .cls-26 {
        fill: url(#radial-gradient-2);
      }

      .cls-27 {
        fill: url(#linear-gradient-8);
      }

      .cls-28 {
        fill: url(#linear-gradient-9);
      }

      .cls-29 {
        fill: url(#linear-gradient-3);
      }

      .cls-30 {
        fill: url(#linear-gradient-4);
      }

      .cls-31 {
        fill: url(#linear-gradient-2);
      }

      .cls-32 {
        fill: url(#linear-gradient-6);
      }

      .cls-33 {
        fill: url(#linear-gradient-7);
      }

      .cls-34 {
        fill: url(#linear-gradient-5);
      }

      .cls-35, .cls-36 {
        opacity: .6;
      }

      .cls-37 {
        opacity: .8;
      }

      .cls-38, .cls-39 {
        opacity: .7;
      }

      .cls-40 {
        fill: url(#radial-gradient);
      }

      .cls-41 {
        fill: url(#linear-gradient-14);
      }

      .cls-42 {
        fill: url(#linear-gradient-15);
      }

      .cls-43 {
        fill: url(#linear-gradient-16);
      }

      .cls-44 {
        fill: url(#linear-gradient-13);
      }

      .cls-45 {
        fill: url(#linear-gradient-12);
      }

      .cls-46 {
        fill: url(#linear-gradient-10);
      }

      .cls-47 {
        fill: url(#linear-gradient-11);
      }

      .cls-36 {
        fill: #dfdfdf;
      }

      .cls-39 {
        fill: #666;
      }

      .cls-48 {
        fill: #46473d;
        opacity: .3;
      }

      .cls-22 {
        opacity: .4;
      }
    </style>
    <linearGradient id="linear-gradient" x1="675.11" y1="378.79" x2="693.91" y2="378.79" gradientUnits="userSpaceOnUse">
      <stop offset="0" stop-color="#fff8e1"/>
      <stop offset=".43" stop-color="#ac924d"/>
      <stop offset=".67" stop-color="#d7b130"/>
      <stop offset="1" stop-color="#d7b130"/>
    </linearGradient>
    <linearGradient id="linear-gradient-2" x1="675.11" y1="378.33" x2="693.91" y2="378.33" gradientUnits="userSpaceOnUse">
      <stop offset="0" stop-color="#ac924d"/>
      <stop offset=".5" stop-color="#ac924d"/>
      <stop offset=".67" stop-color="#fff8e1"/>
      <stop offset="1" stop-color="#ac924d"/>
    </linearGradient>
    <linearGradient id="linear-gradient-3" x1="675.11" y1="370.8" x2="693.91" y2="370.8" gradientUnits="userSpaceOnUse">
      <stop offset="0" stop-color="#fff8e1"/>
      <stop offset=".42" stop-color="#ac924d"/>
      <stop offset=".67" stop-color="#fff8e1"/>
      <stop offset="1" stop-color="#d7b130"/>
    </linearGradient>
    <linearGradient id="linear-gradient-4" y1="370.34" y2="370.34" xlink:href="#linear-gradient-2"/>
    <linearGradient id="linear-gradient-5" x1="675.66" y1="385.52" x2="675.4" y2="364.47" gradientUnits="userSpaceOnUse">
      <stop offset=".02" stop-color="#77726d"/>
      <stop offset=".57" stop-color="#a3a19f"/>
      <stop offset=".7" stop-color="#c5c5c5"/>
      <stop offset="1" stop-color="#c5c5c5"/>
    </linearGradient>
    <linearGradient id="linear-gradient-6" x1="668.54" y1="374.94" x2="682.05" y2="374.94" gradientUnits="userSpaceOnUse">
      <stop offset=".02" stop-color="#fff" stop-opacity="0"/>
      <stop offset="1" stop-color="#fff" stop-opacity=".7"/>
    </linearGradient>
    <linearGradient id="linear-gradient-7" x1="664.15" y1="391.21" x2="627.52" y2="358.74" gradientUnits="userSpaceOnUse">
      <stop offset=".02" stop-color="#b7570f"/>
      <stop offset=".13" stop-color="#d37120"/>
      <stop offset=".36" stop-color="#f29a42"/>
      <stop offset=".61" stop-color="#ffba54"/>
      <stop offset=".85" stop-color="#ffd49c"/>
      <stop offset=".95" stop-color="#ffd49c"/>
      <stop offset="1" stop-color="#ffd49c"/>
    </linearGradient>
    <radialGradient id="radial-gradient" cx="827.43" cy="108.08" fx="827.43" fy="108.08" r="17.76" gradientUnits="userSpaceOnUse">
      <stop offset="0" stop-color="#98cdff" stop-opacity=".7"/>
      <stop offset="1" stop-color="#fff" stop-opacity=".3"/>
    </radialGradient>
    <radialGradient id="radial-gradient-2" cx="364.73" cy="138.66" fx="364.73" fy="138.66" r="12.95" gradientTransform="translate(987.84) rotate(-180) scale(1 -1)" xlink:href="#radial-gradient"/>
    <linearGradient id="linear-gradient-8" x1="982.26" y1="269.57" x2="982.26" y2="236.59" gradientUnits="userSpaceOnUse">
      <stop offset="0" stop-color="#46473d"/>
      <stop offset=".52" stop-color="#595950"/>
      <stop offset=".88" stop-color="#eee"/>
      <stop offset="1" stop-color="#a3a39f"/>
    </linearGradient>
    <linearGradient id="linear-gradient-9" x1="682.86" y1="331.82" x2="971.98" y2="331.82" gradientUnits="userSpaceOnUse">
      <stop offset="0" stop-color="#555652"/>
      <stop offset=".03" stop-color="#777"/>
      <stop offset=".15" stop-color="#ccc"/>
      <stop offset=".24" stop-color="#bbb"/>
      <stop offset=".34" stop-color="#ccc"/>
      <stop offset=".5" stop-color="#eee"/>
      <stop offset=".67" stop-color="#eee"/>
      <stop offset=".79" stop-color="#bbb"/>
      <stop offset=".88" stop-color="#ccc"/>
      <stop offset=".96" stop-color="#777"/>
      <stop offset="1" stop-color="#555652"/>
    </linearGradient>
    <linearGradient id="linear-gradient-10" x1="681.89" y1="331.57" x2="972.97" y2="331.57" gradientUnits="userSpaceOnUse">
      <stop offset="0" stop-color="#555652"/>
      <stop offset=".03" stop-color="#777"/>
      <stop offset=".15" stop-color="#ccc"/>
      <stop offset=".24" stop-color="#bbb"/>
      <stop offset=".34" stop-color="#ccc"/>
      <stop offset=".5" stop-color="#eee"/>
      <stop offset=".67" stop-color="#eee"/>
      <stop offset=".79" stop-color="#bbb"/>
      <stop offset=".88" stop-color="#ccc"/>
      <stop offset=".96" stop-color="#777"/>
      <stop offset="1" stop-color="#555652"/>
    </linearGradient>
    <linearGradient id="linear-gradient-11" x1="680.66" y1="331.57" x2="974.2" y2="331.57" xlink:href="#linear-gradient-9"/>
    <linearGradient id="linear-gradient-12" x1="679.29" y1="331.57" x2="975.57" y2="331.57" gradientUnits="userSpaceOnUse">
      <stop offset="0" stop-color="#555652"/>
      <stop offset=".03" stop-color="#777"/>
      <stop offset=".15" stop-color="#ccc"/>
      <stop offset=".24" stop-color="#bbb"/>
      <stop offset=".34" stop-color="#ccc"/>
      <stop offset=".5" stop-color="#eee"/>
      <stop offset=".67" stop-color="#eee"/>
      <stop offset=".79" stop-color="#bbb"/>
      <stop offset=".88" stop-color="#ccc"/>
      <stop offset=".96" stop-color="#777"/>
      <stop offset="1" stop-color="#555652"/>
    </linearGradient>
    <linearGradient id="linear-gradient-13" x1="678.2" y1="331.57" x2="976.66" y2="331.57" xlink:href="#linear-gradient-9"/>
    <linearGradient id="linear-gradient-14" x1="676.83" y1="331.35" x2="978.03" y2="331.35" xlink:href="#linear-gradient-9"/>
    <linearGradient id="linear-gradient-15" x1="827.75" y1="358.71" x2="827.35" y2="322.52" gradientUnits="userSpaceOnUse">
      <stop offset="0" stop-color="#e4e4e4"/>
      <stop offset="1" stop-color="#f0f0f0"/>
    </linearGradient>
    <linearGradient id="linear-gradient-16" x1="827.31" y1="355.43" x2="845" y2="336.94" gradientUnits="userSpaceOnUse">
      <stop offset="0" stop-color="#eee"/>
      <stop offset="1" stop-color="silver"/>
    </linearGradient>
  </defs>
  <g id="background">
    <rect class="cls-5" width="1600" height="561.8"/>
  </g>
  <g id="Database_Animation" data-name="Database Animation">
    <g>
      <rect class="cls-5" x="444.87" y="80.9" width="710.26" height="400"/>
      <g>
        <g>
          <g>
            <g>
              <path class="cls-1" d="m693.91,378.79h0c0,.6-.57,1.09-1.26,1.09h-17.54v-2.19h17.54c.7,0,1.26.49,1.26,1.09Z"/>
              <path class="cls-31" d="m693.91,378.79h0c0,.06,0,.12-.02.17-.09-.52-.61-.92-1.24-.92h-17.54v-.34h17.54c.7,0,1.26.49,1.26,1.09Z"/>
            </g>
            <g>
              <path class="cls-29" d="m693.91,370.8h0c0,.6-.57,1.09-1.26,1.09h-17.54v-2.19h17.54c.7,0,1.26.49,1.26,1.09Z"/>
              <path class="cls-30" d="m693.91,370.8h0c0,.06,0,.12-.02.17-.09-.52-.61-.92-1.24-.92h-17.54v-.34h17.54c.7,0,1.26.49,1.26,1.09Z"/>
            </g>
          </g>
          <g>
            <g>
              <path class="cls-34" d="m682.82,366.45v16.69c0,1.03-.85,1.88-1.88,1.88h-12.69v-20.45h12.69c1.03,0,1.88.85,1.88,1.88Z"/>
              <path class="cls-13" d="m680.94,385.23h-12.9v-20.87h12.9c1.15,0,2.09.94,2.09,2.09v16.69c0,1.15-.94,2.09-2.09,2.09Zm-12.48-.42h12.48c.92,0,1.67-.75,1.67-1.67v-16.69c0-.92-.75-1.67-1.67-1.67h-12.48v20.02Z"/>
            </g>
            <g class="cls-37">
              <path class="cls-32" d="m682.05,366.65v16.58c0,.61-.47,1.11-1.06,1.11h-12.46v-.52h12.1c.52,0,.94-.41.94-.92v-13.73c0-.51-.43-.92-.94-.92h-12.1v-2.71h12.46c.58,0,1.06.5,1.06,1.11Z"/>
            </g>
          </g>
          <rect class="cls-39" x="669.55" y="364.87" width="2.47" height="19.74"/>
          <rect class="cls-10" x="622.64" y="357.9" width="45.98" height="33.78" rx="2.35" ry="2.35"/>
          <g>
            <path class="cls-9" d="m666.27,356.96h-41.28c-1.81,0-3.29,1.48-3.29,3.29v29.08c0,1.81,1.48,3.29,3.29,3.29h41.28c1.81,0,3.29-1.48,3.29-3.29v-29.08c0-1.81-1.48-3.29-3.29-3.29Zm2.35,32.37c0,1.29-1.06,2.35-2.35,2.35h-41.28c-1.29,0-2.35-1.06-2.35-2.35v-29.08c0-1.29,1.06-2.35,2.35-2.35h41.28c1.29,0,2.35,1.06,2.35,2.35v29.08Z"/>
            <path class="cls-19" d="m666.27,356.96h-41.28c-1.81,0-3.29,1.48-3.29,3.29v29.08c0,1.81,1.48,3.29,3.29,3.29h41.28c1.81,0,3.29-1.48,3.29-3.29v-29.08c0-1.81-1.48-3.29-3.29-3.29Zm2.35,32.37c0,1.29-1.06,2.35-2.35,2.35h-41.28c-1.29,0-2.35-1.06-2.35-2.35v-29.08c0-1.29,1.06-2.35,2.35-2.35h41.28c1.29,0,2.35,1.06,2.35,2.35v29.08Z"/>
          </g>
          <rect class="cls-7" x="622.64" y="357.9" width="45.98" height="33.78" rx="2.35" ry="2.35"/>
          <rect class="cls-33" x="623.11" y="358.37" width="45.04" height="32.84" rx="1.88" ry="1.88"/>
          <polyline class="cls-36" points="651.51 356.96 651.51 363.32 639.76 366.4 639.76 356.96"/>
        </g>
        <g>
          <path class="cls-2" d="m674.47,350.41c-1.35.15-4.13.46-6.18.69,3.06,1.85,9.93,5.98,9.86,6.01-.7-.34-12.88-6.41-13.19-6.56l1.51-.4,2.81-.75-11.5-8.22c1.7.84,15.36,8.52,16.7,9.23Z"/>
          <path class="cls-9" d="m678.14,357.33l-.09-.04c-.33-.16-3.17-1.58-6.14-3.05-3.39-1.68-6.89-3.43-7.05-3.51l-.49-.23,4.43-1.18-11.16-7.98.2-.34c1.06.53,6.72,3.68,11.26,6.21,2.65,1.48,4.94,2.75,5.44,3.02l.57.3-6.24.7,1.54.93c5.75,3.47,7.33,4.42,7.75,4.75.02,0,.03.02.05.02h0c.12.11.12.14.12.19v.12s-.2.1-.2.1Zm-12.63-6.72c1.09.54,3.87,1.93,6.58,3.27.8.4,1.6.8,2.34,1.16-1.38-.84-2.93-1.77-4.21-2.54l-2.55-1.54,6.13-.68c-.95-.52-2.81-1.56-4.89-2.72-2.86-1.59-6.16-3.43-8.47-4.71l9.28,6.64-4.21,1.12Z"/>
        </g>
        <g>
          <path class="cls-2" d="m672.61,399.73c-1.68-.19-5.17-.58-7.73-.86,3.83-2.32,12.42-7.47,12.32-7.52-.87.43-16.1,8.01-16.49,8.2l1.88.5,3.51.93-14.37,10.28c2.12-1.05,19.2-10.65,20.87-11.53Z"/>
          <path class="cls-9" d="m651.82,411.44l-.2-.34,14.03-10.03-5.51-1.46.49-.23c.21-.1,4.64-2.31,8.92-4.44,3.67-1.83,7.16-3.56,7.57-3.76l.09-.04.19.1v.12s0,.08-.11.18h0s-.03.02-.05.03c-.48.37-2.35,1.51-9.69,5.93l-2.07,1.25,7.79.87-.57.3c-.63.33-3.49,1.93-6.81,3.78-5.67,3.16-12.73,7.1-14.06,7.76Zm9.45-11.95l5.29,1.4-12.19,8.72c2.9-1.59,7.43-4.12,11.32-6.28,2.71-1.51,5.12-2.86,6.26-3.48l-7.68-.86,3.08-1.86c1.91-1.15,4.31-2.6,6.25-3.78-1.17.58-2.51,1.25-3.88,1.93-3.53,1.76-7.17,3.57-8.45,4.2Z"/>
        </g>
        <g>
          <g>
            <path class="cls-3" d="m844.8,136.1v55.31h-34.8v-55.31s.99-.22,2.74-.5c.26-.04.53-.08.82-.13.11-.02.23-.03.35-.05.14-.02.27-.04.42-.05.15-.03.31-.05.48-.07.05,0,.11-.02.17-.02.03,0,.05,0,.08-.01.09-.01.18-.03.27-.04.2-.03.41-.05.62-.08.07,0,.14-.02.2-.02.16-.02.33-.04.49-.06.38-.04.78-.08,1.19-.12.08-.01.16-.02.25-.03,1.41-.14,2.96-.26,4.64-.34,3.06-.16,6.52-.2,10.22.02,2.31.12,4.72.34,7.17.7.39.05.78.11,1.17.18.02,0,.04,0,.05.01.32.05.64.1.96.16.83.14,1.67.3,2.51.47Z"/>
            <path class="cls-5" d="m812.74,135.6c.26-.04.53-.08.82-.13.11-.02.23-.03.35-.05.14-.02.27-.04.42-.05-.26,15.18,0,56.04,0,56.04h-1.59s.17-45.04,0-55.81Z"/>
            <path class="cls-23" d="m841.27,135.46s.04,0,.05.01c.32.05.64.1.96.16.83.14,1.67.3,2.51.47,6.26,25.42,0,55.31,0,55.31h-3.53s.32-43.05,0-55.95Z"/>
            <path class="cls-25" d="m812.74,135.6c-1.75.28-2.74.5-2.74.5-6.22,28.1,0,55.31,0,55.31h2.74s-2.71-34.91,0-55.81Z"/>
            <path class="cls-15" d="m822.72,134.58c-1.68.08-3.23.21-4.64.34-.08.01-.16.02-.25.03-.41.04-.81.08-1.19.12-.16.02-.33.04-.49.06-.07,0-.14.02-.2.02-.21.03-.42.05-.62.08-.09.01-.19.03-.27.04-.03,0-.05,0-.08.01-.06,0-.11.02-.17.02-.16.02-.32.04-.48.07-2.24,24.61,0,56.04,0,56.04h8.39s-1.58-29.84,0-56.84Z"/>
            <path class="cls-17" d="m832.94,134.59c2.31.12,4.72.34,7.17.7.39.05.78.11,1.17.18.02,0,.04,0,.05.01,3.1,23.51,0,55.94,0,55.94h-8.39s1.22-32.83,0-56.82Z"/>
          </g>
          <path class="cls-48" d="m845.9,185.79c-.44,3.76-1.09,5.62-1.09,5.62h-34.8s-1.09-2.09-1.09-5.69c.9-.01,2.91-.02,3.83-.03.53,0,1.06-.01,1.59-.02.53,0,1.06,0,1.59-.01,1.79-.02,3.63-.02,5.48-.02,6.29-.03,12.92,0,19.87.09,1.17.02,3.44.03,4.63.05Z"/>
        </g>
        <g>
          <rect class="cls-18" x="673.11" y="215.93" width="8.6" height="61.34" transform="translate(923.09 -431.15) rotate(89.92)"/>
          <polygon class="cls-25" points="708.09 249.49 708.09 250.86 646.75 250.94 646.75 249.49 708.09 249.49"/>
          <polygon class="cls-14" points="708.09 242.26 708.09 243.62 646.75 243.7 646.75 242.26 708.09 242.26"/>
          <polygon class="cls-3" points="708.09 243.7 708.09 244.48 646.75 244.52 646.75 243.7 708.09 243.7"/>
          <polygon class="cls-16" points="708.09 248.05 708.09 249.41 646.75 249.49 646.75 248.05 708.09 248.05"/>
          <g>
            <circle class="cls-11" cx="708.09" cy="246.6" r="5.59"/>
            <circle class="cls-4" cx="708.09" cy="246.6" r="1.69"/>
          </g>
        </g>
        <g>
          <path class="cls-17" d="m629.85,159.67v62.75h-16.78v-62.75s.01,0,.02,0c.13-.04,1.13-.35,2.72-.65.02,0,.04,0,.07-.01.34-.06.71-.12,1.09-.18.32-.04.65-.09,1-.13.35-.04.72-.08,1.09-.11,1.51-.13,3.21-.18,5.01-.03.99.08,2,.21,3.04.42.9.18,1.82.41,2.74.7Z"/>
          <path class="cls-14" d="m613.06,159.67s1.15-.36,2.74-.65c-.17,28.3,0,63.4,0,63.4h-2.74s-6.88-30.34,0-62.75Z"/>
          <path class="cls-25" d="m629.85,159.67c-.92-.3-1.83-.53-2.74-.7-.17,20.99,0,63.45,0,63.45h2.74s7.66-36.45,0-62.75Z"/>
          <path class="cls-16" d="m627.11,158.97c-1.03-.2-2.05-.34-3.04-.42,4.47,30.06,0,63.87,0,63.87h3.04s4.92-36.3,0-63.45Z"/>
          <path class="cls-3" d="m615.87,159.01c.34-.06.71-.12,1.09-.18.32-.04.65-.09,1-.13-3.13,31.01,0,63.73,0,63.73h-2.1s-3.82-34.21,0-63.42Z"/>
          <path class="cls-48" d="m630.39,219.08c0,2.16-.55,3.35-.55,3.35h-16.78l-.55-3.39c1.26-.02,3.1-.04,4.44-.05.68,0,1.39,0,2.09,0,3.35-.02,7.5.01,11.34.09Z"/>
        </g>
        <g>
          <g>
            <g>
              <path class="cls-18" d="m651.44,250.6c-.01.17-.03.32-.04.48-.04.3-.07.59-.1.85v.02c-.04.25-.08.48-.11.7-.03.21-.06.4-.1.57-.02.11-.04.22-.06.32-.02.08-.04.16-.05.23-.12.51-.21.76-.21.76-42.26,5.59-41.67-32.94-41.67-32.94,0,0,.04,0,.1-.01.44-.03,2.33-.16,4.97-.27,2.01-.07,4.46-.14,7.04-.12.15,0,.3,0,.44,0,3.01.02,6.19.14,9.09.45,1.37.14,2.67.33,3.86.57,0,0-1.86,14.92,16.16,16.16.2,1.14.36,2.23.48,3.26.45,3.82.4,6.82.2,8.96Z"/>
              <path class="cls-15" d="m651.44,250.6c-.01.17-.03.32-.04.48-.04.3-.07.59-.1.85v.02c-.04.25-.08.48-.11.7-.03.21-.06.4-.1.57-.02.11-.04.22-.06.32-.02.08-.04.16-.05.23-.12.51-.21.76-.21.76-42.26,5.59-41.67-32.94-41.67-32.94,0,0,.04,0,.1-.01.44-.03,2.33-.16,4.97-.27,2.01-.07,4.46-.14,7.04-.12.83,14.99,6.73,27.4,30.23,29.4Z"/>
            </g>
            <path class="cls-14" d="m651.08,253.22c-.02.12-.04.22-.06.32-.02.08-.04.16-.05.23-.12.51-.21.76-.21.76-42.26,5.59-41.67-32.94-41.67-32.94,0,0,.04,0,.1-.01.44-.03,2.32-.16,4.97-.27,1.38,20.2,10.18,31.45,36.92,31.9Z"/>
          </g>
          <path class="cls-17" d="m651.24,241.64c-17.01-.81-20.4-11.76-20.51-19.99,1.37.14,2.67.33,3.86.57,0,0-1.86,14.92,16.16,16.16.2,1.14.36,2.23.48,3.26Z"/>
        </g>
        <g>
          <path class="cls-40" d="m829.2,125.26c-3.16,0-6.13-1.41-8.14-3.86l-.59-.73h-.94c-5.75-.05-10.43-4.76-10.43-10.51,0-5.11,3.64-9.46,8.67-10.35l1.22-.22.35-1.19c1.31-4.43,5.45-7.52,10.08-7.52,2.83,0,5.48,1.11,7.47,3.12l.39.4.54.14c4.68,1.17,7.94,5.37,7.94,10.19,0,3.72-1.91,7.09-5.1,9.01l-.91.54-.06,1.06c-.31,5.55-4.92,9.91-10.49,9.91Z"/>
          <path class="cls-4" d="m829.41,92.9c2.29,0,4.44.9,6.05,2.53l.79.79,1.08.27c3.79.95,6.43,4.34,6.43,8.25,0,3.01-1.54,5.74-4.13,7.3l-1.81,1.09-.12,2.11c-.25,4.5-3.99,8.02-8.49,8.02-2.56,0-4.96-1.14-6.59-3.12l-1.19-1.45h-1.88c-4.66-.05-8.45-3.86-8.45-8.52,0-4.13,2.95-7.66,7.01-8.38l2.44-.43.7-2.37c1.06-3.58,4.42-6.09,8.16-6.09m0-4c-5.67,0-10.46,3.78-11.99,8.95-5.86,1.04-10.32,6.15-10.32,12.31,0,6.88,5.55,12.46,12.42,12.51,2.29,2.8,5.78,4.59,9.68,4.59,6.67,0,12.12-5.22,12.49-11.79,3.64-2.19,6.07-6.17,6.07-10.72,0-5.86-4.02-10.77-9.46-12.13-2.27-2.29-5.41-3.71-8.89-3.71h0Z"/>
        </g>
        <g>
          <path class="cls-26" d="m621.77,151.16c-3.95,0-7.23-3.09-7.45-7.03l-.06-1.06-.91-.54c-2.27-1.37-3.62-3.76-3.62-6.4,0-3.43,2.32-6.4,5.64-7.24l.54-.14.39-.4c1.41-1.43,3.3-2.22,5.31-2.22,3.28,0,6.22,2.2,7.15,5.34l.35,1.19,1.22.22c3.56.63,6.15,3.72,6.15,7.35,0,4.08-3.32,7.43-7.41,7.46h-.94s-.59.73-.59.73c-1.43,1.74-3.53,2.74-5.78,2.74Z"/>
          <path class="cls-4" d="m621.61,128.15c2.4,0,4.55,1.61,5.24,3.91l.7,2.37,2.44.43c2.61.46,4.5,2.72,4.5,5.38,0,2.99-2.43,5.44-5.42,5.46h-1.88s-1.19,1.47-1.19,1.47c-1.04,1.27-2.59,2.01-4.23,2.01-2.89,0-5.29-2.26-5.45-5.15l-.12-2.11-1.81-1.09c-1.66-1-2.65-2.75-2.65-4.68,0-2.51,1.7-4.69,4.13-5.3l1.08-.27.79-.79c1.03-1.05,2.41-1.62,3.88-1.62m0-4c-2.63,0-5.01,1.07-6.73,2.81-4.11,1.03-7.15,4.75-7.15,9.18,0,3.44,1.84,6.46,4.59,8.11.28,4.97,4.4,8.92,9.45,8.92,2.95,0,5.59-1.35,7.32-3.47,5.19-.04,9.39-4.26,9.39-9.46,0-4.66-3.37-8.53-7.8-9.31-1.16-3.91-4.78-6.77-9.07-6.77h0Z"/>
        </g>
        <g>
          <g>
            <path class="cls-27" d="m992.27,239.61c0,.52-.32.96-.76,1.14-8,3.51-12.76,10.31-15.54,16.43-3.01,6.64-3.71,12.49-3.71,12.49v-33.17s1.47.06,3.62.2c5.74.37,16.3,1.27,16.39,2.91Z"/>
            <path class="cls-22" d="m975.96,257.19c-3.01,6.64-3.71,12.49-3.71,12.49v-33.17s1.47.06,3.62.2c.12,7.13.12,15.97.09,20.48Z"/>
          </g>
          <g>
            <path class="cls-28" d="m682.86,473.9V194.79l.92-.07c43.1-3.3,90.01-4.97,139.43-4.97,84.13,0,147.22,4.93,147.85,4.97l.92.07v279.1h-289.12Z"/>
            <path class="cls-21" d="m823.2,190.75c85.07,0,147.77,4.97,147.77,4.97v277.18h-287.12V195.72c48.69-3.73,96.81-4.97,139.35-4.97m0-2c-49.45,0-96.38,1.67-139.5,4.98l-1.85.14v281.03h291.12V193.87l-1.84-.15c-.63-.05-63.76-4.98-147.93-4.98h0Z"/>
          </g>
        </g>
        <g>
          <path class="cls-46" d="m682.98,473.39l-.02-.98c-2.4-139.47-.02-275.36,0-276.72l.02-.91.91-.07c43.02-3.29,89.84-4.97,139.17-4.97,83.98,0,146.96,4.92,147.59,4.97l.9.07.02.9c.03,1.36,3.12,137.86,0,276.73l-.02.98h-288.57Z"/>
          <path class="cls-21" d="m823.06,190.75c84.91,0,147.51,4.96,147.51,4.96,0,0,3.15,136.24,0,276.68h-286.61c-2.43-141.07,0-276.68,0-276.68,48.6-3.72,96.63-4.96,139.1-4.96m0-2c-49.36,0-96.21,1.67-139.25,4.97l-1.81.14-.03,1.82c-.02,1.36-2.4,137.26,0,276.75l.03,1.97h290.53l.04-1.96c3.12-138.88.03-275.41,0-276.77l-.04-1.8-1.8-.14c-.63-.05-63.65-4.97-147.67-4.97h0Z"/>
        </g>
        <g>
          <path class="cls-47" d="m683.14,473.39l-.04-.96c-5.47-137.65-.06-275.39,0-276.76l.04-.89.89-.07c43.02-3.29,89.84-4.97,139.18-4.97,83.98,0,146.96,4.92,147.59,4.97l.88.07.04.89c.06,1.38,5.57,139.72,0,276.76l-.04.96h-288.53Z"/>
          <path class="cls-21" d="m823.2,190.75c84.91,0,147.51,4.96,147.51,4.96,0,0,5.63,138.1,0,276.68h-286.61c-5.53-139.2,0-276.68,0-276.68,48.6-3.72,96.63-4.96,139.1-4.96m0-2c-49.36,0-96.21,1.67-139.25,4.97l-1.77.14-.07,1.78c-.06,1.38-5.47,139.15,0,276.84l.08,1.92h290.45l.08-1.92c5.57-137.08.06-275.46,0-276.84l-.07-1.77-1.77-.14c-.63-.05-63.65-4.97-147.67-4.97h0Z"/>
        </g>
        <g>
          <path class="cls-45" d="m683.16,473.39l-.06-.94c-8.54-138.29-.09-275.44,0-276.81l.05-.87.87-.07c43.02-3.29,89.84-4.97,139.18-4.97,83.98,0,146.96,4.92,147.59,4.97l.86.07.05.87c.09,1.38,8.64,139.75,0,276.81l-.06.94h-288.49Z"/>
          <path class="cls-21" d="m823.2,190.75c84.91,0,147.51,4.96,147.51,4.96,0,0,8.74,138.1,0,276.68h-286.61c-8.63-139.82,0-276.68,0-276.68,48.6-3.72,96.63-4.96,139.1-4.96m0-2c-49.36,0-96.21,1.67-139.25,4.97l-1.73.13-.11,1.74c-.09,1.37-8.54,138.58,0,276.93l.12,1.88h290.37l.12-1.87c8.64-137.12.09-275.55,0-276.93l-.11-1.73-1.73-.14c-.63-.05-63.65-4.97-147.67-4.97h0Z"/>
        </g>
        <g>
          <path class="cls-44" d="m683.18,473.39l-.07-.92c-11-138.31-.11-275.47,0-276.84l.07-.85.85-.06c43.02-3.29,89.84-4.97,139.18-4.97,83.98,0,146.96,4.92,147.59,4.97l.85.07.07.85c.11,1.38,11.09,139.15,0,276.84l-.07.92h-288.45Z"/>
          <path class="cls-21" d="m823.2,190.75c84.91,0,147.51,4.96,147.51,4.96,0,0,11.22,137.48,0,276.68h-286.61c-11.12-139.82,0-276.68,0-276.68,48.6-3.72,96.63-4.96,139.1-4.96m0-2c-49.36,0-96.21,1.67-139.25,4.97l-1.7.13-.14,1.7c-.11,1.37-11,138.62,0,277l.15,1.84h290.3l.15-1.84c11.1-137.77.11-275.63,0-277l-.14-1.7-1.7-.13c-.63-.05-63.65-4.97-147.67-4.97h0Z"/>
        </g>
        <g>
          <path class="cls-41" d="m683.2,473.17l-.09-.9c-14.07-138.94-.14-275.52,0-276.89l.09-.83.83-.06c43.02-3.29,89.84-4.97,139.18-4.97,83.98,0,146.96,4.92,147.59,4.97l.83.07.09.83c.14,1.38,14.17,139.17,0,276.89l-.09.9h-288.41Z"/>
          <path class="cls-21" d="m823.2,190.53c84.91,0,147.51,4.96,147.51,4.96,0,0,14.32,137.48,0,276.68h-286.61c-14.22-140.45,0-276.68,0-276.68,48.6-3.72,96.63-4.96,139.1-4.96m0-2c-49.36,0-96.21,1.67-139.25,4.97l-1.66.13-.17,1.66c-.14,1.36-14.08,138.05,0,277.09l.18,1.8h290.22l.18-1.8c14.18-137.82.14-275.72,0-277.09l-.17-1.66-1.66-.13c-.63-.05-63.65-4.97-147.67-4.97h0Z"/>
        </g>
        <g>
          <g>
            <g>
              <path class="cls-42" d="m855.13,354.47h-54.85c0-15.15,12.28-27.43,27.43-27.43s27.43,12.28,27.43,27.43Z"/>
              <path class="cls-23" d="m856.33,342.37c-1.57-3.7-3.8-7.02-6.66-9.88-2.85-2.85-6.18-5.09-9.88-6.66-3.83-1.62-7.9-2.44-12.1-2.44s-8.26.82-12.1,2.44c-3.7,1.57-7.02,3.8-9.88,6.66-2.85,2.85-5.09,6.18-6.66,9.88-1.62,3.83-2.44,7.9-2.44,12.1h3.65c0-15.15,12.28-27.43,27.43-27.43s27.43,12.28,27.43,27.43h3.65c0-4.19-.82-8.26-2.44-12.1Z"/>
            </g>
            <path class="cls-43" d="m852.06,354.47h-24.35v-24.35c12.82,1.35,23,11.54,24.35,24.35Z"/>
          </g>
          <g>
            <circle class="cls-20" cx="804.53" cy="380.52" r="4.4"/>
            <g>
              <path class="cls-21" d="m804.53,375.05c-3.02,0-5.47,2.46-5.47,5.47s2.46,5.47,5.47,5.47,5.47-2.46,5.47-5.47-2.46-5.47-5.47-5.47Zm0,9.87c-2.43,0-4.4-1.97-4.4-4.4s1.97-4.4,4.4-4.4,4.4,1.97,4.4,4.4-1.97,4.4-4.4,4.4Z"/>
              <g class="cls-35">
                <path class="cls-5" d="m804.53,376.76c-2.08,0-3.76,1.69-3.76,3.76,0,.34.04.67.13.98.43-1.6,1.9-2.79,3.64-2.79s3.2,1.18,3.64,2.79c.08-.31.13-.64.13-.98,0-2.08-1.69-3.76-3.76-3.76Z"/>
              </g>
            </g>
          </g>
          <g>
            <circle class="cls-20" cx="850.33" cy="380.52" r="4.4"/>
            <g>
              <path class="cls-21" d="m850.33,375.05c-3.02,0-5.47,2.46-5.47,5.47s2.46,5.47,5.47,5.47,5.47-2.46,5.47-5.47-2.46-5.47-5.47-5.47Zm0,9.87c-2.43,0-4.4-1.97-4.4-4.4s1.97-4.4,4.4-4.4,4.4,1.97,4.4,4.4-1.97,4.4-4.4,4.4Z"/>
              <g class="cls-38">
                <path class="cls-5" d="m850.33,376.76c-2.08,0-3.76,1.69-3.76,3.76,0,.34.04.67.13.98.43-1.6,1.9-2.79,3.64-2.79s3.2,1.18,3.64,2.79c.08-.31.13-.64.13-.98,0-2.08-1.69-3.76-3.76-3.76Z"/>
              </g>
            </g>
          </g>
          <g>
            <circle class="cls-20" cx="827.43" cy="380.52" r="4.4"/>
            <g>
              <path class="cls-21" d="m827.43,375.05c-3.02,0-5.47,2.46-5.47,5.47s2.46,5.47,5.47,5.47,5.47-2.46,5.47-5.47-2.46-5.47-5.47-5.47Zm0,9.87c-2.43,0-4.4-1.97-4.4-4.4s1.97-4.4,4.4-4.4,4.4,1.97,4.4,4.4-1.97,4.4-4.4,4.4Z"/>
              <g class="cls-35">
                <path class="cls-5" d="m827.43,376.76c-2.08,0-3.76,1.69-3.76,3.76,0,.34.04.67.13.98.43-1.6,1.9-2.79,3.64-2.79s3.2,1.18,3.64,2.79c.08-.31.13-.64.13-.98,0-2.08-1.69-3.76-3.76-3.76Z"/>
              </g>
            </g>
          </g>
        </g>
        <g>
          <circle class="cls-8" cx="804.53" cy="380.52" r="4.4"/>
          <g class="cls-37">
            <path class="cls-5" d="m804.53,376.76c-2.08,0-3.76,1.69-3.76,3.76,0,.34.04.67.13.98.43-1.6,1.9-2.79,3.64-2.79s3.2,1.18,3.64,2.79c.08-.31.13-.64.13-.98,0-2.08-1.69-3.76-3.76-3.76Z"/>
          </g>
        </g>
        <g>
          <circle class="cls-12" cx="827.43" cy="380.52" r="4.4"/>
          <g class="cls-37">
            <path class="cls-5" d="m827.43,376.76c-2.08,0-3.76,1.69-3.76,3.76,0,.34.04.67.13.98.43-1.6,1.9-2.79,3.64-2.79s3.2,1.18,3.64,2.79c.08-.31.13-.64.13-.98,0-2.08-1.69-3.76-3.76-3.76Z"/>
          </g>
        </g>
        <g>
          <circle class="cls-6" cx="850.33" cy="380.52" r="4.4"/>
          <path class="cls-5" d="m850.33,376.76c-2.08,0-3.76,1.69-3.76,3.76,0,.34.04.67.13.98.43-1.6,1.9-2.79,3.64-2.79s3.2,1.18,3.64,2.79c.08-.31.13-.64.13-.98,0-2.08-1.69-3.76-3.76-3.76Z"/>
        </g>
        <g>
          <circle class="cls-23" cx="827.7" cy="354.39" r="4.74"/>
          <polygon class="cls-23" points="827.7 327.77 830.04 354.76 825.37 354.76 827.7 327.77"/>
        </g>
        <g>
          <path class="cls-24" d="m740.5,247.92h-7.97c.1.89.46,1.62,1.08,2.2.62.56,1.37.85,2.25.85,1.14,0,2.16-.46,3.02-1.37l1.04,1.04c-1.14,1.14-2.48,1.77-4.01,1.77-2.81.06-5.05-2.25-4.99-4.97-.06-2.68,2.18-5.01,4.8-4.95,2.6-.06,4.85,2.25,4.8,4.85l-.02.58Zm-1.62-1.33c-.33-1.56-1.62-2.7-3.16-2.7s-2.79,1.1-3.16,2.7h6.32Z"/>
          <path class="cls-24" d="m751.73,243.12l-4.37,9.11h-1.29l-4.35-9.11,1.37-.64,3.64,7.61,3.62-7.61,1.39.64Z"/>
          <path class="cls-24" d="m753.73,240.67v-1.73h1.73v1.73h-1.73Zm.1,1.96h1.54v9.59h-1.54v-9.59Z"/>
          <path class="cls-24" d="m767.77,237.59v14.64h-1.48v-1.54c-.87,1.08-2.16,1.71-3.6,1.71-2.62.06-4.82-2.25-4.76-4.97-.06-2.7,2.14-4.99,4.76-4.95,1.41,0,2.68.62,3.54,1.64v-6.53h1.54Zm-4.89,6.3c-1.95,0-3.41,1.54-3.41,3.54s1.46,3.54,3.41,3.54,3.43-1.54,3.43-3.54-1.46-3.54-3.43-3.54Z"/>
          <path class="cls-24" d="m779.85,247.92h-7.97c.1.89.46,1.62,1.08,2.2.62.56,1.37.85,2.25.85,1.14,0,2.16-.46,3.02-1.37l1.04,1.04c-1.14,1.14-2.48,1.77-4.01,1.77-2.81.06-5.05-2.25-4.99-4.97-.06-2.68,2.18-5.01,4.8-4.95,2.6-.06,4.85,2.25,4.8,4.85l-.02.58Zm-1.62-1.33c-.33-1.56-1.62-2.7-3.16-2.7s-2.79,1.1-3.16,2.7h6.32Z"/>
          <path class="cls-24" d="m791.1,252.23h-1.54v-5.57c0-1.64-1.06-2.75-2.62-2.75-1.64,0-3.02,1.21-3.02,3.31v5.01h-1.54v-9.59h1.48v1.52c.79-1.06,2.02-1.68,3.41-1.68,2.23,0,3.83,1.64,3.83,3.89v5.86Z"/>
          <path class="cls-24" d="m799.87,251.44c-.54.62-1.27.96-2.18.96-1.66,0-2.89-1.27-2.89-2.85v-5.49h-1.64v-1.43h1.64v-2.93h1.54v2.93h2.83v1.43h-2.83v5.47c0,.79.64,1.44,1.46,1.44.4,0,.83-.19,1.08-.48l.98.94Z"/>
          <path class="cls-24" d="m743.37,289.79h-10.36v-26.97h10.36c8.05-.08,14.25,5.66,14.14,13.41.12,7.82-6.09,13.68-14.14,13.56Zm-.19-21.26h-4.01v15.56h4.01c4.66,0,8.17-3.27,8.17-7.82s-3.51-7.74-8.17-7.74Z"/>
          <path class="cls-24" d="m777.93,283.59h-10.25l-2.58,6.82-5.66-2.31,10.21-25.27h6.28l10.21,25.27-5.62,2.31-2.58-6.82Zm-1.96-5.12l-3.16-8.4-3.2,8.4h6.36Z"/>
          <path class="cls-24" d="m807.7,268.53h-7.86v21.26h-6.16v-21.26h-7.86v-5.7h21.88v5.7Z"/>
          <path class="cls-24" d="m825.89,283.59h-10.25l-2.58,6.82-5.66-2.31,10.21-25.27h6.28l10.21,25.27-5.62,2.31-2.58-6.82Zm-1.96-5.12l-3.16-8.4-3.2,8.4h6.36Z"/>
          <path class="cls-24" d="m848.35,289.79h-10.63v-26.97h10.98c4.74,0,7.94,3.04,7.94,7.13,0,2.5-1.12,4.62-3.08,5.89,2.35,1.35,3.7,3.58,3.7,6.32,0,4.51-3.62,7.63-8.9,7.63Zm-4.74-22.07v5.82h3.93c1.89,0,3.16-1.19,3.16-2.89s-1.27-2.93-3.16-2.93h-3.93Zm3.89,10.63h-3.89v6.55h3.89c2.27,0,3.78-1.39,3.78-3.27s-1.5-3.27-3.78-3.27Z"/>
          <path class="cls-24" d="m878.13,283.59h-10.25l-2.58,6.82-5.66-2.31,10.21-25.27h6.28l10.21,25.27-5.62,2.31-2.58-6.82Zm-1.96-5.12l-3.16-8.4-3.2,8.4h6.36Z"/>
          <path class="cls-24" d="m894.19,281.7c.58,2.04,2.47,3.31,5.08,3.31,2.43,0,4.12-1,4.12-2.97,0-1.69-1.43-2.66-3.78-2.85l-2-.15c-5.43-.46-8.51-3.7-8.51-8.17,0-5.35,4.51-8.67,9.71-8.67,4.62,0,8.86,2.62,9.78,6.93l-5.35,1.04c-.46-1.54-2.27-2.58-4.43-2.58-2.27,0-3.85,1.08-3.85,2.81,0,1.58,1.19,2.5,3.39,2.66l2.27.19c5.35.35,8.63,3.74,8.63,8.51,0,5.35-4.28,8.63-10.05,8.63s-9.78-3.12-10.63-7.63l5.62-1.08Z"/>
          <path class="cls-24" d="m920.16,268.1v5.47h10.4v5.08h-10.4v5.82h11.44v5.32h-17.53v-26.97h17.53v5.28h-11.44Z"/>
        </g>
      </g>
    </g>
  </g>
</svg>