<?xml version="1.0" encoding="UTF-8"?>
<svg id="Layer_1" data-name="Layer 1" xmlns="http://www.w3.org/2000/svg" xmlns:xlink="http://www.w3.org/1999/xlink" viewBox="0 0 48 48">
  <defs>
    <style>
      .cls-1 {
        fill: url(#linear-gradient);
      }
    </style>
    <linearGradient id="linear-gradient" x1="24" y1="48.4" x2="24" y2="-.09" gradientUnits="userSpaceOnUse">
      <stop offset="0" stop-color="#ffebb1"/>
      <stop offset=".8" stop-color="#ffebb1"/>
      <stop offset="1" stop-color="#fff"/>
    </linearGradient>
  </defs>
  <path class="cls-1" d="m24,2c12.13,0,22,9.87,22,22s-9.87,22-22,22S2,36.13,2,24,11.87,2,24,2m0-2C10.75,0,0,10.75,0,24s10.75,24,24,24,24-10.75,24-24S37.25,0,24,0h0Zm0,37c.83,0,1.5-.67,1.5-1.5s-.67-1.5-1.5-1.5-1.5.67-1.5,1.5.67,1.5,1.5,1.5Zm6-29.5h-12c-3.31,0-6,2.69-6,6v21c0,3.3,2.7,6,6,6h12c3.3,0,6-2.7,6-6V13.5c0-3.31-2.69-6-6-6Zm4,27c0,2.21-1.79,4-4,4h-12c-2.21,0-4-1.79-4-4v-18h20v18Zm0-19H14v-2c0-2.21,1.79-4,4-4h12c2.21,0,4,1.79,4,4v2Z"/>
</svg>