<?xml version="1.0" encoding="utf-8"?>
<!-- Generator: Adobe Illustrator 27.5.0, SVG Export Plug-In . SVG Version: 6.00 Build 0)  -->
<svg version="1.1" id="Layer_1" xmlns="http://www.w3.org/2000/svg" xmlns:xlink="http://www.w3.org/1999/xlink" x="0px" y="0px"
	 viewBox="0 0 200 200" style="enable-background:new 0 0 200 200;" xml:space="preserve">
<style type="text/css">
	.st0{fill:url(#Path_3_00000058572116476227114320000005308643922009743774_);}
</style>
<g id="Page-1">
	<g id="logo-main-5">
		<g id="logo-main-copy-15">
			
				<linearGradient id="Path_3_00000032607824925643075040000005836196602104980363_" gradientUnits="userSpaceOnUse" x1="-854.2761" y1="638.7937" x2="-854.1339" y2="637.8162" gradientTransform="matrix(200 0 0 -200 170941 127761)">
				<stop  offset="0" style="stop-color:#FFEBB1"/>
				<stop  offset="4.977526e-02" style="stop-color:#FFEBB1"/>
				<stop  offset="0.6408" style="stop-color:#FF028D"/>
				<stop  offset="1" style="stop-color:#FF05C1"/>
			</linearGradient>
			<path id="Path_3" style="fill:url(#Path_3_00000032607824925643075040000005836196602104980363_);" d="M100,0
				C44.8,0,0,44.8,0,100s44.8,100,100,100s100-44.8,100-100S155.2,0,100,0z M128,66.6c-2.4-0.7-4.9-1.1-7.4-1
				c-2.9-0.1-5.8,0.1-8.6,0.7l-1,56c-0.5,26.7-13.4,36.1-33.8,36.1c-5.3,0-10.5-0.7-15.5-2.2l-8.1-7.1c5,1.5,10.3,2.2,15.5,2.2
				c20.4,0,33.4-9.3,33.8-36.1l1-56c2.8-0.6,5.7-0.8,8.6-0.7C120.6,58.4,125.9,61.4,128,66.6L128,66.6z M157.6,83.3l-20.7-5.6
				l-8.1-7.1l20.7,5.6c0.2-1.5,0.3-3.1,0.4-4.7c0.1-8.7-3.2-16.1-8.6-20.9l8.1,7.1c5.4,4.8,8.8,12.2,8.6,20.9
				C158,80.2,157.8,81.8,157.6,83.3L157.6,83.3z"/>
		</g>
	</g>
</g>
</svg>
