<?xml version="1.0" encoding="UTF-8"?>
<svg id="Layer_1" data-name="Layer 1" xmlns="http://www.w3.org/2000/svg" xmlns:xlink="http://www.w3.org/1999/xlink" viewBox="0 0 48 48">
  <defs>
    <style>
      .cls-1 {
        fill: url(#linear-gradient);
      }
    </style>
    <linearGradient id="linear-gradient" x1="24.12" y1="48.5" x2="24.12" y2="0" gradientUnits="userSpaceOnUse">
      <stop offset="0" stop-color="#ffebb1"/>
      <stop offset=".4" stop-color="#fff"/>
      <stop offset="1" stop-color="#fff"/>
    </linearGradient>
  </defs>
  <path class="cls-1" d="m24.12,2.1c12.13,0,22,9.87,22,22s-9.87,22-22,22S2.12,36.23,2.12,24.1,11.99,2.1,24.12,2.1m0-2C10.87.1.12,10.84.12,24.1s10.75,24,24,24,24-10.75,24-24S37.38.1,24.12.1h0Zm-.56,27.28l-2.64-4-2.64,4h1.64c0,1.63-1.33,2.96-2.96,2.96h-2.37c-3.02,0-5.47-2.45-5.47-5.47s2.34-5.39,5.33-5.46l.69-.02.23-.65c1.23-3.48,4.53-5.81,8.21-5.81,2.78,0,5.42,1.35,7.05,3.61l.35.48.59-.07c.27-.03.54-.06.82-.06,3.71,0,6.73,3.02,6.73,6.73s-3.02,6.73-6.73,6.73h-2.18c-2.73,0-4.96,2.22-4.96,4.96h-1.64l2.64,4,2.64-4h-1.64c0-1.63,1.33-2.96,2.96-2.96h2.18c4.81,0,8.73-3.92,8.73-8.73s-3.92-8.73-8.73-8.73c-.17,0-.33,0-.49.02-2.03-2.5-5.09-3.97-8.32-3.97-4.31,0-8.19,2.6-9.86,6.53-3.75.43-6.6,3.56-6.6,7.42,0,4.12,3.35,7.47,7.47,7.47h2.37c2.73,0,4.96-2.22,4.96-4.96h1.64Z"/>
</svg>