<?xml version="1.0" encoding="UTF-8"?>
<svg xmlns="http://www.w3.org/2000/svg" xmlns:xlink="http://www.w3.org/1999/xlink" viewBox="0 0 1600 561.8">
  <defs>
    <style>
      .cls-1 {
        fill: url(#linear-gradient);
      }

      .cls-2 {
        fill: #eaeaea;
      }

      .cls-3 {
        fill: #fff;
      }

      .cls-4 {
        fill: #ffba54;
      }

      .cls-5 {
        fill: red;
      }

      .cls-6 {
        fill: #ee913d;
      }

      .cls-7 {
        fill: #3f2f22;
      }

      .cls-8 {
        fill: #586e75;
      }

      .cls-9 {
        fill: url(#radial-gradient-2);
      }

      .cls-10 {
        fill: url(#linear-gradient-3);
      }

      .cls-11 {
        fill: url(#linear-gradient-4);
      }

      .cls-12 {
        fill: url(#linear-gradient-2);
      }

      .cls-13 {
        fill: url(#linear-gradient-6);
      }

      .cls-14 {
        fill: url(#linear-gradient-7);
      }

      .cls-15 {
        fill: url(#linear-gradient-5);
        stroke: #333;
        stroke-miterlimit: 10;
        stroke-width: 3px;
      }

      .cls-16 {
        opacity: .8;
      }

      .cls-17 {
        fill: url(#radial-gradient);
      }

      .cls-18 {
        fill: #dfdfdf;
        opacity: .6;
      }

      .cls-19 {
        fill: #666;
        opacity: .7;
      }
    </style>
    <radialGradient id="radial-gradient" cx="617.37" cy="236.78" fx="617.37" fy="236.78" r="92.09" gradientUnits="userSpaceOnUse">
      <stop offset="0" stop-color="#b5dbff" stop-opacity=".1"/>
      <stop offset="1" stop-color="#f0f0f0" stop-opacity=".2"/>
    </radialGradient>
    <linearGradient id="linear-gradient" x1="992.21" y1="293.99" x2="1089.14" y2="293.99" gradientUnits="userSpaceOnUse">
      <stop offset="0" stop-color="#fff8e1"/>
      <stop offset=".43" stop-color="#ac924d"/>
      <stop offset=".67" stop-color="#d7b130"/>
      <stop offset="1" stop-color="#d7b130"/>
    </linearGradient>
    <linearGradient id="linear-gradient-2" x1="992.2" y1="291.62" x2="1089.14" y2="291.62" gradientUnits="userSpaceOnUse">
      <stop offset="0" stop-color="#ac924d"/>
      <stop offset=".5" stop-color="#ac924d"/>
      <stop offset=".67" stop-color="#fff8e1"/>
      <stop offset="1" stop-color="#ac924d"/>
    </linearGradient>
    <linearGradient id="linear-gradient-3" x1="992.21" y1="252.79" x2="1089.14" y2="252.79" gradientUnits="userSpaceOnUse">
      <stop offset="0" stop-color="#fff8e1"/>
      <stop offset=".42" stop-color="#ac924d"/>
      <stop offset=".67" stop-color="#fff8e1"/>
      <stop offset="1" stop-color="#d7b130"/>
    </linearGradient>
    <linearGradient id="linear-gradient-4" y1="250.42" y2="250.42" xlink:href="#linear-gradient-2"/>
    <linearGradient id="linear-gradient-5" x1="995.05" y1="328.72" x2="993.66" y2="220.15" gradientUnits="userSpaceOnUse">
      <stop offset=".02" stop-color="#77726d"/>
      <stop offset=".57" stop-color="#a3a19f"/>
      <stop offset=".7" stop-color="#c5c5c5"/>
      <stop offset="1" stop-color="#c5c5c5"/>
    </linearGradient>
    <linearGradient id="linear-gradient-6" x1="958.3" y1="274.12" x2="1027.97" y2="274.12" gradientUnits="userSpaceOnUse">
      <stop offset=".02" stop-color="#fff" stop-opacity="0"/>
      <stop offset="1" stop-color="#fff" stop-opacity=".7"/>
    </linearGradient>
    <linearGradient id="linear-gradient-7" x1="935.69" y1="358.05" x2="746.84" y2="190.62" gradientUnits="userSpaceOnUse">
      <stop offset=".02" stop-color="#b7570f"/>
      <stop offset=".13" stop-color="#d37120"/>
      <stop offset=".36" stop-color="#f29a42"/>
      <stop offset=".61" stop-color="#ffba54"/>
      <stop offset=".85" stop-color="#ffd49c"/>
      <stop offset=".95" stop-color="#ffd49c"/>
      <stop offset="1" stop-color="#ffd49c"/>
    </linearGradient>
    <radialGradient id="radial-gradient-2" cx="951.9" cy="356.63" fx="951.9" fy="356.63" r="107.03" gradientUnits="userSpaceOnUse">
      <stop offset="0" stop-color="#98ceff" stop-opacity=".1"/>
      <stop offset=".66" stop-color="#f0f0f0" stop-opacity=".7"/>
      <stop offset="1" stop-color="#f0f0f0" stop-opacity=".7"/>
    </radialGradient>
  </defs>
  <g id="background">
    <rect class="cls-3" width="1600" height="561.8"/>
  </g>
  <g id="Deploy_Animation" data-name="Deploy Animation">
    <g>
      <rect class="cls-3" x="356.09" y="30.9" width="887.83" height="500"/>
      <g>
        <g>
          <path class="cls-17" d="m636.58,259.72s-.47.02-.57.02h-97.34c-.32,0-.63-.02-.95-.04l-.25-.02-.25.02c-.41.02-.83.04-1.25.04-11.64,0-21.11-9.47-21.11-21.11s9.33-20.93,20.79-21.1l3.9-.06.04-3.9c.06-5.29,1.5-10.49,4.16-15.03l.65-1.11-.12-1.28c-.05-.56-.07-1.07-.07-1.56,0-9.51,7.74-17.24,17.24-17.24,4.84,0,9.49,2.05,12.75,5.64l.87.95,1.26.27c7.27,1.55,13.72,5.74,18.14,11.77l1.87,2.55,2.91-1.23c3.45-1.45,7.1-2.19,10.87-2.19,15.1,0,27.41,11.81,28.03,26.89l.12,3.02,2.94.71c7.77,1.87,13.19,8.76,13.19,16.76,0,9.51-7.74,17.24-17.24,17.24l-.59-.02Z"/>
          <path class="cls-2" d="m561.46,181.35c3.77,0,7.25,1.54,9.8,4.33l1.73,1.9,2.51.54c6.31,1.35,11.91,4.98,15.75,10.23l3.73,5.1,5.82-2.45c2.95-1.24,6.09-1.87,9.32-1.87,12.95,0,23.5,10.13,24.03,23.05l.25,6.04,5.87,1.41c5.96,1.44,10.13,6.73,10.13,12.87,0,7.3-5.94,13.24-13.23,13.24h-.15s-.23-.01-.23-.01h-.24s-.24,0-.24,0h-.14s-.17.01-.17.01h-97.34c-.18,0-.39,0-.67-.03l-.51-.03-.51.03c-.39.02-.72.03-1.02.03-9.43,0-17.11-7.67-17.11-17.11s7.56-16.96,16.85-17.1l7.8-.12.08-7.8c.05-4.6,1.3-9.11,3.61-13.05l1.3-2.21-.23-2.56c-.04-.44-.06-.83-.06-1.21,0-7.3,5.94-13.24,13.24-13.24m0-8c-11.73,0-21.24,9.51-21.24,21.24,0,.65.03,1.29.09,1.92-2.94,5-4.65,10.81-4.72,17.01-13.69.2-24.73,11.36-24.73,25.1s11.24,25.11,25.11,25.11c.5,0,.99-.02,1.48-.05.4.03.81.05,1.22.05h97.34c.19,0,.38,0,.58-.01.19,0,.39.01.58.01,11.73,0,21.24-9.51,21.24-21.24,0-10.01-6.93-18.41-16.26-20.65-.7-17.09-14.77-30.72-32.03-30.72-4.41,0-8.6.89-12.43,2.5-4.9-6.68-12.15-11.53-20.53-13.32-3.89-4.27-9.49-6.94-15.71-6.94h0Z"/>
        </g>
        <g>
          <g>
            <g>
              <path class="cls-1" d="m1089.14,293.99h0c0,3.12-2.91,5.64-6.51,5.64h-90.42v-11.27h90.42c3.6,0,6.51,2.52,6.51,5.63Z"/>
              <path class="cls-12" d="m1089.14,293.99h0c0,.31-.03.61-.09.89-.48-2.7-3.16-4.76-6.42-4.76h-90.43v-1.76h90.43c3.6,0,6.5,2.52,6.5,5.63Z"/>
            </g>
            <g>
              <path class="cls-10" d="m1089.14,252.79h0c0,3.12-2.91,5.64-6.51,5.64h-90.42v-11.27h90.42c3.6,0,6.51,2.52,6.51,5.63Z"/>
              <path class="cls-11" d="m1089.14,252.79h0c0,.31-.03.61-.09.89-.48-2.7-3.16-4.76-6.42-4.76h-90.43v-1.76h90.43c3.6,0,6.5,2.52,6.5,5.63Z"/>
            </g>
          </g>
          <g>
            <path class="cls-15" d="m1031.97,230.38v86.03c0,5.33-4.36,9.69-9.69,9.69h-65.43v-105.42h65.43c5.33,0,9.69,4.36,9.69,9.69Z"/>
            <g class="cls-16">
              <path class="cls-13" d="m1027.97,231.4v85.46c0,3.16-2.45,5.73-5.45,5.73h-64.22v-2.7h62.38c2.68,0,4.87-2.13,4.87-4.76v-70.76c0-2.62-2.19-4.75-4.87-4.75h-62.38v-13.96h64.22c3,0,5.45,2.58,5.45,5.74Z"/>
            </g>
          </g>
          <rect class="cls-19" x="963.51" y="222.22" width="12.72" height="101.78"/>
          <rect class="cls-6" x="721.67" y="186.31" width="237.07" height="174.16" rx="12.12" ry="12.12"/>
          <g>
            <path class="cls-5" d="m946.63,181.47h-212.84c-9.33,0-16.96,7.63-16.96,16.96v149.92c0,9.33,7.63,16.96,16.96,16.96h212.84c9.33,0,16.96-7.63,16.96-16.96v-149.92c0-9.33-7.63-16.96-16.96-16.96Zm12.12,166.89c0,6.68-5.44,12.12-12.12,12.12h-212.84c-6.68,0-12.12-5.44-12.12-12.12v-149.92c0-6.68,5.44-12.12,12.12-12.12h212.84c6.68,0,12.12,5.44,12.12,12.12v149.92Z"/>
            <path class="cls-7" d="m946.63,181.47h-212.84c-9.33,0-16.96,7.63-16.96,16.96v149.92c0,9.33,7.63,16.96,16.96,16.96h212.84c9.33,0,16.96-7.63,16.96-16.96v-149.92c0-9.33-7.63-16.96-16.96-16.96Zm12.12,166.89c0,6.68-5.44,12.12-12.12,12.12h-212.84c-6.68,0-12.12-5.44-12.12-12.12v-149.92c0-6.68,5.44-12.12,12.12-12.12h212.84c6.68,0,12.12,5.44,12.12,12.12v149.92Z"/>
          </g>
          <rect class="cls-4" x="721.67" y="186.31" width="237.07" height="174.16" rx="12.12" ry="12.12"/>
          <rect class="cls-14" x="724.1" y="188.74" width="232.22" height="169.31" rx="9.69" ry="9.69"/>
          <g>
            <path class="cls-8" d="m754.91,241.04h-10.04c.12,1.12.58,2.04,1.36,2.76.78.7,1.72,1.07,2.84,1.07,1.43,0,2.72-.58,3.81-1.72l1.31,1.31c-1.43,1.43-3.13,2.23-5.04,2.23-3.54.07-6.35-2.84-6.28-6.25-.07-3.37,2.74-6.3,6.04-6.23,3.27-.07,6.11,2.84,6.04,6.11l-.02.73Zm-2.04-1.67c-.41-1.96-2.04-3.39-3.98-3.39s-3.52,1.38-3.98,3.39h7.95Z"/>
            <path class="cls-8" d="m769.04,235l-5.5,11.47h-1.62l-5.48-11.47,1.72-.8,4.58,9.57,4.56-9.57,1.75.8Z"/>
            <path class="cls-8" d="m771.56,231.93v-2.18h2.18v2.18h-2.18Zm.12,2.47h1.94v12.07h-1.94v-12.07Z"/>
            <path class="cls-8" d="m789.23,228.05v18.42h-1.87v-1.94c-1.09,1.36-2.71,2.16-4.53,2.16-3.3.07-6.06-2.84-5.99-6.25-.07-3.39,2.69-6.28,5.99-6.23,1.77,0,3.37.78,4.46,2.06v-8.22h1.94Zm-6.16,7.93c-2.45,0-4.29,1.94-4.29,4.46s1.84,4.46,4.29,4.46,4.31-1.94,4.31-4.46-1.84-4.46-4.31-4.46Z"/>
            <path class="cls-8" d="m804.42,241.04h-10.04c.12,1.12.58,2.04,1.36,2.76.78.7,1.72,1.07,2.84,1.07,1.43,0,2.72-.58,3.81-1.72l1.31,1.31c-1.43,1.43-3.13,2.23-5.04,2.23-3.54.07-6.35-2.84-6.28-6.25-.07-3.37,2.74-6.3,6.04-6.23,3.27-.07,6.11,2.84,6.04,6.11l-.02.73Zm-2.04-1.67c-.41-1.96-2.04-3.39-3.98-3.39s-3.52,1.38-3.98,3.39h7.95Z"/>
            <path class="cls-8" d="m818.57,246.47h-1.94v-7.01c0-2.06-1.33-3.47-3.3-3.47-2.06,0-3.81,1.53-3.81,4.17v6.3h-1.94v-12.07h1.87v1.91c.99-1.33,2.55-2.11,4.29-2.11,2.81,0,4.82,2.06,4.82,4.9v7.37Z"/>
            <path class="cls-8" d="m829.6,245.47c-.68.78-1.6,1.21-2.74,1.21-2.08,0-3.64-1.6-3.64-3.59v-6.91h-2.06v-1.79h2.06v-3.68h1.94v3.68h3.56v1.79h-3.56v6.88c0,.99.8,1.82,1.84,1.82.51,0,1.04-.24,1.36-.61l1.24,1.19Z"/>
            <path class="cls-8" d="m758.52,293.73h-13.04v-33.92h13.04c10.13-.1,17.93,7.12,17.79,16.86.15,9.84-7.66,17.2-17.79,17.06Zm-.24-26.75h-5.04v19.58h5.04c5.86,0,10.27-4.12,10.27-9.84s-4.41-9.74-10.27-9.74Z"/>
            <path class="cls-8" d="m789.78,266.44v6.88h13.08v6.4h-13.08v7.32h14.39v6.69h-22.05v-33.92h22.05v6.64h-14.39Z"/>
            <path class="cls-8" d="m823.27,282.68h-4.7v11.05h-7.75v-33.92h12.45c7.22,0,12.6,4.89,12.6,11.44s-5.38,11.44-12.6,11.44Zm-.15-15.8h-4.56v8.77h4.56c2.91,0,4.99-1.89,4.99-4.41s-2.08-4.36-4.99-4.36Z"/>
            <path class="cls-8" d="m862.77,286.55v7.17h-21.18v-33.92h7.75v26.75h13.42Z"/>
            <path class="cls-8" d="m884.05,259.03c9.98-.19,18.51,8,18.32,17.74.19,9.74-8.34,17.93-18.32,17.74-10.03.19-18.46-8-18.27-17.74-.19-9.74,8.24-17.93,18.27-17.74Zm0,7.22c-5.91,0-10.52,4.6-10.52,10.52s4.6,10.52,10.52,10.52,10.56-4.6,10.56-10.52-4.65-10.52-10.56-10.52Z"/>
            <path class="cls-8" d="m925,280.83v12.89h-7.75v-12.89l-12.55-17.83,6.25-4.36,10.18,14.34,10.13-14.34,6.3,4.36-12.55,17.83Z"/>
          </g>
          <polyline class="cls-18" points="870.5 181.47 870.5 214.24 809.92 230.13 809.92 181.47"/>
        </g>
        <g>
          <path class="cls-9" d="m1050.2,384.45c-.13,0-.26,0-.39,0h-.39s-.25,0-.25,0c-.17,0-.33.01-.5.01h-127.96c-.45,0-.89-.02-1.33-.05l-.25-.02h-.25c-.57.05-1.14.07-1.72.07-15.99,0-29.01-13.01-29.01-29.01s12.76-28.69,28.44-28.99l2.9-.06.85-2.77c5.08-16.54,20.12-27.66,37.44-27.66,5.73,0,11.26,1.22,16.44,3.62l2.79,1.29,1.97-2.37c4.57-5.49,11.28-8.64,18.41-8.64,5.91,0,11.58,2.17,15.98,6.12l1.09.97,1.46.05c19.85.64,36.03,16.68,36.85,36.52l.12,3.02,2.94.71c10.78,2.59,18.31,12.16,18.31,23.26,0,13.19-10.73,23.93-23.93,23.93Z"/>
          <path class="cls-2" d="m997.39,293.87c4.92,0,9.64,1.81,13.31,5.1l2.17,1.95,2.92.09c17.77.58,32.25,14.93,32.98,32.69l.25,6.04,5.87,1.41c8.98,2.16,15.24,10.13,15.24,19.37,0,10.99-8.94,19.93-19.93,19.93-.09,0-.17,0-.26,0h-.29s-.24-.02-.24-.02h-.24s-.18.01-.18.01c-.11,0-.21,0-.32,0h-127.96c-.29,0-.63-.01-1.06-.04l-.51-.03-.51.03c-.56.03-1.04.05-1.48.05-13.79,0-25.01-11.22-25.01-25.01s11-24.73,24.52-24.99l5.79-.11,1.7-5.54c4.56-14.85,18.07-24.83,33.62-24.83,5.14,0,10.11,1.09,14.76,3.25l5.58,2.59,3.93-4.73c3.8-4.58,9.39-7.2,15.33-7.2m0-8c-8.64,0-16.36,3.92-21.48,10.08-5.51-2.56-11.65-3.99-18.13-3.99-19.43,0-35.85,12.83-41.27,30.48-17.93.34-32.36,14.98-32.36,32.99s14.78,33.01,33.01,33.01c.65,0,1.3-.02,1.95-.06.53.04,1.07.06,1.61.06h127.96c.25,0,.51-.01.76-.02.26,0,.51.02.77.02,15.42,0,27.93-12.5,27.93-27.93,0-13.17-9.11-24.2-21.37-27.15-.9-22-18.67-39.64-40.72-40.35-4.95-4.44-11.48-7.14-18.65-7.14h0Z"/>
        </g>
      </g>
    </g>
  </g>
</svg>