<?xml version="1.0" encoding="UTF-8"?>
<svg xmlns="http://www.w3.org/2000/svg" viewBox="0 0 1600 561.8">
  <defs>
    <style>
      .cls-1 {
        fill: #00a3ff;
      }

      .cls-2 {
        fill: #fff;
      }

      .cls-3 {
        fill: #fffdd0;
      }

      .cls-4 {
        fill: #ffac30;
      }

      .cls-5 {
        fill: #ff6565;
      }

      .cls-6 {
        fill: #7d8799;
      }

      .cls-7 {
        fill: #313841;
      }

      .cls-8 {
        fill: #cd50f9;
      }

      .cls-9 {
        fill: #292c33;
      }

      .cls-10 {
        fill: #74deff;
      }

      .cls-11 {
        fill: #4fff11;
      }
    </style>
  </defs>
  <g id="background">
    <rect class="cls-2" width="1600" height="561.8"/>
  </g>
  <g id="Domain_Function_Animation" data-name="Domain Function Animation">
    <g>
      <rect class="cls-2" x="444.44" y="80.9" width="711.11" height="400"/>
      <rect class="cls-7" x="515.56" y="176.18" width="568.89" height="209.44"/>
      <rect class="cls-9" x="515.56" y="176.18" width="44.44" height="209.44"/>
      <g>
        <path class="cls-6" d="m537.61,358.39c-1.66,0-2.87-.46-3.63-1.37s-1.14-2.14-1.14-3.69v-4.3c0-1.65.42-2.92,1.25-3.81.83-.89,2.02-1.33,3.56-1.33,1.4,0,2.46.26,3.16.77s1.18,1.34,1.41,2.48l-1.93.41c-.15-.72-.4-1.24-.74-1.57-.34-.33-.99-.49-1.94-.49-1.08,0-1.86.27-2.32.82-.46.55-.69,1.46-.69,2.73v1.7h.35c.32-.42.72-.75,1.21-.99.49-.24,1.14-.35,1.95-.35,1.41,0,2.48.39,3.19,1.17.71.78,1.07,1.79,1.07,3.02v.39c0,1.43-.41,2.52-1.24,3.28-.83.76-2,1.14-3.54,1.14Zm-.02-1.59c1.03,0,1.78-.23,2.26-.68.48-.45.72-1.16.72-2.11v-.23c0-.95-.24-1.66-.72-2.11-.48-.45-1.24-.68-2.26-.68s-1.78.23-2.26.68c-.48.45-.72,1.16-.72,2.11v.23c0,.95.24,1.66.72,2.11.48.45,1.24.68,2.26.68Z"/>
        <path class="cls-4" d="m577.87,356.93c0,1.02-.56,1.78-1.68,2.27-1.12.49-2.92.71-5.39.66v-1.56c1.99.04,3.37-.08,4.15-.34.77-.26,1.16-.68,1.16-1.27,0-.33-.08-.62-.24-.88-.16-.25-.44-.56-.86-.91-.45-.41-.76-.75-.94-1.02-.18-.27-.27-.55-.27-.85,0-.68.29-1.21.88-1.59.58-.38,1.42-.62,2.52-.74v-.09c-1.1-.05-1.94-.24-2.52-.57s-.88-.83-.88-1.49c0-.33.08-.63.25-.91s.46-.61.88-1c.44-.4.74-.72.91-.97s.26-.49.26-.72c0-.55-.39-.95-1.16-1.2-.77-.25-2.15-.35-4.15-.32v-1.59c2.48-.05,4.27.17,5.39.66,1.12.49,1.68,1.23,1.68,2.24,0,.6-.12,1.08-.36,1.45s-.5.68-.79.94c-.29.26-.56.49-.8.7-.24.21-.35.46-.35.75,0,.54.29.93.88,1.15.59.22,1.65.35,3.18.39v1.06c-1.53.04-2.59.17-3.18.4s-.88.62-.88,1.18c0,.29.12.57.35.83.24.26.5.54.8.83.28.3.55.64.79,1.04s.36.9.36,1.48Z"/>
      </g>
      <g>
        <path class="cls-6" d="m537.59,327.56c-1.83,0-3.08-.29-3.77-.86-.69-.57-1.08-1.65-1.16-3.23l1.77-.18c.08,1.12.32,1.84.72,2.17.39.33,1.22.49,2.47.49,1.07,0,1.84-.2,2.31-.6.46-.4.7-1,.7-1.8v-.85c0-.85-.19-1.46-.57-1.84s-.98-.57-1.82-.57h-5.04v-7.07h8.48v1.59h-6.72v3.8h3.27c1.4,0,2.45.32,3.13.97.68.65,1.03,1.63,1.03,2.95v1.18c0,1.17-.41,2.09-1.24,2.78-.83.69-2.01,1.03-3.55,1.03Z"/>
        <path class="cls-8" d="m594.93,325.32v-10.61h1.77v1.77h.53c.25-.67.62-1.16,1.13-1.48.51-.31,1.12-.47,1.84-.47.79,0,1.45.26,1.98.79.53.52.8,1.26.8,2.22v1.59h-1.68v-.95c0-.67-.15-1.17-.45-1.48-.3-.32-.76-.48-1.37-.48-.55,0-1.06.14-1.51.41s-.88.7-1.26,1.27v7.42h-1.77Z"/>
        <path class="cls-8" d="m614.98,322.98c-.32.88-.8,1.52-1.45,1.92-.65.39-1.64.59-2.99.59s-2.49-.34-3.27-1.02c-.78-.68-1.17-1.68-1.17-3.01v-2.85c0-1.37.41-2.39,1.23-3.07.82-.68,1.89-1.02,3.21-1.02s2.4.34,3.2,1.03c.8.69,1.2,1.75,1.2,3.17v1.63h-7.07v1.11c0,.88.22,1.52.66,1.92.44.39,1.11.59,1.99.59s1.47-.12,1.86-.35c.39-.24.68-.62.88-1.15l1.71.49Zm-7.11-4.37v.42h5.3v-.26c0-.95-.22-1.65-.66-2.09-.44-.44-1.1-.65-1.99-.65s-1.55.21-1.99.63c-.44.42-.66,1.07-.66,1.95Z"/>
        <path class="cls-8" d="m624.34,325.48c-1.17,0-2.07-.29-2.72-.87-.65-.58-.97-1.46-.97-2.65v-5.66h-3.01v-1.59h3.01v-3.54h1.77v3.54h4.6v1.59h-4.6v5.5c0,.68.17,1.19.51,1.52.34.33.85.5,1.52.5.45,0,.87-.03,1.25-.1.39-.06.76-.15,1.11-.26l.35,1.61c-.4.12-.83.21-1.28.29s-.97.12-1.55.12Z"/>
        <path class="cls-8" d="m633.66,325.49c-1.03,0-1.85-.33-2.48-1s-.95-1.54-.95-2.62v-7.16h1.77v6.81c0,.78.17,1.36.51,1.73s.87.57,1.57.57c.55,0,1.09-.15,1.62-.45s1.06-.77,1.6-1.41v-7.25h1.77v10.61h-1.77v-1.77h-.53c-.25.58-.66,1.05-1.23,1.41-.57.36-1.2.54-1.88.54Z"/>
        <path class="cls-8" d="m643.18,325.32v-10.61h1.77v1.77h.53c.25-.67.62-1.16,1.13-1.48.51-.31,1.12-.47,1.84-.47.79,0,1.45.26,1.98.79.53.52.8,1.26.8,2.22v1.59h-1.68v-.95c0-.67-.15-1.17-.45-1.48-.3-.32-.76-.48-1.37-.48-.55,0-1.06.14-1.51.41s-.88.7-1.26,1.27v7.42h-1.77Z"/>
        <path class="cls-8" d="m654.36,325.32v-10.61h1.77v1.77h.53c.26-.6.67-1.08,1.22-1.42.55-.35,1.18-.52,1.89-.52,1.06,0,1.9.32,2.51.97.61.65.92,1.53.92,2.65v7.16h-1.77v-6.81c0-.74-.18-1.31-.54-1.71-.36-.39-.88-.59-1.55-.59-.53,0-1.07.16-1.62.48-.55.32-1.08.78-1.6,1.38v7.25h-1.77Z"/>
        <path class="cls-5" d="m679.36,318.25l-.53-7.07h2.83l-.53,7.07h-1.77Zm5.3,0l-.53-7.07h2.83l-.53,7.07h-1.77Z"/>
        <path class="cls-5" d="m694.98,325.49c-.59,0-1.07-.13-1.43-.4-.37-.27-.55-.69-.55-1.26v-.49c0-.58.18-1,.55-1.28s.84-.42,1.43-.42,1.06.14,1.42.42c.36.28.54.7.54,1.28v.49c0,.58-.18,1-.55,1.26-.37.26-.84.4-1.41.4Z"/>
        <path class="cls-5" d="m707.04,325.49c-.59,0-1.07-.13-1.43-.4-.37-.27-.55-.69-.55-1.26v-.49c0-.58.18-1,.55-1.28s.84-.42,1.43-.42,1.06.14,1.42.42c.36.28.54.7.54,1.28v.49c0,.58-.18,1-.55,1.26-.37.26-.84.4-1.41.4Z"/>
        <path class="cls-5" d="m719.1,325.49c-.59,0-1.07-.13-1.43-.4-.37-.27-.55-.69-.55-1.26v-.49c0-.58.18-1,.55-1.28.37-.28.84-.42,1.43-.42s1.06.14,1.42.42c.36.28.54.7.54,1.28v.49c0,.58-.18,1-.55,1.26-.37.26-.84.4-1.41.4Z"/>
        <path class="cls-5" d="m727.61,318.25l-.53-7.07h2.83l-.53,7.07h-1.77Zm5.3,0l-.53-7.07h2.83l-.53,7.07h-1.77Z"/>
        <path class="cls-2" d="m740.56,328.85l1.59-7.07h3.52l-3.62,7.07h-1.48Zm2.67-10.43c-.59,0-1.07-.12-1.43-.36-.37-.24-.55-.62-.55-1.12v-.85c0-.52.18-.9.55-1.15.37-.25.84-.37,1.43-.37s1.06.12,1.42.37c.36.25.54.63.54,1.15v.85c0,.51-.18.88-.55,1.12-.37.24-.84.36-1.41.36Z"/>
      </g>
      <g>
        <path class="cls-6" d="m543.26,292.84h-2.12v3.71h-1.77v-3.71h-6.72v-1.59l5.92-8.84h2.56v8.84h2.12v1.59Zm-8.66-1.59h4.77v-7l-4.77,7Z"/>
        <path class="cls-4" d="m570.8,298.2l-.18-1.38c1.58-.44,2.74-1.35,3.48-2.75.74-1.4,1.11-3.03,1.11-4.89s-.37-3.49-1.11-4.89c-.74-1.4-1.9-2.31-3.48-2.75l.18-1.38c1.85.44,3.34,1.45,4.48,3.03,1.14,1.58,1.71,3.58,1.71,5.98s-.57,4.4-1.71,5.98c-1.14,1.59-2.63,2.6-4.48,3.03Z"/>
        <path class="cls-2" d="m586.42,287.59c-.59,0-1.07-.12-1.43-.36-.37-.24-.55-.62-.55-1.12v-.85c0-.52.18-.9.55-1.15.37-.25.84-.37,1.43-.37s1.06.12,1.42.37c.36.25.54.63.54,1.15v.85c0,.51-.18.88-.55,1.12-.37.24-.84.36-1.41.36Zm0,7.07c-.59,0-1.07-.12-1.43-.36s-.55-.62-.55-1.12v-.85c0-.52.18-.9.55-1.15s.84-.37,1.43-.37,1.06.12,1.42.37c.36.25.54.63.54,1.15v.85c0,.51-.18.88-.55,1.12-.37.24-.84.36-1.41.36Z"/>
        <path class="cls-11" d="m607.87,294.48h-1.77v-14.14h5.32c1.47,0,2.57.31,3.31.93s1.1,1.55,1.1,2.8v1.1c0,1.13-.29,2.02-.86,2.65-.57.64-1.44,1.01-2.61,1.13l3.62,5.53h-2.01l-3.59-5.48h-2.51v5.48Zm0-7.04h3.54c.95,0,1.64-.17,2.04-.52.41-.35.61-.93.61-1.76v-1.1c0-.78-.2-1.33-.61-1.65-.41-.32-1.09-.49-2.04-.49h-3.54v5.51Z"/>
        <path class="cls-11" d="m618.17,294.48v-1.59h3.54v-7.42h-3.54v-1.59h5.3v9.02h3.54v1.59h-8.84Zm4.42-12.55c-.45,0-.81-.07-1.09-.21-.28-.14-.42-.41-.42-.8v-.12c0-.4.14-.67.42-.82.28-.15.64-.22,1.09-.22s.81.07,1.09.22c.28.15.42.42.42.82v.12c0,.39-.14.65-.42.8s-.64.21-1.08.21Z"/>
        <path class="cls-11" d="m636.77,292.72c-.31.61-.73,1.09-1.27,1.43-.54.34-1.15.51-1.82.51-1.1,0-1.94-.35-2.55-1.06s-.9-1.7-.9-2.97v-2.88c0-1.28.4-2.28,1.2-2.99.8-.71,1.92-1.06,3.36-1.06.41,0,.84.04,1.27.13.44.09.85.21,1.24.36v-3.85h1.77v14.14h-1.77v-1.77h-.53Zm-2.65.27c.58,0,1.13-.15,1.64-.46.52-.31,1.03-.77,1.54-1.4v-5.2c-.37-.22-.75-.39-1.17-.5-.41-.11-.86-.17-1.33-.17-.95,0-1.66.21-2.12.63s-.69,1.05-.69,1.9v2.85c0,.79.18,1.38.53,1.77.35.39.88.58,1.59.58Z"/>
        <path class="cls-11" d="m651.17,292.15c-.32.88-.8,1.52-1.45,1.92-.65.39-1.64.59-2.99.59s-2.49-.34-3.27-1.02c-.78-.68-1.17-1.68-1.17-3.01v-2.85c0-1.37.41-2.39,1.23-3.07.82-.68,1.89-1.02,3.21-1.02s2.4.34,3.2,1.03c.8.69,1.2,1.75,1.2,3.17v1.63h-7.07v1.11c0,.88.22,1.52.66,1.92.44.39,1.11.59,1.99.59s1.47-.12,1.86-.35c.39-.24.68-.62.88-1.15l1.71.49Zm-7.11-4.37v.42h5.3v-.26c0-.95-.22-1.65-.66-2.09-.44-.44-1.1-.65-1.99-.65s-1.55.21-1.99.63c-.44.42-.66,1.07-.66,1.95Z"/>
        <path class="cls-11" d="m654.36,294.48v-14.14h9.19v1.59h-7.42v4.07h6.54v1.59h-6.54v5.3h7.42v1.59h-9.19Z"/>
        <path class="cls-11" d="m671.93,294.48h-2.21l-3.77-10.61h1.93l2.97,9.17,2.97-9.17h1.87l-3.77,10.61Z"/>
        <path class="cls-11" d="m687.35,292.15c-.32.88-.8,1.52-1.45,1.92-.65.39-1.64.59-2.99.59s-2.49-.34-3.27-1.02c-.78-.68-1.17-1.68-1.17-3.01v-2.85c0-1.37.41-2.39,1.23-3.07.82-.68,1.89-1.02,3.21-1.02s2.4.34,3.2,1.03c.8.69,1.2,1.75,1.2,3.17v1.63h-7.07v1.11c0,.88.22,1.52.66,1.92.44.39,1.11.59,1.99.59s1.47-.12,1.86-.35c.39-.24.68-.62.88-1.15l1.71.49Zm-7.11-4.37v.42h5.3v-.26c0-.95-.22-1.65-.66-2.09-.44-.44-1.1-.65-1.99-.65s-1.55.21-1.99.63c-.44.42-.66,1.07-.66,1.95Z"/>
        <path class="cls-11" d="m690.54,294.48v-10.61h1.77v1.77h.53c.26-.6.67-1.08,1.22-1.42.55-.35,1.18-.52,1.89-.52,1.06,0,1.9.32,2.51.97.61.65.92,1.53.92,2.65v7.16h-1.77v-6.81c0-.74-.18-1.31-.54-1.71-.36-.39-.88-.59-1.55-.59-.53,0-1.07.16-1.62.48-.55.32-1.08.78-1.6,1.38v7.25h-1.77Z"/>
        <path class="cls-11" d="m708.78,294.64c-1.17,0-2.07-.29-2.72-.87-.65-.58-.97-1.46-.97-2.65v-5.66h-3.01v-1.59h3.01v-3.54h1.77v3.54h4.6v1.59h-4.6v5.5c0,.68.17,1.19.51,1.52.34.33.85.5,1.52.5.45,0,.87-.03,1.25-.1.39-.06.76-.15,1.11-.26l.35,1.61c-.4.12-.83.21-1.28.29s-.97.12-1.55.12Z"/>
        <path class="cls-4" d="m716.44,298.02v-17.68h6.19v1.59h-4.42v14.71h4.42v1.38h-6.19Z"/>
        <path class="cls-4" d="m727.61,298.02v-1.38h4.42v-14.71h-4.42v-1.59h6.19v17.68h-6.19Z"/>
        <path class="cls-2" d="m754.48,298.02v-17.68h1.59v17.68h-1.59Z"/>
        <path class="cls-11" d="m776.75,294.48h-1.77v-14.14h5.32c1.47,0,2.57.31,3.31.93s1.1,1.55,1.1,2.8v1.1c0,1.13-.29,2.02-.86,2.65-.57.64-1.44,1.01-2.61,1.13l3.62,5.53h-2.01l-3.59-5.48h-2.51v5.48Zm0-7.04h3.54c.95,0,1.64-.17,2.04-.52.41-.35.61-.93.61-1.76v-1.1c0-.78-.2-1.33-.61-1.65-.41-.32-1.09-.49-2.04-.49h-3.54v5.51Z"/>
        <path class="cls-11" d="m787.04,294.48v-1.59h3.54v-7.42h-3.54v-1.59h5.3v9.02h3.54v1.59h-8.84Zm4.42-12.55c-.45,0-.81-.07-1.09-.21-.28-.14-.42-.41-.42-.8v-.12c0-.4.14-.67.42-.82.28-.15.64-.22,1.09-.22s.81.07,1.09.22c.28.15.42.42.42.82v.12c0,.39-.14.65-.42.8s-.64.21-1.08.21Z"/>
        <path class="cls-11" d="m805.65,292.72c-.31.61-.73,1.09-1.27,1.43-.54.34-1.15.51-1.82.51-1.1,0-1.94-.35-2.55-1.06-.6-.71-.9-1.7-.9-2.97v-2.88c0-1.28.4-2.28,1.2-2.99.8-.71,1.92-1.06,3.36-1.06.41,0,.84.04,1.27.13.44.09.85.21,1.24.36v-3.85h1.77v14.14h-1.77v-1.77h-.53Zm-2.65.27c.58,0,1.13-.15,1.64-.46.52-.31,1.03-.77,1.54-1.4v-5.2c-.37-.22-.75-.39-1.17-.5-.41-.11-.86-.17-1.33-.17-.95,0-1.66.21-2.12.63s-.69,1.05-.69,1.9v2.85c0,.79.18,1.38.53,1.77.35.39.88.58,1.59.58Z"/>
        <path class="cls-11" d="m820.04,292.15c-.32.88-.8,1.52-1.45,1.92-.65.39-1.64.59-2.99.59s-2.49-.34-3.27-1.02c-.78-.68-1.17-1.68-1.17-3.01v-2.85c0-1.37.41-2.39,1.23-3.07.82-.68,1.89-1.02,3.21-1.02s2.4.34,3.2,1.03c.8.69,1.2,1.75,1.2,3.17v1.63h-7.07v1.11c0,.88.22,1.52.66,1.92.44.39,1.11.59,1.99.59s1.47-.12,1.86-.35c.39-.24.68-.62.88-1.15l1.71.49Zm-7.11-4.37v.42h5.3v-.26c0-.95-.22-1.65-.66-2.09-.44-.44-1.1-.65-1.99-.65s-1.55.21-1.99.63c-.44.42-.66,1.07-.66,1.95Z"/>
        <path class="cls-11" d="m823.23,294.48v-14.14h9.19v1.59h-7.42v4.07h6.54v1.59h-6.54v5.3h7.42v1.59h-9.19Z"/>
        <path class="cls-11" d="m836.18,294.48v-10.61h1.77v1.77h.53c.25-.67.62-1.16,1.13-1.48.51-.31,1.12-.47,1.84-.47.79,0,1.45.26,1.98.79.53.52.8,1.26.8,2.22v1.59h-1.68v-.95c0-.67-.15-1.17-.45-1.48-.3-.32-.76-.48-1.37-.48-.55,0-1.06.14-1.51.41s-.88.7-1.26,1.27v7.42h-1.77Z"/>
        <path class="cls-11" d="m848.24,294.48v-10.61h1.77v1.77h.53c.25-.67.62-1.16,1.13-1.48.51-.31,1.12-.47,1.84-.47.79,0,1.45.26,1.98.79.53.52.8,1.26.8,2.22v1.59h-1.68v-.95c0-.67-.15-1.17-.45-1.48-.3-.32-.76-.48-1.37-.48-.55,0-1.06.14-1.51.41s-.88.7-1.26,1.27v7.42h-1.77Z"/>
        <path class="cls-11" d="m863.84,294.66c-1.43,0-2.52-.35-3.28-1.03-.76-.69-1.14-1.68-1.14-2.98v-2.86c0-1.31.38-2.32,1.15-3.02s1.86-1.06,3.29-1.06,2.5.35,3.26,1.06,1.14,1.71,1.14,3.02v2.86c0,1.3-.38,2.29-1.14,2.98-.76.69-1.85,1.03-3.28,1.03Zm0-1.59c.9,0,1.56-.2,2-.6.44-.4.65-1.01.65-1.82v-2.86c0-.85-.22-1.48-.65-1.88-.44-.41-1.1-.61-2-.61s-1.56.2-2,.61c-.44.41-.65,1.03-.65,1.88v2.86c0,.81.22,1.42.65,1.82.44.4,1.1.6,2,.6Z"/>
        <path class="cls-11" d="m872.36,294.48v-10.61h1.77v1.77h.53c.25-.67.62-1.16,1.13-1.48.51-.31,1.12-.47,1.84-.47.79,0,1.45.26,1.98.79.53.52.8,1.26.8,2.22v1.59h-1.68v-.95c0-.67-.15-1.17-.45-1.48-.3-.32-.76-.48-1.37-.48-.55,0-1.06.14-1.51.41s-.88.7-1.26,1.27v7.42h-1.77Z"/>
        <path class="cls-4" d="m903.56,298.2c-2.47.05-4.27-.17-5.39-.66-1.12-.49-1.68-1.25-1.68-2.27,0-.59.12-1.08.36-1.48s.5-.75.79-1.04c.29-.29.56-.57.8-.83.24-.26.35-.54.35-.83,0-.55-.29-.95-.88-1.18-.59-.23-1.65-.36-3.18-.4v-1.06c1.53-.04,2.59-.16,3.18-.39.59-.22.88-.61.88-1.15,0-.29-.12-.54-.35-.75-.24-.21-.5-.44-.8-.7-.28-.26-.55-.57-.79-.94s-.36-.85-.36-1.45c0-1,.56-1.75,1.68-2.24,1.12-.49,2.92-.71,5.39-.66v1.59c-1.99-.04-3.37.07-4.14.32-.77.25-1.16.65-1.16,1.2,0,.24.09.48.26.72s.47.57.91.97c.42.39.72.72.88,1s.25.58.25.91c0,.66-.29,1.16-.88,1.49s-1.42.53-2.52.57v.09c1.1.12,1.94.37,2.52.74.58.38.88.91.88,1.59,0,.29-.09.58-.27.85-.18.27-.49.61-.94,1.02-.41.35-.7.66-.86.91-.16.25-.24.55-.24.88,0,.59.39,1.01,1.16,1.27.77.26,2.15.37,4.14.34v1.56Z"/>
      </g>
      <g>
        <path class="cls-6" d="m537.43,265.89c-1.81,0-3.04-.34-3.69-1.01-.64-.67-1.01-1.67-1.09-3.01l1.77-.18c.12,1.06.37,1.76.76,2.11.39.35,1.14.52,2.25.52,1.18,0,2-.18,2.47-.55s.71-1,.71-1.91v-.48c0-.88-.22-1.51-.67-1.86-.45-.36-1.23-.54-2.33-.54h-1.77v-1.59h1.77c.98,0,1.66-.14,2.06-.42s.59-.76.59-1.46v-.57c0-.74-.21-1.26-.63-1.56s-1.15-.45-2.2-.45c-.92,0-1.57.16-1.94.49-.38.33-.61.95-.71,1.87l-1.77-.18c.08-1.33.49-2.29,1.21-2.87.72-.58,1.79-.88,3.21-.88s2.55.28,3.37.83c.82.55,1.23,1.47,1.23,2.74v.57c0,.71-.24,1.27-.73,1.68-.49.41-1.17.65-2.04.71v.51c1.05.08,1.83.41,2.35.97.52.57.78,1.23.78,2v.48c0,1.27-.37,2.26-1.11,2.96-.74.7-2.02,1.05-3.84,1.05Z"/>
        <path class="cls-10" d="m598.6,263.83c-.9,0-1.76-.13-2.6-.4-.84-.27-1.61-.67-2.32-1.23l.8-1.4c.58.47,1.22.83,1.94,1.07s1.44.36,2.18.36c.61,0,1.2-.09,1.76-.28.56-.19.84-.59.84-1.2,0-.5-.23-.86-.69-1.07s-1.3-.39-2.53-.54c-1.3-.15-2.28-.46-2.94-.91-.67-.45-1-1.17-1-2.15,0-1.06.4-1.86,1.2-2.4.8-.54,1.73-.81,2.79-.81.84,0,1.64.14,2.41.42.77.28,1.49.68,2.15,1.2l-.8,1.4c-.54-.44-1.13-.78-1.77-1.04-.64-.26-1.3-.39-2-.39-.57,0-1.08.11-1.55.32-.47.21-.7.6-.7,1.17,0,.48.21.83.65,1.05s1.26.4,2.48.56c1.34.15,2.35.48,3.02.98s1.01,1.2,1.01,2.09c0,1.11-.45,1.92-1.34,2.43-.9.51-1.9.77-3.01.77Z"/>
        <path class="cls-10" d="m612.28,263.81c-1.17,0-2.07-.29-2.72-.87-.65-.58-.97-1.46-.97-2.65v-5.66h-3.01v-1.59h3.01v-3.54h1.77v3.54h4.6v1.59h-4.6v5.5c0,.68.17,1.19.51,1.52.34.33.85.5,1.52.5.45,0,.87-.03,1.25-.1.39-.06.76-.15,1.11-.26l.35,1.61c-.4.12-.83.21-1.28.29s-.97.12-1.55.12Z"/>
        <path class="cls-10" d="m621.09,263.83c-.9,0-1.69-.24-2.4-.72-.7-.48-1.05-1.25-1.05-2.31,0-.93.3-1.66.91-2.19.61-.53,1.32-.8,2.13-.8h3.68v-1.52c0-.57-.19-1.01-.57-1.34s-.95-.5-1.71-.5-1.36.12-1.74.35c-.38.23-.69.74-.91,1.53l-1.56-.42c.2-1,.65-1.76,1.35-2.27.7-.51,1.64-.77,2.82-.77s2.14.26,2.92.79c.78.53,1.17,1.34,1.17,2.43v4.75c0,.64.18,1.04.53,1.2.35.16.88.18,1.59.06v1.61c-.73.11-1.42.06-2.06-.15s-.99-.76-1.05-1.67h-.35c-.33.54-.83,1-1.48,1.38-.66.38-1.4.57-2.21.57Zm.23-1.5c.61,0,1.18-.11,1.7-.33.52-.22.97-.6,1.34-1.15v-1.71h-3.18c-.51,0-.93.12-1.26.35-.34.23-.5.64-.5,1.22,0,.51.14.91.43,1.19.29.28.78.43,1.48.43Z"/>
        <path class="cls-10" d="m636.4,263.81c-1.17,0-2.07-.29-2.72-.87-.65-.58-.97-1.46-.97-2.65v-5.66h-3.01v-1.59h3.01v-3.54h1.77v3.54h4.6v1.59h-4.6v5.5c0,.68.17,1.19.51,1.52.34.33.85.5,1.52.5.45,0,.87-.03,1.25-.1.39-.06.76-.15,1.11-.26l.35,1.61c-.4.12-.83.21-1.28.29s-.97.12-1.55.12Z"/>
        <path class="cls-10" d="m651.17,261.32c-.32.88-.8,1.52-1.45,1.92-.65.39-1.64.59-2.99.59s-2.49-.34-3.27-1.02c-.78-.68-1.17-1.68-1.17-3.01v-2.85c0-1.37.41-2.39,1.23-3.07.82-.68,1.89-1.02,3.21-1.02s2.4.34,3.2,1.03c.8.69,1.2,1.75,1.2,3.17v1.63h-7.07v1.11c0,.88.22,1.52.66,1.92.44.39,1.11.59,1.99.59s1.47-.12,1.86-.35c.39-.24.68-.62.88-1.15l1.71.49Zm-7.11-4.37v.42h5.3v-.26c0-.95-.22-1.65-.66-2.09-.44-.44-1.1-.65-1.99-.65s-1.55.21-1.99.63c-.44.42-.66,1.07-.66,1.95Z"/>
        <path class="cls-2" d="m658.79,256.76c-.59,0-1.07-.12-1.43-.36-.37-.24-.55-.62-.55-1.12v-.85c0-.52.18-.9.55-1.15.37-.25.84-.37,1.43-.37s1.06.12,1.42.37c.36.25.54.63.54,1.15v.85c0,.51-.18.88-.55,1.12-.37.24-.84.36-1.41.36Zm0,7.07c-.59,0-1.07-.12-1.43-.36s-.55-.62-.55-1.12v-.85c0-.52.18-.9.55-1.15s.84-.37,1.43-.37,1.06.12,1.42.37c.36.25.54.63.54,1.15v.85c0,.51-.18.88-.55,1.12-.37.24-.84.36-1.41.36Z"/>
        <path class="cls-11" d="m680.25,263.65h-1.77v-14.14h5.32c1.47,0,2.57.31,3.31.93s1.1,1.55,1.1,2.8v1.1c0,1.13-.29,2.02-.86,2.65-.57.64-1.44,1.01-2.61,1.13l3.62,5.53h-2.01l-3.59-5.48h-2.51v5.48Zm0-7.04h3.54c.95,0,1.64-.17,2.04-.52.41-.35.61-.93.61-1.76v-1.1c0-.78-.2-1.33-.61-1.65-.41-.32-1.09-.49-2.04-.49h-3.54v5.51Z"/>
        <path class="cls-11" d="m690.54,263.65v-1.59h3.54v-7.42h-3.54v-1.59h5.3v9.02h3.54v1.59h-8.84Zm4.42-12.55c-.45,0-.81-.07-1.09-.21-.28-.14-.42-.41-.42-.8v-.12c0-.4.14-.67.42-.82.28-.15.64-.22,1.09-.22s.81.07,1.09.22c.28.15.42.42.42.82v.12c0,.39-.14.65-.42.8s-.64.21-1.08.21Z"/>
        <path class="cls-11" d="m709.15,261.88c-.31.61-.73,1.09-1.27,1.43-.54.34-1.15.51-1.82.51-1.1,0-1.94-.35-2.55-1.06s-.9-1.7-.9-2.97v-2.88c0-1.28.4-2.28,1.2-2.99.8-.71,1.92-1.06,3.36-1.06.41,0,.84.04,1.27.13.44.09.85.21,1.24.36v-3.85h1.77v14.14h-1.77v-1.77h-.53Zm-2.65.27c.58,0,1.13-.15,1.64-.46.52-.31,1.03-.77,1.54-1.4v-5.2c-.37-.22-.75-.39-1.17-.5-.41-.11-.86-.17-1.33-.17-.95,0-1.66.21-2.12.63s-.69,1.05-.69,1.9v2.85c0,.79.18,1.38.53,1.77.35.39.88.58,1.59.58Z"/>
        <path class="cls-11" d="m723.54,261.32c-.32.88-.8,1.52-1.45,1.92-.65.39-1.64.59-2.99.59s-2.49-.34-3.27-1.02c-.78-.68-1.17-1.68-1.17-3.01v-2.85c0-1.37.41-2.39,1.23-3.07.82-.68,1.89-1.02,3.21-1.02s2.4.34,3.2,1.03c.8.69,1.2,1.75,1.2,3.17v1.63h-7.07v1.11c0,.88.22,1.52.66,1.92.44.39,1.11.59,1.99.59s1.47-.12,1.86-.35c.39-.24.68-.62.88-1.15l1.71.49Zm-7.11-4.37v.42h5.3v-.26c0-.95-.22-1.65-.66-2.09-.44-.44-1.1-.65-1.99-.65s-1.55.21-1.99.63c-.44.42-.66,1.07-.66,1.95Z"/>
        <path class="cls-11" d="m728.5,263.65h-1.77v-14.14h5.32c1.47,0,2.57.31,3.31.93s1.1,1.55,1.1,2.8v1.1c0,1.13-.29,2.02-.86,2.65-.57.64-1.44,1.01-2.61,1.13l3.62,5.53h-2.01l-3.59-5.48h-2.51v5.48Zm0-7.04h3.54c.95,0,1.64-.17,2.04-.52.41-.35.61-.93.61-1.76v-1.1c0-.78-.2-1.33-.61-1.65-.41-.32-1.09-.49-2.04-.49h-3.54v5.51Z"/>
        <path class="cls-11" d="m747.67,261.32c-.32.88-.8,1.52-1.45,1.92-.65.39-1.64.59-2.99.59s-2.49-.34-3.27-1.02c-.78-.68-1.17-1.68-1.17-3.01v-2.85c0-1.37.41-2.39,1.23-3.07.82-.68,1.89-1.02,3.21-1.02s2.4.34,3.2,1.03c.8.69,1.2,1.75,1.2,3.17v1.63h-7.07v1.11c0,.88.22,1.52.66,1.92.44.39,1.11.59,1.99.59s1.47-.12,1.86-.35c.39-.24.68-.62.88-1.15l1.71.49Zm-7.11-4.37v.42h5.3v-.26c0-.95-.22-1.65-.66-2.09-.44-.44-1.1-.65-1.99-.65s-1.55.21-1.99.63c-.44.42-.66,1.07-.66,1.95Z"/>
        <path class="cls-11" d="m753.77,263.83c-.9,0-1.69-.24-2.4-.72-.7-.48-1.05-1.25-1.05-2.31,0-.93.3-1.66.91-2.19.61-.53,1.32-.8,2.13-.8h3.68v-1.52c0-.57-.19-1.01-.57-1.34s-.95-.5-1.71-.5-1.36.12-1.74.35c-.38.23-.69.74-.91,1.53l-1.56-.42c.2-1,.65-1.76,1.35-2.27.7-.51,1.64-.77,2.82-.77s2.14.26,2.92.79c.78.53,1.17,1.34,1.17,2.43v4.75c0,.64.18,1.04.53,1.2.35.16.88.18,1.59.06v1.61c-.73.11-1.42.06-2.06-.15s-.99-.76-1.05-1.67h-.35c-.33.54-.83,1-1.48,1.38-.66.38-1.4.57-2.21.57Zm.23-1.5c.61,0,1.18-.11,1.7-.33.52-.22.97-.6,1.34-1.15v-1.71h-3.18c-.51,0-.93.12-1.26.35-.34.23-.5.64-.5,1.22,0,.51.14.91.43,1.19.29.28.78.43,1.48.43Z"/>
        <path class="cls-11" d="m769.46,261.88c-.31.61-.73,1.09-1.27,1.43-.54.34-1.15.51-1.82.51-1.1,0-1.94-.35-2.55-1.06s-.9-1.7-.9-2.97v-2.88c0-1.28.4-2.28,1.2-2.99.8-.71,1.92-1.06,3.36-1.06.41,0,.84.04,1.27.13.44.09.85.21,1.24.36v-3.85h1.77v14.14h-1.77v-1.77h-.53Zm-2.65.27c.58,0,1.13-.15,1.64-.46.52-.31,1.03-.77,1.54-1.4v-5.2c-.37-.22-.75-.39-1.17-.5-.41-.11-.86-.17-1.33-.17-.95,0-1.66.21-2.12.63s-.69,1.05-.69,1.9v2.85c0,.79.18,1.38.53,1.77.35.39.88.58,1.59.58Z"/>
        <path class="cls-11" d="m778.55,260.11l-2.51-7.76v11.3h-1.59v-14.14h2.39l2.62,8.5,2.6-8.5h2.3v14.14h-1.59v-11.31l-2.51,7.78h-1.7Z"/>
        <path class="cls-11" d="m791.46,263.83c-1.43,0-2.52-.35-3.28-1.03-.76-.69-1.14-1.68-1.14-2.98v-2.86c0-1.31.38-2.32,1.15-3.02s1.86-1.06,3.29-1.06,2.5.35,3.26,1.06,1.14,1.71,1.14,3.02v2.86c0,1.3-.38,2.29-1.14,2.98-.76.69-1.85,1.03-3.28,1.03Zm0-1.59c.9,0,1.56-.2,2-.6.44-.4.65-1.01.65-1.82v-2.86c0-.85-.22-1.48-.65-1.88-.44-.41-1.1-.61-2-.61s-1.56.2-2,.61c-.44.41-.65,1.03-.65,1.88v2.86c0,.81.22,1.42.65,1.82.44.4,1.1.6,2,.6Z"/>
        <path class="cls-11" d="m805.65,261.88c-.31.61-.73,1.09-1.27,1.43-.54.34-1.15.51-1.82.51-1.1,0-1.94-.35-2.55-1.06-.6-.71-.9-1.7-.9-2.97v-2.88c0-1.28.4-2.28,1.2-2.99.8-.71,1.92-1.06,3.36-1.06.41,0,.84.04,1.27.13.44.09.85.21,1.24.36v-3.85h1.77v14.14h-1.77v-1.77h-.53Zm-2.65.27c.58,0,1.13-.15,1.64-.46.52-.31,1.03-.77,1.54-1.4v-5.2c-.37-.22-.75-.39-1.17-.5-.41-.11-.86-.17-1.33-.17-.95,0-1.66.21-2.12.63s-.69,1.05-.69,1.9v2.85c0,.79.18,1.38.53,1.77.35.39.88.58,1.59.58Z"/>
        <path class="cls-11" d="m820.04,261.32c-.32.88-.8,1.52-1.45,1.92-.65.39-1.64.59-2.99.59s-2.49-.34-3.27-1.02c-.78-.68-1.17-1.68-1.17-3.01v-2.85c0-1.37.41-2.39,1.23-3.07.82-.68,1.89-1.02,3.21-1.02s2.4.34,3.2,1.03c.8.69,1.2,1.75,1.2,3.17v1.63h-7.07v1.11c0,.88.22,1.52.66,1.92.44.39,1.11.59,1.99.59s1.47-.12,1.86-.35c.39-.24.68-.62.88-1.15l1.71.49Zm-7.11-4.37v.42h5.3v-.26c0-.95-.22-1.65-.66-2.09-.44-.44-1.1-.65-1.99-.65s-1.55.21-1.99.63c-.44.42-.66,1.07-.66,1.95Z"/>
        <path class="cls-11" d="m823.23,263.65v-1.59h3.54v-10.96h-3.54v-1.59h5.3v12.55h3.54v1.59h-8.84Z"/>
      </g>
      <g>
        <path class="cls-6" d="m532.84,234.88v-3.01c0-1.07.26-1.92.78-2.55.52-.62,1.37-1.11,2.56-1.47l2.4-.71c.67-.19,1.15-.43,1.43-.72.28-.29.42-.74.42-1.33v-.72c0-.81-.2-1.39-.59-1.72s-1.14-.5-2.24-.5c-1,0-1.7.21-2.09.63-.39.42-.64,1.22-.73,2.4l-1.77-.18c.09-1.61.49-2.76,1.18-3.43s1.82-1.01,3.4-1.01,2.7.3,3.46.9c.77.6,1.15,1.51,1.15,2.74v1.17c0,.88-.25,1.59-.76,2.12-.51.53-1.34.97-2.51,1.31l-2.42.71c-.58.17-1.04.4-1.39.72-.35.31-.52.85-.52,1.62v1.45h7.78v1.59h-9.55Z"/>
        <path class="cls-10" d="m598.71,232.99c-1.54,0-2.71-.34-3.49-1.02-.78-.68-1.18-1.68-1.18-3v-2.86c0-1.34.39-2.36,1.18-3.05.78-.69,1.94-1.03,3.47-1.03,1.37,0,2.42.31,3.16.93.74.62,1.15,1.52,1.23,2.71l-1.73.11c-.05-.73-.29-1.27-.72-1.63-.44-.35-1.08-.53-1.94-.53-.97,0-1.69.2-2.16.61-.47.41-.71,1.03-.71,1.88v2.86c0,.81.24,1.42.72,1.82.48.4,1.2.6,2.18.6.85,0,1.49-.15,1.93-.45s.67-.75.71-1.35l1.73.11c-.08,1.08-.49,1.9-1.22,2.46s-1.78.83-3.15.83Z"/>
        <path class="cls-10" d="m610.53,232.99c-1.43,0-2.52-.35-3.28-1.03-.76-.69-1.14-1.68-1.14-2.98v-2.86c0-1.31.38-2.32,1.15-3.02.77-.71,1.86-1.06,3.29-1.06s2.5.35,3.26,1.06c.76.71,1.14,1.71,1.14,3.02v2.86c0,1.3-.38,2.29-1.14,2.98-.76.69-1.85,1.03-3.28,1.03Zm0-1.59c.9,0,1.56-.2,2-.6.44-.4.65-1.01.65-1.82v-2.86c0-.85-.22-1.48-.65-1.88-.44-.41-1.1-.61-2-.61s-1.56.2-2,.61c-.44.41-.65,1.03-.65,1.88v2.86c0,.81.22,1.42.65,1.82.44.4,1.1.6,2,.6Z"/>
        <path class="cls-10" d="m619.09,225.22v7.6h-1.63v-10.61h1.63v1.41h.35c.22-.49.52-.88.88-1.17.37-.28.75-.42,1.15-.42.46,0,.85.14,1.16.42.31.28.53.67.65,1.18h.39c.22-.49.53-.88.91-1.17.38-.28.79-.42,1.23-.42.59,0,1.05.24,1.4.72.34.48.51,1.12.51,1.94v8.13h-1.63v-7.85c0-.53-.07-.93-.21-1.2s-.35-.41-.62-.41c-.22,0-.5.17-.84.5s-.67.78-1.02,1.36v7.6h-1.63v-7.85c0-.53-.07-.93-.22-1.2-.15-.27-.36-.41-.63-.41-.24,0-.51.16-.82.48-.31.32-.65.78-1.02,1.38Z"/>
        <path class="cls-10" d="m631.15,225.22v7.6h-1.63v-10.61h1.63v1.41h.35c.22-.49.52-.88.88-1.17.37-.28.75-.42,1.15-.42.46,0,.85.14,1.16.42.31.28.53.67.65,1.18h.39c.22-.49.53-.88.91-1.17.38-.28.79-.42,1.23-.42.59,0,1.05.24,1.4.72.34.48.51,1.12.51,1.94v8.13h-1.63v-7.85c0-.53-.07-.93-.21-1.2s-.35-.41-.62-.41c-.22,0-.5.17-.84.5s-.67.78-1.02,1.36v7.6h-1.63v-7.85c0-.53-.07-.93-.22-1.2-.15-.27-.36-.41-.63-.41-.24,0-.51.16-.82.48-.31.32-.65.78-1.02,1.38Z"/>
        <path class="cls-10" d="m645.21,232.99c-.9,0-1.69-.24-2.4-.72s-1.05-1.25-1.05-2.31c0-.93.3-1.66.91-2.19.61-.53,1.32-.8,2.13-.8h3.68v-1.52c0-.57-.19-1.01-.57-1.34-.38-.33-.95-.49-1.71-.49s-1.36.12-1.74.35c-.38.23-.69.74-.91,1.53l-1.56-.42c.2-1,.65-1.76,1.35-2.27.7-.51,1.64-.77,2.82-.77s2.14.26,2.92.79c.78.53,1.17,1.34,1.17,2.43v4.75c0,.64.18,1.04.53,1.2.35.16.88.18,1.59.06v1.61c-.73.11-1.42.06-2.06-.15-.64-.21-.99-.76-1.05-1.67h-.35c-.33.54-.83,1-1.48,1.38-.66.38-1.4.57-2.21.57Zm.23-1.5c.61,0,1.18-.11,1.7-.33.52-.22.97-.6,1.34-1.15v-1.71h-3.18c-.51,0-.93.12-1.26.35-.34.23-.5.64-.5,1.22,0,.51.14.91.43,1.19s.78.43,1.48.43Z"/>
        <path class="cls-10" d="m654.36,232.82v-10.61h1.77v1.77h.53c.26-.6.67-1.08,1.22-1.42.55-.35,1.18-.52,1.89-.52,1.06,0,1.9.32,2.51.97.61.65.92,1.53.92,2.65v7.16h-1.77v-6.81c0-.74-.18-1.31-.54-1.71-.36-.39-.88-.59-1.55-.59-.53,0-1.07.16-1.62.48-.55.32-1.08.78-1.6,1.38v7.25h-1.77Z"/>
        <path class="cls-10" d="m672.96,231.05c-.31.61-.73,1.09-1.27,1.43-.54.34-1.15.51-1.82.51-1.1,0-1.94-.35-2.55-1.06-.6-.71-.9-1.7-.9-2.97v-2.88c0-1.28.4-2.28,1.2-2.99.8-.71,1.92-1.06,3.36-1.06.41,0,.84.04,1.27.13s.85.21,1.24.36v-3.85h1.77v14.14h-1.77v-1.77h-.53Zm-2.65.26c.58,0,1.13-.15,1.64-.46.52-.31,1.03-.77,1.54-1.4v-5.2c-.37-.22-.75-.39-1.17-.5-.41-.11-.86-.17-1.33-.17-.95,0-1.66.21-2.12.63s-.69,1.05-.69,1.9v2.85c0,.79.18,1.38.53,1.77.35.39.88.58,1.59.58Z"/>
        <path class="cls-2" d="m682.92,225.92c-.59,0-1.07-.12-1.43-.36s-.55-.62-.55-1.12v-.85c0-.52.18-.9.55-1.15s.84-.37,1.43-.37,1.06.12,1.42.37c.36.25.54.63.54,1.15v.85c0,.51-.18.88-.55,1.12-.37.24-.84.36-1.41.36Zm0,7.07c-.59,0-1.07-.12-1.43-.36s-.55-.62-.55-1.12v-.85c0-.52.18-.9.55-1.15s.84-.37,1.43-.37,1.06.12,1.42.37c.36.25.54.63.54,1.15v.85c0,.51-.18.88-.55,1.12-.37.24-.84.36-1.41.36Z"/>
        <path class="cls-11" d="m704.37,232.82h-1.77v-14.14h5.32c1.47,0,2.57.31,3.31.93.73.62,1.1,1.55,1.1,2.8v1.1c0,1.13-.29,2.01-.86,2.65-.57.64-1.44,1.01-2.61,1.13l3.62,5.53h-2.01l-3.59-5.48h-2.51v5.48Zm0-7.04h3.54c.95,0,1.64-.17,2.04-.52.41-.35.61-.93.61-1.76v-1.1c0-.78-.2-1.33-.61-1.65-.41-.32-1.09-.49-2.04-.49h-3.54v5.51Z"/>
        <path class="cls-11" d="m714.67,232.82v-1.59h3.54v-7.42h-3.54v-1.59h5.3v9.01h3.54v1.59h-8.84Zm4.42-12.55c-.45,0-.81-.07-1.09-.21-.28-.14-.42-.41-.42-.8v-.12c0-.4.14-.67.42-.82.28-.15.64-.22,1.09-.22s.81.07,1.09.22c.28.15.42.42.42.82v.12c0,.39-.14.65-.42.8-.28.14-.64.21-1.08.21Z"/>
        <path class="cls-11" d="m733.27,231.05c-.31.61-.73,1.09-1.27,1.43-.54.34-1.15.51-1.82.51-1.1,0-1.94-.35-2.55-1.06-.6-.71-.9-1.7-.9-2.97v-2.88c0-1.28.4-2.28,1.2-2.99.8-.71,1.92-1.06,3.36-1.06.41,0,.84.04,1.27.13s.85.21,1.24.36v-3.85h1.77v14.14h-1.77v-1.77h-.53Zm-2.65.26c.58,0,1.13-.15,1.64-.46.52-.31,1.03-.77,1.54-1.4v-5.2c-.37-.22-.75-.39-1.17-.5-.41-.11-.86-.17-1.33-.17-.95,0-1.66.21-2.12.63s-.69,1.05-.69,1.9v2.85c0,.79.18,1.38.53,1.77.35.39.88.58,1.59.58Z"/>
        <path class="cls-11" d="m747.67,230.48c-.32.88-.8,1.52-1.45,1.92-.65.39-1.64.59-2.99.59s-2.49-.34-3.27-1.02c-.78-.68-1.17-1.68-1.17-3.01v-2.85c0-1.37.41-2.39,1.23-3.07.82-.68,1.89-1.02,3.21-1.02s2.4.34,3.2,1.03c.8.69,1.2,1.75,1.2,3.17v1.63h-7.07v1.11c0,.88.22,1.52.66,1.92.44.39,1.11.59,1.99.59s1.47-.12,1.86-.35c.39-.24.68-.62.88-1.15l1.71.49Zm-7.11-4.37v.42h5.3v-.27c0-.95-.22-1.65-.66-2.09-.44-.44-1.1-.65-1.99-.65s-1.55.21-1.99.63c-.44.42-.66,1.07-.66,1.95Z"/>
        <path class="cls-11" d="m755.45,232.99c-1.65,0-2.89-.42-3.71-1.26s-1.24-2.11-1.24-3.81v-4.28c0-1.72.41-3.01,1.24-3.86s2.07-1.28,3.73-1.28,2.83.38,3.61,1.14c.78.76,1.22,1.98,1.32,3.65l-1.77.18c-.12-1.27-.4-2.15-.86-2.64-.45-.49-1.23-.73-2.32-.73-1.17,0-1.99.27-2.47.8-.48.54-.72,1.45-.72,2.75v4.28c0,1.27.24,2.17.72,2.7.48.52,1.3.79,2.47.79,1.1,0,1.87-.24,2.32-.72.45-.48.74-1.34.86-2.59l1.77.18c-.09,1.65-.53,2.85-1.32,3.6-.78.75-1.99,1.12-3.63,1.12Z"/>
        <path class="cls-11" d="m767.34,232.99c-1.43,0-2.52-.35-3.28-1.03-.76-.69-1.14-1.68-1.14-2.98v-2.86c0-1.31.38-2.32,1.15-3.02.77-.71,1.86-1.06,3.29-1.06s2.5.35,3.26,1.06c.76.71,1.14,1.71,1.14,3.02v2.86c0,1.3-.38,2.29-1.14,2.98-.76.69-1.85,1.03-3.28,1.03Zm0-1.59c.9,0,1.56-.2,2-.6.44-.4.65-1.01.65-1.82v-2.86c0-.85-.22-1.48-.65-1.88-.44-.41-1.1-.61-2-.61s-1.56.2-2,.61c-.44.41-.65,1.03-.65,1.88v2.86c0,.81.22,1.42.65,1.82.44.4,1.1.6,2,.6Z"/>
        <path class="cls-11" d="m775.9,225.22v7.6h-1.63v-10.61h1.63v1.41h.35c.22-.49.52-.88.88-1.17.37-.28.75-.42,1.15-.42.46,0,.85.14,1.16.42.31.28.53.67.65,1.18h.39c.22-.49.53-.88.91-1.17.38-.28.79-.42,1.23-.42.59,0,1.05.24,1.4.72.34.48.51,1.12.51,1.94v8.13h-1.63v-7.85c0-.53-.07-.93-.21-1.2s-.35-.41-.62-.41c-.22,0-.5.17-.84.5s-.67.78-1.02,1.36v7.6h-1.63v-7.85c0-.53-.07-.93-.22-1.2-.15-.27-.36-.41-.63-.41-.24,0-.51.16-.82.48-.31.32-.65.78-1.02,1.38Z"/>
        <path class="cls-11" d="m787.96,225.22v7.6h-1.63v-10.61h1.63v1.41h.35c.22-.49.52-.88.88-1.17.37-.28.75-.42,1.15-.42.46,0,.85.14,1.16.42.31.28.53.67.65,1.18h.39c.22-.49.53-.88.91-1.17.38-.28.79-.42,1.23-.42.59,0,1.05.24,1.4.72.34.48.51,1.12.51,1.94v8.13h-1.63v-7.85c0-.53-.07-.93-.21-1.2s-.35-.41-.62-.41c-.22,0-.5.17-.84.5s-.67.78-1.02,1.36v7.6h-1.63v-7.85c0-.53-.07-.93-.22-1.2-.15-.27-.36-.41-.63-.41-.24,0-.51.16-.82.48-.31.32-.65.78-1.02,1.38Z"/>
        <path class="cls-11" d="m802.02,232.99c-.9,0-1.69-.24-2.4-.72s-1.05-1.25-1.05-2.31c0-.93.3-1.66.91-2.19.61-.53,1.32-.8,2.13-.8h3.68v-1.52c0-.57-.19-1.01-.57-1.34-.38-.33-.95-.49-1.71-.49s-1.36.12-1.74.35c-.38.23-.69.74-.91,1.53l-1.56-.42c.2-1,.65-1.76,1.35-2.27.7-.51,1.64-.77,2.82-.77s2.14.26,2.92.79c.78.53,1.17,1.34,1.17,2.43v4.75c0,.64.18,1.04.53,1.2.35.16.88.18,1.59.06v1.61c-.73.11-1.42.06-2.06-.15-.64-.21-.99-.76-1.05-1.67h-.35c-.33.54-.83,1-1.48,1.38-.66.38-1.4.57-2.21.57Zm.23-1.5c.61,0,1.18-.11,1.7-.33.52-.22.97-.6,1.34-1.15v-1.71h-3.18c-.51,0-.93.12-1.26.35-.34.23-.5.64-.5,1.22,0,.51.14.91.43,1.19s.78.43,1.48.43Z"/>
        <path class="cls-11" d="m811.17,232.82v-10.61h1.77v1.77h.53c.26-.6.67-1.08,1.22-1.42.55-.35,1.18-.52,1.89-.52,1.06,0,1.9.32,2.51.97.61.65.92,1.53.92,2.65v7.16h-1.77v-6.81c0-.74-.18-1.31-.54-1.71-.36-.39-.88-.59-1.55-.59-.53,0-1.07.16-1.62.48-.55.32-1.08.78-1.6,1.38v7.25h-1.77Z"/>
        <path class="cls-11" d="m829.77,231.05c-.31.61-.73,1.09-1.27,1.43-.54.34-1.15.51-1.82.51-1.1,0-1.94-.35-2.55-1.06-.6-.71-.9-1.7-.9-2.97v-2.88c0-1.28.4-2.28,1.2-2.99.8-.71,1.92-1.06,3.36-1.06.41,0,.84.04,1.27.13s.85.21,1.24.36v-3.85h1.77v14.14h-1.77v-1.77h-.53Zm-2.65.26c.58,0,1.13-.15,1.64-.46.52-.31,1.03-.77,1.54-1.4v-5.2c-.37-.22-.75-.39-1.17-.5-.41-.11-.86-.17-1.33-.17-.95,0-1.66.21-2.12.63s-.69,1.05-.69,1.9v2.85c0,.79.18,1.38.53,1.77.35.39.88.58,1.59.58Z"/>
        <path class="cls-2" d="m837.06,236.35l1.59-7.07h3.52l-3.62,7.07h-1.48Z"/>
      </g>
      <g>
        <path class="cls-1" d="m572.57,201.98v-9.02h-3v-1.59h3v-.71c0-.95.37-1.69,1.12-2.22.75-.52,1.68-.79,2.78-.79.54,0,1.03.05,1.46.14.43.09.82.2,1.16.32l-.35,1.48c-.26-.08-.57-.16-.95-.24-.37-.08-.81-.12-1.32-.12-.65,0-1.17.11-1.56.33s-.58.57-.58,1.07v.72h4.42v1.59h-4.42v9.02h-1.77Z"/>
        <path class="cls-1" d="m585.41,202.16c-1.03,0-1.85-.33-2.48-1s-.95-1.54-.95-2.63v-7.16h1.77v6.81c0,.78.17,1.36.51,1.73s.87.57,1.57.57c.55,0,1.09-.15,1.62-.45.52-.3,1.06-.77,1.6-1.41v-7.25h1.77v10.61h-1.77v-1.77h-.53c-.25.58-.66,1.05-1.23,1.41-.57.36-1.2.54-1.88.54Z"/>
        <path class="cls-1" d="m594.04,201.98v-10.61h1.77v1.77h.53c.26-.6.67-1.08,1.22-1.42.55-.35,1.18-.52,1.89-.52,1.06,0,1.9.32,2.51.97.61.65.92,1.53.92,2.65v7.16h-1.77v-6.81c0-.74-.18-1.31-.54-1.71-.36-.39-.88-.59-1.55-.59-.53,0-1.07.16-1.62.48-.55.32-1.08.78-1.6,1.38v7.25h-1.77Z"/>
        <path class="cls-1" d="m610.77,202.16c-1.54,0-2.71-.34-3.49-1.02-.78-.68-1.18-1.68-1.18-3v-2.86c0-1.34.39-2.36,1.18-3.05.78-.69,1.94-1.03,3.47-1.03,1.37,0,2.42.31,3.16.93.74.62,1.15,1.52,1.23,2.71l-1.73.11c-.05-.73-.29-1.27-.72-1.63-.44-.35-1.08-.53-1.94-.53-.97,0-1.69.2-2.16.61-.47.41-.71,1.03-.71,1.88v2.86c0,.81.24,1.42.72,1.82.48.4,1.2.6,2.18.6.85,0,1.49-.15,1.93-.45s.67-.75.71-1.35l1.73.11c-.08,1.08-.49,1.9-1.22,2.46s-1.78.83-3.15.83Z"/>
        <path class="cls-1" d="m624.34,202.14c-1.17,0-2.07-.29-2.72-.87-.65-.58-.97-1.46-.97-2.65v-5.66h-3.01v-1.59h3.01v-3.54h1.77v3.54h4.6v1.59h-4.6v5.5c0,.68.17,1.19.51,1.52.34.33.85.49,1.52.49.45,0,.87-.03,1.25-.1.39-.06.76-.15,1.11-.26l.35,1.61c-.4.12-.83.21-1.28.29s-.97.12-1.55.12Z"/>
        <path class="cls-1" d="m630.23,201.98v-1.59h3.54v-7.42h-3.54v-1.59h5.3v9.01h3.54v1.59h-8.84Zm4.42-12.55c-.45,0-.81-.07-1.09-.21-.28-.14-.42-.41-.42-.8v-.12c0-.4.14-.67.42-.82.28-.15.64-.22,1.09-.22s.81.07,1.09.22c.28.15.42.42.42.82v.12c0,.39-.14.65-.42.8-.28.14-.64.21-1.08.21Z"/>
        <path class="cls-1" d="m646.71,202.16c-1.43,0-2.52-.35-3.28-1.03-.76-.69-1.14-1.68-1.14-2.98v-2.86c0-1.31.38-2.32,1.15-3.02.77-.71,1.86-1.06,3.29-1.06s2.5.35,3.26,1.06c.76.71,1.14,1.71,1.14,3.02v2.86c0,1.3-.38,2.29-1.14,2.98-.76.69-1.85,1.03-3.28,1.03Zm0-1.59c.9,0,1.56-.2,2-.6.44-.4.65-1.01.65-1.82v-2.86c0-.85-.22-1.48-.65-1.88-.44-.41-1.1-.61-2-.61s-1.56.2-2,.61c-.44.41-.65,1.03-.65,1.88v2.86c0,.81.22,1.42.65,1.82.44.4,1.1.6,2,.6Z"/>
        <path class="cls-1" d="m654.36,201.98v-10.61h1.77v1.77h.53c.26-.6.67-1.08,1.22-1.42.55-.35,1.18-.52,1.89-.52,1.06,0,1.9.32,2.51.97.61.65.92,1.53.92,2.65v7.16h-1.77v-6.81c0-.74-.18-1.31-.54-1.71-.36-.39-.88-.59-1.55-.59-.53,0-1.07.16-1.62.48-.55.32-1.08.78-1.6,1.38v7.25h-1.77Z"/>
        <path class="cls-3" d="m685.02,200.22c-.31.61-.73,1.09-1.27,1.43-.54.34-1.15.51-1.82.51-1.1,0-1.94-.35-2.55-1.06-.6-.71-.9-1.7-.9-2.97v-2.88c0-1.28.4-2.28,1.2-2.99.8-.71,1.92-1.06,3.36-1.06.41,0,.84.04,1.27.13s.85.21,1.24.36v-3.85h1.77v14.14h-1.77v-1.77h-.53Zm-2.65.26c.58,0,1.13-.15,1.64-.46.52-.31,1.03-.77,1.54-1.4v-5.2c-.37-.22-.75-.39-1.17-.5-.41-.11-.86-.17-1.33-.17-.95,0-1.66.21-2.12.63s-.69,1.05-.69,1.9v2.85c0,.79.18,1.38.53,1.77.35.39.88.58,1.59.58Z"/>
        <path class="cls-3" d="m699.42,199.65c-.32.88-.8,1.52-1.45,1.92-.65.39-1.64.59-2.99.59s-2.49-.34-3.27-1.02c-.78-.68-1.17-1.68-1.17-3.01v-2.85c0-1.37.41-2.39,1.23-3.07.82-.68,1.89-1.02,3.21-1.02s2.4.34,3.2,1.03c.8.69,1.2,1.75,1.2,3.17v1.63h-7.07v1.11c0,.88.22,1.52.66,1.92.44.39,1.11.59,1.99.59s1.47-.12,1.86-.35c.39-.24.68-.62.88-1.15l1.71.49Zm-7.11-4.37v.42h5.3v-.27c0-.95-.22-1.65-.66-2.09-.44-.44-1.1-.65-1.99-.65s-1.55.21-1.99.63c-.44.42-.66,1.07-.66,1.95Z"/>
        <path class="cls-3" d="m707.27,202.16c-1.54,0-2.71-.34-3.49-1.02-.78-.68-1.18-1.68-1.18-3v-2.86c0-1.34.39-2.36,1.18-3.05.78-.69,1.94-1.03,3.47-1.03,1.37,0,2.42.31,3.16.93.74.62,1.15,1.52,1.23,2.71l-1.73.11c-.05-.73-.29-1.27-.72-1.63-.44-.35-1.08-.53-1.94-.53-.97,0-1.69.2-2.16.61-.47.41-.71,1.03-.71,1.88v2.86c0,.81.24,1.42.72,1.82.48.4,1.2.6,2.18.6.85,0,1.49-.15,1.93-.45.44-.3.67-.75.71-1.35l1.73.11c-.08,1.08-.49,1.9-1.22,2.46s-1.78.83-3.15.83Z"/>
        <path class="cls-3" d="m714.67,201.98v-1.59h3.54v-7.42h-3.54v-1.59h5.3v9.01h3.54v1.59h-8.84Zm4.42-12.55c-.45,0-.81-.07-1.09-.21-.28-.14-.42-.41-.42-.8v-.12c0-.4.14-.67.42-.82.28-.15.64-.22,1.09-.22s.81.07,1.09.22c.28.15.42.42.42.82v.12c0,.39-.14.65-.42.8-.28.14-.64.21-1.08.21Z"/>
        <path class="cls-3" d="m733.27,200.22c-.31.61-.73,1.09-1.27,1.43-.54.34-1.15.51-1.82.51-1.1,0-1.94-.35-2.55-1.06-.6-.71-.9-1.7-.9-2.97v-2.88c0-1.28.4-2.28,1.2-2.99.8-.71,1.92-1.06,3.36-1.06.41,0,.84.04,1.27.13s.85.21,1.24.36v-3.85h1.77v14.14h-1.77v-1.77h-.53Zm-2.65.26c.58,0,1.13-.15,1.64-.46.52-.31,1.03-.77,1.54-1.4v-5.2c-.37-.22-.75-.39-1.17-.5-.41-.11-.86-.17-1.33-.17-.95,0-1.66.21-2.12.63s-.69,1.05-.69,1.9v2.85c0,.79.18,1.38.53,1.77.35.39.88.58,1.59.58Z"/>
        <path class="cls-3" d="m747.67,199.65c-.32.88-.8,1.52-1.45,1.92-.65.39-1.64.59-2.99.59s-2.49-.34-3.27-1.02c-.78-.68-1.17-1.68-1.17-3.01v-2.85c0-1.37.41-2.39,1.23-3.07.82-.68,1.89-1.02,3.21-1.02s2.4.34,3.2,1.03c.8.69,1.2,1.75,1.2,3.17v1.63h-7.07v1.11c0,.88.22,1.52.66,1.92.44.39,1.11.59,1.99.59s1.47-.12,1.86-.35c.39-.24.68-.62.88-1.15l1.71.49Zm-7.11-4.37v.42h5.3v-.27c0-.95-.22-1.65-.66-2.09-.44-.44-1.1-.65-1.99-.65s-1.55.21-1.99.63c-.44.42-.66,1.07-.66,1.95Z"/>
        <path class="cls-4" d="m758.81,205.7c-1.85-.44-3.34-1.44-4.48-3.02-1.14-1.58-1.71-3.58-1.71-5.99s.57-4.41,1.71-5.99c1.14-1.58,2.63-2.59,4.48-3.02l.18,1.38c-1.58.44-2.74,1.35-3.48,2.73-.74,1.38-1.11,3.02-1.11,4.91s.37,3.52,1.11,4.91c.74,1.38,1.9,2.29,3.48,2.73l-.18,1.38Z"/>
      </g>
      <path class="cls-6" d="m533.72,204.05v-1.59h3.89v-10.43h-.51c-.4.71-.92,1.21-1.55,1.5s-1.36.37-2.18.23l-.18-1.73c.91.11,1.74-.02,2.49-.38s1.41-.94,1.98-1.74h1.71v12.55h3.54v1.59h-9.19Z"/>
      <rect class="cls-1" x="567.34" y="185.42" width="1.99" height="23.22"/>
    </g>
  </g>
</svg>