<?xml version="1.0" encoding="UTF-8"?>
<svg id="Layer_1" data-name="Layer 1" xmlns="http://www.w3.org/2000/svg" xmlns:xlink="http://www.w3.org/1999/xlink" viewBox="0 0 48 48">
  <defs>
    <style>
      .cls-1 {
        fill: url(#linear-gradient);
      }
    </style>
    <linearGradient id="linear-gradient" x1="24.12" y1="48.5" x2="24.12" y2="0" gradientUnits="userSpaceOnUse">
      <stop offset="0" stop-color="#ffebb1"/>
      <stop offset=".4" stop-color="#fff"/>
      <stop offset="1" stop-color="#fff"/>
    </linearGradient>
  </defs>
  <path class="cls-1" d="m24.12,2.1c12.13,0,22,9.87,22,22s-9.87,22-22,22S2.12,36.23,2.12,24.1,11.99,2.1,24.12,2.1m0-2C10.87.1.12,10.84.12,24.1s10.75,24,24,24,24-10.75,24-24S37.38.1,24.12.1h0Zm13.17,13.84l-5.28-2.64-2.89-1.45v4.71c-2.9-.02-5.06.75-6.39,2.34-1.54,1.85-1.83,4.64-.81,7.86.76,2.4.65,4.26-.33,5.53-1.39,1.8-4.21,2.14-5.59,2.2-.44-1.51-1.82-2.63-3.48-2.63-2.01,0-3.64,1.63-3.64,3.64s1.63,3.64,3.64,3.64c1.66,0,3.05-1.12,3.48-2.65,1.67-.06,5.24-.49,7.16-2.97,1.41-1.82,1.63-4.3.65-7.36-.8-2.51-.64-4.68.44-5.97.92-1.1,2.58-1.65,4.85-1.63v5.04l2.89-1.45,5.28-2.64,3.58-1.79-3.58-1.79Zm-24.76,22.21c-1.46,0-2.64-1.18-2.64-2.64s1.18-2.64,2.64-2.64,2.63,1.18,2.64,2.63v.04c-.02,1.44-1.19,2.61-2.64,2.61ZM31.12,13.08l5.28,2.64-5.28,2.64v-5.28Z"/>
</svg>