<?xml version="1.0" encoding="UTF-8"?>
<svg id="Layer_1" data-name="Layer 1" xmlns="http://www.w3.org/2000/svg" xmlns:xlink="http://www.w3.org/1999/xlink" viewBox="0 0 48 48">
  <defs>
    <style>
      .cls-1 {
        fill: url(#linear-gradient);
      }
    </style>
    <linearGradient id="linear-gradient" x1="24.12" y1="48.5" x2="24.12" y2="0" gradientUnits="userSpaceOnUse">
      <stop offset="0" stop-color="#ffebb1"/>
      <stop offset=".4" stop-color="#fff"/>
      <stop offset="1" stop-color="#fff"/>
    </linearGradient>
  </defs>
  <path class="cls-1" d="m24.12,2.1c12.13,0,22,9.87,22,22s-9.87,22-22,22S2.12,36.23,2.12,24.1,11.99,2.1,24.12,2.1m0-2C10.87.1.12,10.84.12,24.1s10.75,24,24,24,24-10.75,24-24S37.38.1,24.12.1h0Zm6.67,14.33c4.04,0,7.33,3.29,7.33,7.35,0,.02,0,.08,0,.2-.01.48-.07.96-.18,1.42v.03s-.01.03-.01.03c-.59,3.03-4.86,8.94-13.8,12.18-8.94-3.24-13.21-9.15-13.8-12.18v-.03s-.01-.03-.01-.03c-.11-.46-.17-.94-.18-1.45,0-.09,0-.15,0-.19,0-4.04,3.29-7.33,7.33-7.33,1.99,0,3.85.78,5.24,2.2l1.43,1.46,1.43-1.46c1.39-1.42,3.25-2.2,5.24-2.2m0-2c-2.61,0-4.97,1.07-6.67,2.8-1.69-1.73-4.05-2.8-6.67-2.8-5.15,0-9.33,4.18-9.33,9.33,0,0,0,.1,0,.28.02.62.1,1.22.23,1.8.73,3.72,5.67,10.49,15.76,13.92,10.1-3.43,15.04-10.2,15.76-13.92.13-.58.21-1.19.23-1.8,0-.18,0-.28,0-.28,0-5.15-4.18-9.33-9.33-9.33h0Z"/>
</svg>