<?xml version="1.0" encoding="utf-8"?>
<!-- Generator: Adobe Illustrator 27.5.0, SVG Export Plug-In . SVG Version: 6.00 Build 0)  -->
<svg version="1.1" id="Layer_1" xmlns="http://www.w3.org/2000/svg" xmlns:xlink="http://www.w3.org/1999/xlink" x="0px" y="0px"
	 viewBox="0 0 738 144" style="enable-background:new 0 0 738 144;" xml:space="preserve">
<style type="text/css">
	.st0{clip-path:url(#SVGID_00000007419403565480299740000012491586575849908118_);}
	.st1{fill:#00DDB3;}
	.st2{fill:#FFFFFF;}
</style>
<g>
	<defs>
		<rect id="SVGID_1_" width="738" height="144"/>
	</defs>
	<clipPath id="SVGID_00000158734522934271033910000006491713268813310866_">
		<use xlink:href="#SVGID_1_"  style="overflow:visible;"/>
	</clipPath>
	<g style="clip-path:url(#SVGID_00000158734522934271033910000006491713268813310866_);">
		<path d="M577.6,50.7h-17.5v61.4h17.5V50.7L577.6,50.7z M577.6,30.5h-17.5v13.6h17.5V30.5L577.6,30.5z M196.4,30.5h-18.3v81.7h55.8
			V96.5h-37.5V30.5L196.4,30.5z M270,45.6c-19.4,0-34.8,15-34.8,33.9c0,18.9,15.4,34,34.8,34s35-15,35-33.9
			C305,60.7,289.6,45.6,270,45.6z M270,97.3c-9.8,0-17.1-7.4-17.1-17.8c0-10.4,7.3-17.7,17.1-17.7s17.1,7.6,17.1,17.7
			C287.1,89.7,279.8,97.3,270,97.3L270,97.3z M378.3,98.3c-3.1,0-5.9-1.8-5.9-7.4V64.8h16.7V50.7h-16.7V33h-17.5v17.7h-23V33h-17.5
			v17.7H305v14.1h9.5v26.3c0,14.7,7,22.3,20.1,22.3c5.9,0,11.6-1.7,16.6-4.9l-4.9-12.9c-2.5,1.7-5.4,2.6-8.4,2.7
			c-3.1,0-5.9-1.8-5.9-7.4V64.8h23v26.3c0,14.7,7,22.3,20.1,22.3c5.9,0,11.6-1.7,16.6-4.9l-4.9-12.9
			C384.2,97.3,381.3,98.2,378.3,98.3L378.3,98.3z M488.8,75c-2.7-18.3-18.7-31.3-36.2-28.7c-18.3,2.5-31.2,19.4-28.7,37.7
			c0,0.2,0.1,0.5,0.1,0.7c3.1,21.3,21.4,31.2,40.3,28.4c8.5-1.2,16.5-4.9,23-10.6L479,91c-4.7,4.1-10.5,6.7-16.7,7.6
			c-8.5,1.2-16.5-2-19.9-10.6l46.9-6.8C489.2,79.1,489.1,77,488.8,75L488.8,75z M440.5,76.6c0.5-8.4,6.2-14.7,13.7-15.8
			c7.9-1.2,15.4,3.6,17.6,11.2L440.5,76.6z M678.5,75c-2.7-18.3-18.7-31.3-36.2-28.7c-18.3,2.5-31.2,19.4-28.7,37.7
			c0,0.2,0.1,0.5,0.1,0.7c3.1,21.3,21.4,31.2,40.3,28.4c8.5-1.2,16.5-4.9,23-10.6L668.7,91c-4.7,4.1-10.5,6.7-16.7,7.6
			c-8.5,1.2-16.5-2-19.9-10.6l46.9-6.8C679,79.1,678.8,77,678.5,75L678.5,75z M630.2,76.6c0.5-8.4,6.2-14.7,13.7-15.8
			c7.9-1.2,15.4,3.6,17.6,11.2L630.2,76.6z M606.3,30.5h-17.5v81.7h17.5V30.5z M714.7,71.3c-6-1.3-11.5-2.5-11.5-6.1
			c0-2.7,3.8-4.6,7.8-4.6c6.3,0.1,12.5,1.7,18.1,4.6l5.9-13c-7.3-4.5-15.7-6.7-24.3-6.5c-12.3,0-25.3,7-25.3,20.4
			c0,12.5,10.6,16.8,23.5,20.2c5.6,1.6,11.2,2.5,11.2,6.4c0,3.9-6.7,5.5-10.7,5.5c-7.4,0.1-14.6-2.3-20.3-6.9l-6.3,13.5
			c3.7,3.4,12.7,8.9,26.6,8.9c12.1,0,28.4-5.3,28.4-21.4C737.9,78.8,725.8,74,714.7,71.3L714.7,71.3z M416.1,50.7h-17.5v61.4h17.5
			V50.7L416.1,50.7z M416.1,30.5h-17.5v13.6h17.5V30.5L416.1,30.5z M496.2,112.2h18.2V78.8h30.9V63.3h-30.9V46.1H552V30.5h-55.8
			L496.2,112.2L496.2,112.2z"/>
		<path class="st1" d="M107.5,0H36.4C16.3,0,0,16.3,0,36.4v71.1C0,127.7,16.3,144,36.4,144h71.1c20.1,0,36.4-16.3,36.4-36.4V36.4
			C144,16.3,127.7,0,107.5,0L107.5,0z"/>
		<path class="st2" d="M109.4,32.2c-24.8,0-34,17.7-41.4,31.9l-4.8,9.1c-7.8,15.1-13.7,24.2-28.7,24.2c-1.9,0-3.7,0.8-5,2.1
			c-1.3,1.3-2.1,3.1-2.1,5c0,3.9,3.2,7.1,7.1,7.1c24.8,0,34-17.7,41.4-31.9l4.8-9.1c7.8-15.1,13.7-24.2,28.7-24.2
			c1.9,0,3.7-0.7,5-2.1c0.7-0.7,1.2-1.4,1.5-2.3c0.4-0.9,0.5-1.8,0.5-2.7C116.5,35.4,113.4,32.2,109.4,32.2L109.4,32.2z"/>
	</g>
</g>
</svg>
