<?xml version="1.0" encoding="UTF-8"?>
<svg id="Portfolio_Placeholder" data-name="Portfolio Placeholder" xmlns="http://www.w3.org/2000/svg" viewBox="0 0 1600 561.8">
  <defs>
    <style>
      .cls-1 {
        fill: #999;
      }

      .cls-2 {
        fill: #ccc;
      }
    </style>
  </defs>
  <rect class="cls-2" y="0" width="1600" height="561.8"/>
  <g>
    <path class="cls-1" d="m1002.23,129.23v303.35h-404.46V129.23h404.46m7-7h-418.46v317.35h418.46V122.23h0Z"/>
    <path class="cls-1" d="m911.23,176.67c24.02,0,43.56,19.54,43.56,43.56s-19.54,43.56-43.56,43.56-43.56-19.54-43.56-43.56,19.54-43.56,43.56-43.56m0-7c-27.92,0-50.56,22.64-50.56,50.56s22.64,50.56,50.56,50.56,50.56-22.64,50.56-50.56-22.64-50.56-50.56-50.56h0Z"/>
    <path class="cls-1" d="m734.54,282.5l84.34,66.84,9.08,7.2,9.67-6.39,47.65-31.47,90.83,76.57v11.2h-352.24v-2.18l110.66-121.78m-1.78-21.83l-124.88,137.42v24.36h384.24v-34.64l-105.67-89.08-57.64,38.07-96.06-76.13h0Z"/>
  </g>
</svg>