<?xml version="1.0" encoding="UTF-8"?>
<svg id="Layer_1" data-name="Layer 1" xmlns="http://www.w3.org/2000/svg" xmlns:xlink="http://www.w3.org/1999/xlink" viewBox="0 0 1600 1064">
  <defs>
    <style>
      .cls-1 {
        fill: url(#linear-gradient);
      }

      .cls-2 {
        fill: #71717a;
      }

      .cls-3 {
        fill: #52525b;
      }

      .cls-4 {
        fill: url(#linear-gradient-2);
      }
    </style>
    <linearGradient id="linear-gradient" x1="800" y1="1065.82" x2="800" y2="3.29" gradientUnits="userSpaceOnUse">
      <stop offset="0" stop-color="#09090b"/>
      <stop offset="1" stop-color="#18181b"/>
    </linearGradient>
    <linearGradient id="linear-gradient-2" x1="-733.45" y1="279.01" x2="-733.38" y2="279.51" gradientTransform="translate(147483.22 -55370.9) scale(200)" gradientUnits="userSpaceOnUse">
      <stop offset="0" stop-color="#ffe8ae"/>
      <stop offset=".05" stop-color="#ffe8ae"/>
      <stop offset=".64" stop-color="#ff028a"/>
      <stop offset="1" stop-color="#ff05be"/>
    </linearGradient>
  </defs>
  <rect class="cls-1" width="1600" height="1064"/>
  <g>
    <g id="Page-1">
      <g id="logo-main-5">
        <g id="logo-main-copy-15">
          <path id="Path_3" data-name="Path 3" class="cls-4" d="m800,430.37c-28.15,0-51,22.85-51,51s22.85,51,51,51,51-22.85,51-51-22.85-51-51-51Zm14.28,33.97c-1.22-.36-2.5-.56-3.77-.51-1.48-.05-2.96.05-4.39.36l-.51,28.56c-.26,13.62-6.83,18.41-17.24,18.41-2.7,0-5.35-.36-7.9-1.12l-4.13-3.62c2.55.77,5.25,1.12,7.9,1.12,10.4,0,17.03-4.74,17.24-18.41l.51-28.56c1.43-.31,2.91-.41,4.39-.36,4.13-.05,6.83,1.48,7.91,4.13h0Zm15.1,8.52l-10.56-2.86-4.13-3.62,10.56,2.86c.1-.77.15-1.58.2-2.4.05-4.44-1.63-8.21-4.39-10.66l4.13,3.62c2.75,2.45,4.49,6.22,4.39,10.66,0,.82-.1,1.63-.2,2.4h0Z"/>
        </g>
      </g>
    </g>
    <g>
      <g>
        <path class="cls-2" d="m717.94,588.7c.61.68,1.4.97,2.2.97,1.48,0,2.48-.79,2.48-2.63v-17.78h4.54v18c0,4.5-2.66,6.44-6.51,6.44-1.4,0-2.77-.32-3.92-1.3l1.22-3.71Z"/>
        <path class="cls-2" d="m741.16,568.87c5.26,0,7.49,5.36,7.49,12.42s-2.23,12.42-7.49,12.42-7.49-5.36-7.49-12.42,2.2-12.42,7.49-12.42Zm0,4.03c-2.12,0-2.84,3.6-2.84,8.39s.72,8.39,2.84,8.39,2.84-3.67,2.84-8.39-.72-8.39-2.84-8.39Z"/>
      </g>
      <g>
        <path class="cls-3" d="m755.24,593.27v-24.01h6.48c4.68,0,6.77,3.56,6.77,7.59s-2.09,7.6-6.77,7.6h-1.94v8.82h-4.54Zm6.01-20.01h-1.48v7.2h1.48c1.69,0,2.63-1.44,2.63-3.6s-.94-3.6-2.63-3.6Z"/>
        <path class="cls-3" d="m774.71,593.27v-24.01h10.51v4h-5.98v5.8h5.72v4h-5.72v6.23h5.98v4h-10.51Z"/>
        <path class="cls-3" d="m800.88,593.27l-.72-4.43h-4.97l-.72,4.43h-4.43l5-24.01h5.22l5.04,24.01h-4.43Zm-3.2-19.87l-1.94,11.45h3.89l-1.94-11.45Z"/>
        <path class="cls-3" d="m819.39,593.27l-2.59-8.82h-1.48v8.82h-4.54v-24.01h6.7c3.82,0,6.55,3.06,6.55,7.45,0,4.07-1.73,5.9-3.1,6.62l3.31,9.93h-4.86Zm-2.59-20.01h-1.48v7.2h1.48c1.69,0,2.63-1.44,2.63-3.6s-.94-3.6-2.63-3.6Z"/>
        <path class="cls-3" d="m831.48,587.77c.97,1.26,2.52,1.91,3.89,1.91,1.44,0,2.45-1.08,2.45-2.63,0-1.87-1.4-2.88-3.02-4.07-2.12-1.51-4.61-3.24-4.61-7.42,0-3.6,2.45-6.69,6.69-6.69,2.02,0,3.89.68,5.22,1.94l-1.76,3.49c-.94-.97-2.05-1.4-3.28-1.4-1.33,0-2.27.97-2.27,2.41,0,1.58,1.33,2.63,2.88,3.78,2.2,1.58,4.75,3.49,4.75,7.67s-2.63,6.95-6.73,6.95c-2.63,0-4.64-.83-6.19-2.38l1.98-3.56Z"/>
        <path class="cls-3" d="m855.53,568.87c5.26,0,7.49,5.36,7.49,12.42s-2.23,12.42-7.49,12.42-7.49-5.36-7.49-12.42,2.2-12.42,7.49-12.42Zm0,4.03c-2.12,0-2.84,3.6-2.84,8.39s.72,8.39,2.84,8.39,2.84-3.67,2.84-8.39-.72-8.39-2.84-8.39Z"/>
        <path class="cls-3" d="m879,593.27l-4.9-14.51v14.51h-4.5v-24.01h4.54l4.64,13.79v-13.79h4.5v24.01h-4.28Z"/>
      </g>
    </g>
    <g>
      <g>
        <g>
          <path class="cls-2" d="m515.09,614.62h3.53v13.44c0,1.82.7,2.46,1.79,2.46s1.79-.64,1.79-2.46v-13.44h3.53v13.27c0,4-2.55,5.74-5.32,5.74s-5.32-1.74-5.32-5.74v-13.27Z"/>
          <path class="cls-2" d="m531.44,633.3v-18.68h3.53v18.68h-3.53Z"/>
        </g>
        <g>
          <path class="cls-3" d="m548.04,633.3v-18.68h4.65c4.51,0,6.36,4.03,6.36,9.35s-1.82,9.32-6.33,9.32h-4.68Zm3.53-3.11h1.12c1.88,0,2.74-2.24,2.74-6.22s-.89-6.24-2.74-6.24h-1.12v12.46Z"/>
          <path class="cls-3" d="m564.17,633.3v-18.68h8.18v3.11h-4.65v4.51h4.45v3.11h-4.45v4.84h4.65v3.11h-8.18Z"/>
          <path class="cls-3" d="m577.98,629.01c.76.98,1.96,1.48,3.02,1.48,1.12,0,1.9-.84,1.9-2.04,0-1.46-1.09-2.24-2.35-3.16-1.65-1.18-3.58-2.52-3.58-5.77,0-2.8,1.9-5.21,5.21-5.21,1.57,0,3.02.53,4.06,1.51l-1.37,2.72c-.73-.76-1.6-1.09-2.55-1.09-1.04,0-1.76.76-1.76,1.88,0,1.23,1.04,2.04,2.24,2.94,1.71,1.23,3.7,2.72,3.7,5.96s-2.04,5.4-5.24,5.4c-2.04,0-3.61-.64-4.82-1.85l1.54-2.77Z"/>
          <path class="cls-3" d="m591.45,633.3v-18.68h3.53v18.68h-3.53Z"/>
          <path class="cls-3" d="m605.95,614.31c2.61,0,4.06,1.99,4.68,4.4l-2.8,1.04c-.31-1.29-.79-2.3-1.88-2.3-1.4,0-2.24,2.04-2.24,6.52s.84,6.52,2.24,6.52c.79,0,1.32-.31,1.68-.84v-3.39h-2.1v-3.11h5.21v8.01c-1.23,1.57-2.69,2.46-4.79,2.46-4.03,0-5.85-3.95-5.85-9.66s1.82-9.66,5.85-9.66Z"/>
          <path class="cls-3" d="m623.48,633.3l-3.81-11.28v11.28h-3.5v-18.68h3.53l3.61,10.72v-10.72h3.5v18.68h-3.33Z"/>
        </g>
      </g>
      <path class="cls-3" d="m631.9,625.09v-2.69h16.24v2.69h-16.24Z"/>
      <g>
        <g>
          <path class="cls-2" d="m653.24,614.62h3.53v13.44c0,1.82.7,2.46,1.79,2.46s1.79-.64,1.79-2.46v-13.44h3.53v13.27c0,4-2.55,5.74-5.32,5.74s-5.32-1.74-5.32-5.74v-13.27Z"/>
          <path class="cls-2" d="m676.56,633.3l-2.29-6.44-2.27,6.44h-3.89l4.12-9.52-3.89-9.16h3.89l2.04,6.1,2.04-6.1h3.92l-3.92,9.13,4.14,9.55h-3.89Z"/>
        </g>
        <g>
          <path class="cls-3" d="m692.02,633.3v-18.68h4.65c4.51,0,6.36,4.03,6.36,9.35s-1.82,9.32-6.33,9.32h-4.68Zm3.53-3.11h1.12c1.88,0,2.74-2.24,2.74-6.22s-.89-6.24-2.74-6.24h-1.12v12.46Z"/>
          <path class="cls-3" d="m708.15,633.3v-18.68h8.18v3.11h-4.65v4.51h4.45v3.11h-4.45v4.84h4.65v3.11h-8.18Z"/>
          <path class="cls-3" d="m721.95,629.01c.76.98,1.96,1.48,3.02,1.48,1.12,0,1.9-.84,1.9-2.04,0-1.46-1.09-2.24-2.35-3.16-1.65-1.18-3.58-2.52-3.58-5.77,0-2.8,1.9-5.21,5.21-5.21,1.57,0,3.02.53,4.06,1.51l-1.37,2.72c-.73-.76-1.6-1.09-2.55-1.09-1.04,0-1.76.76-1.76,1.88,0,1.23,1.04,2.04,2.24,2.94,1.71,1.23,3.7,2.72,3.7,5.96s-2.04,5.4-5.24,5.4c-2.04,0-3.61-.64-4.82-1.85l1.54-2.77Z"/>
          <path class="cls-3" d="m735.42,633.3v-18.68h3.53v18.68h-3.53Z"/>
          <path class="cls-3" d="m749.92,614.31c2.61,0,4.06,1.99,4.68,4.4l-2.8,1.04c-.31-1.29-.79-2.3-1.88-2.3-1.4,0-2.24,2.04-2.24,6.52s.84,6.52,2.24,6.52c.79,0,1.32-.31,1.68-.84v-3.39h-2.1v-3.11h5.21v8.01c-1.23,1.57-2.69,2.46-4.79,2.46-4.03,0-5.85-3.95-5.85-9.66s1.82-9.66,5.85-9.66Z"/>
          <path class="cls-3" d="m767.45,633.3l-3.81-11.28v11.28h-3.5v-18.68h3.53l3.61,10.72v-10.72h3.5v18.68h-3.33Z"/>
        </g>
      </g>
      <path class="cls-3" d="m775.88,625.09v-2.69h16.24v2.69h-16.24Z"/>
      <g>
        <g>
          <path class="cls-2" d="m797.21,633.3v-18.68h8.18v3.11h-4.65v4.51h4.45v3.11h-4.45v7.95h-3.53Z"/>
          <path class="cls-2" d="m817.23,633.3l-2.02-6.86h-1.15v6.86h-3.53v-18.68h5.21c2.97,0,5.1,2.38,5.1,5.8,0,3.16-1.34,4.59-2.41,5.15l2.58,7.73h-3.78Zm-2.02-15.57h-1.15v5.6h1.15c1.32,0,2.04-1.12,2.04-2.8s-.73-2.8-2.04-2.8Z"/>
          <path class="cls-2" d="m831.46,614.31c4.09,0,5.82,4.17,5.82,9.66s-1.74,9.66-5.82,9.66-5.82-4.17-5.82-9.66,1.71-9.66,5.82-9.66Zm0,3.14c-1.65,0-2.21,2.8-2.21,6.52s.56,6.52,2.21,6.52,2.21-2.86,2.21-6.52-.56-6.52-2.21-6.52Z"/>
          <path class="cls-2" d="m849.71,633.3l-3.81-11.28v11.28h-3.5v-18.68h3.53l3.61,10.72v-10.72h3.5v18.68h-3.33Z"/>
          <path class="cls-2" d="m860.63,633.3v-15.57h-2.83v-3.11h9.18v3.11h-2.83v15.57h-3.53Z"/>
          <path class="cls-2" d="m871.75,633.3v-18.68h8.18v3.11h-4.65v4.51h4.45v3.11h-4.45v4.84h4.65v3.11h-8.18Z"/>
          <path class="cls-2" d="m892.44,633.3l-3.81-11.28v11.28h-3.5v-18.68h3.53l3.61,10.72v-10.72h3.5v18.68h-3.33Z"/>
          <path class="cls-2" d="m901.48,633.3v-18.68h4.65c4.51,0,6.36,4.03,6.36,9.35s-1.82,9.32-6.33,9.32h-4.68Zm3.53-3.11h1.12c1.88,0,2.74-2.24,2.74-6.22s-.9-6.24-2.74-6.24h-1.12v12.46Z"/>
        </g>
        <g>
          <path class="cls-3" d="m924.98,633.3v-18.68h4.65c4.51,0,6.36,4.03,6.36,9.35s-1.82,9.32-6.33,9.32h-4.68Zm3.53-3.11h1.12c1.88,0,2.74-2.24,2.74-6.22s-.9-6.24-2.74-6.24h-1.12v12.46Z"/>
          <path class="cls-3" d="m941.11,633.3v-18.68h8.18v3.11h-4.65v4.51h4.45v3.11h-4.45v4.84h4.65v3.11h-8.18Z"/>
          <path class="cls-3" d="m956.92,633.3l-3.89-18.68h3.64l2.3,14.14,2.3-14.14h3.64l-3.92,18.68h-4.06Z"/>
          <path class="cls-3" d="m969.16,633.3v-18.68h8.18v3.11h-4.65v4.51h4.45v3.11h-4.45v4.84h4.65v3.11h-8.18Z"/>
          <path class="cls-3" d="m982.54,633.3v-18.68h3.53v15.57h4.65v3.11h-8.18Z"/>
          <path class="cls-3" d="m1000.8,614.31c4.09,0,5.82,4.17,5.82,9.66s-1.73,9.66-5.82,9.66-5.82-4.17-5.82-9.66,1.71-9.66,5.82-9.66Zm0,3.14c-1.65,0-2.21,2.8-2.21,6.52s.56,6.52,2.21,6.52,2.21-2.86,2.21-6.52-.56-6.52-2.21-6.52Z"/>
          <path class="cls-3" d="m1011.75,633.3v-18.68h5.04c3.64,0,5.26,2.77,5.26,5.91s-1.62,5.91-5.26,5.91h-1.51v6.86h-3.53Zm4.68-15.57h-1.15v5.6h1.15c1.32,0,2.04-1.12,2.04-2.8s-.73-2.8-2.04-2.8Z"/>
          <path class="cls-3" d="m1037.84,633.3v-12.24l-3.11,12.24h-1.34l-3.05-12.24v12.24h-3.45v-18.68h4.48l2.69,10.75,2.77-10.75h4.4v18.68h-3.39Z"/>
          <path class="cls-3" d="m1046.94,633.3v-18.68h8.18v3.11h-4.65v4.51h4.45v3.11h-4.45v4.84h4.65v3.11h-8.18Z"/>
          <path class="cls-3" d="m1067.63,633.3l-3.81-11.28v11.28h-3.5v-18.68h3.53l3.61,10.72v-10.72h3.5v18.68h-3.33Z"/>
          <path class="cls-3" d="m1078.55,633.3v-15.57h-2.83v-3.11h9.18v3.11h-2.83v15.57h-3.53Z"/>
        </g>
      </g>
    </g>
  </g>
</svg>