<?xml version="1.0" encoding="UTF-8"?>
<svg id="Layer_1" data-name="Layer 1" xmlns="http://www.w3.org/2000/svg" viewBox="0 0 53.16 46.83">
  <defs>
    <style>
      .cls-1 {
        fill: #fff;
      }

      .cls-2 {
        fill: #ff3e00;
      }

      .cls-3 {
        fill: #8d8d93;
      }

      .cls-4 {
        fill: #4a4a55;
      }
    </style>
  </defs>
  <g>
    <path class="cls-3" d="m42.33,46.72l-1.79-3.33-1.13,1.36v1.96h-.95v-6.36h.95v3.08l2.45-3.08h1.09l-1.78,2.24,2.26,4.13s-1.11,0-1.11,0Zm3.15,0v-6.36h.95v6.36h-.95Zm5.87-5.45v5.45h-.95v-5.46h-1.8v-.91h4.55v.91h-1.8Z"/>
    <path class="cls-4" d="m2.32,46.83c-.52.01-1.03-.13-1.46-.41-.41-.27-.71-.67-.85-1.13l.89-.33c.12.28.33.53.58.7.26.17.57.27.88.26.3.02.6-.07.84-.25.21-.18.33-.45.31-.73,0-.13-.03-.25-.09-.37-.05-.1-.12-.2-.2-.28-.1-.09-.21-.17-.34-.22-.15-.08-.28-.13-.38-.17-.15-.06-.29-.11-.44-.16-.24-.08-.42-.15-.55-.2-.16-.07-.32-.15-.48-.24-.17-.09-.32-.2-.45-.34-.11-.13-.2-.28-.27-.44-.26-.63-.09-1.35.43-1.79.36-.32.86-.48,1.48-.48.52,0,.95.12,1.29.35.33.22.57.54.68.92l-.87.29c-.09-.2-.24-.36-.42-.47-.23-.13-.48-.19-.74-.18-.25-.01-.5.06-.71.2-.17.13-.27.34-.26.56,0,.17.07.33.2.44.12.12.26.21.42.28.15.06.37.14.66.25.18.07.32.12.4.15.09.03.22.09.39.17.14.06.27.13.39.21.11.08.22.17.32.26.11.1.2.21.28.33.07.13.13.27.16.41.05.17.07.34.07.51,0,.59-.2,1.06-.61,1.4-.41.34-.93.5-1.56.51Zm5.83-.11l-2.18-6.36h1.02l1.45,4.44c.08.24.15.48.2.73.05-.25.12-.49.2-.73l1.43-4.44h1.01l-2.17,6.36h-.95Zm5.05,0v-6.36h3.95v.89h-3v1.75h1.94v.89h-1.94v1.95h3.2v.89h-4.15Zm6.55,0v-6.36h.95v5.45h3.11v.91h-4.05Zm7.62-5.45v5.45h-.95v-5.45h-1.8v-.91h4.55v.91h-1.8Zm3.75,5.45v-6.36h3.95v.89h-3v1.75h1.94v.89h-1.94v1.95h3.2v.89h-4.15Z"/>
  </g>
  <g>
    <path class="cls-2" d="m38.75,4.44C35.64-.02,29.49-1.34,25.04,1.49l-7.81,4.98c-2.13,1.34-3.6,3.52-4.05,6-.37,2.07-.05,4.2.93,6.06-.67,1.01-1.12,2.15-1.34,3.35-.45,2.53.14,5.13,1.63,7.22,3.11,4.46,9.26,5.78,13.71,2.94l7.81-4.98c2.13-1.34,3.6-3.52,4.05-6,.37-2.07.05-4.2-.93-6.06.67-1.01,1.12-2.15,1.34-3.35.45-2.53-.14-5.13-1.63-7.22"/>
    <path class="cls-1" d="m24.28,29.51c-2.52.65-5.18-.33-6.66-2.47-.9-1.26-1.25-2.82-.98-4.34.05-.25.11-.49.19-.73l.15-.45.4.29c.92.68,1.96,1.2,3.05,1.53l.29.09-.03.29c-.04.41.08.82.31,1.16.45.64,1.25.94,2.01.74.17-.04.33-.12.48-.21l7.81-4.98c.39-.24.65-.64.73-1.09.08-.46-.03-.93-.3-1.31-.45-.64-1.25-.94-2.01-.74-.17.04-.33.12-.48.21l-2.98,1.9c-.49.31-1.03.55-1.59.7-2.52.65-5.17-.33-6.66-2.47-.9-1.26-1.25-2.82-.98-4.34.27-1.49,1.15-2.8,2.44-3.61l7.81-4.98c.49-.31,1.03-.55,1.59-.7,2.52-.65,5.17.33,6.66,2.47.9,1.26,1.25,2.82.98,4.34-.05.25-.11.49-.19.73l-.15.45-.4-.29c-.92-.68-1.96-1.2-3.05-1.53l-.29-.09.03-.29c.04-.41-.08-.82-.31-1.16-.45-.64-1.25-.94-2-.74-.17.04-.33.12-.48.21l-7.81,4.98c-.39.24-.65.64-.73,1.09-.08.46.03.93.3,1.31.45.64,1.25.94,2.01.74.17-.05.33-.12.48-.21l2.98-1.9c.49-.31,1.03-.55,1.59-.7,2.52-.65,5.17.33,6.66,2.47.9,1.26,1.25,2.82.98,4.34-.27,1.49-1.15,2.8-2.43,3.61l-7.81,4.98c-.49.31-1.03.55-1.59.7"/>
  </g>
</svg>